<svg version="1.1" viewBox="0.0 0.0 960.0 540.0" fill="none" stroke="none" stroke-linecap="square" stroke-miterlimit="10" xmlns:xlink="http://www.w3.org/1999/xlink" xmlns="http://www.w3.org/2000/svg"><clipPath id="g5ed97d6ff9_4_359.0"><path d="m0 0l960.0 0l0 540.0l-960.0 0l0 -540.0z" clip-rule="nonzero"/></clipPath><g clip-path="url(#g5ed97d6ff9_4_359.0)"><path fill="#2b2b2b" d="m0 0l960.0 0l0 540.0l-960.0 0z" fill-rule="evenodd"/><path fill="#000000" fill-opacity="0.0" d="m32.72441 46.721786l894.55115 0l0 60.125984l-894.55115 0z" fill-rule="evenodd"/><path fill="#ffffff" d="m42.490036 94.12178l6.875 -32.406246l4.359375 0l6.921875 32.406246l-4.28125 0l-1.484375 -8.15625l-6.59375 0l-1.5625 8.15625l-4.234375 0zm6.390625 -11.40625l5.40625 0l-2.71875 -14.59375l-2.6875 14.59375zm21.086227 11.71875q-2.71875 0 -4.203125 -1.046875q-1.484375 -1.0625 -2.0625 -3.125q-0.578125 -2.0625 -0.578125 -5.0625l0 -5.28125q0 -3.078125 0.59375 -5.109375q0.609375 -2.046875 2.109375 -3.078125q1.5 -1.046875 4.140625 -1.046875q2.921875 0 4.296875 1.203125q1.375 1.1875 1.8125 3.453125q0.453125 2.265625 0.453125 5.421875l0 1.875l-9.125 0l0 4.640625q0 1.40625 0.25 2.28125q0.265625 0.875 0.84375 1.296875q0.59375 0.421875 1.5 0.421875q0.96875 0 1.46875 -0.453125q0.5 -0.46875 0.671875 -1.328125q0.1875 -0.859375 0.1875 -2.015625l0 -1.40625l4.15625 0l0 0.890625q0 3.46875 -1.484375 5.46875q-1.46875 2.0 -5.03125 2.0zm-2.5625 -14.109375l4.921875 0l0 -2.078125q0 -1.4375 -0.171875 -2.421875q-0.15625 -0.984375 -0.65625 -1.484375q-0.5 -0.5 -1.578125 -0.5q-1.03125 0 -1.578125 0.484375q-0.53125 0.484375 -0.734375 1.625q-0.203125 1.125 -0.203125 3.125l0 1.25zm13.121231 13.796875l0 -23.125l4.28125 0l0 3.28125q1.28125 -2.109375 2.5625 -2.828125q1.28125 -0.734375 2.5625 -0.734375q0.15625 0 0.296875 0q0.140625 0 0.375 0.046875l0 4.71875q-0.484375 -0.203125 -1.109375 -0.34375q-0.609375 -0.140625 -1.25 -0.140625q-1.0 0 -1.828125 0.46875q-0.8125 0.453125 -1.609375 1.78125l0 16.875l-4.28125 0zm19.074356 0.3125q-2.5625 0 -4.046875 -1.03125q-1.46875 -1.046875 -2.09375 -2.953125q-0.609375 -1.921875 -0.609375 -4.53125l0 -6.71875q0 -2.59375 0.609375 -4.515625q0.625 -1.921875 2.09375 -2.953125q1.484375 -1.046875 4.046875 -1.046875q2.5625 0 4.015625 1.046875q1.46875 1.03125 2.078125 2.953125q0.625 1.921875 0.625 4.515625l0 6.71875q0 2.609375 -0.625 4.53125q-0.609375 1.90625 -2.078125 2.953125q-1.453125 1.03125 -4.015625 1.03125zm0 -3.15625q1.25 0 1.75 -0.71875q0.5 -0.71875 0.59375 -1.890625q0.09375 -1.1875 0.09375 -2.46875l0 -7.234375q0 -1.328125 -0.09375 -2.484375q-0.09375 -1.15625 -0.59375 -1.890625q-0.5 -0.75 -1.75 -0.75q-1.234375 0 -1.765625 0.75q-0.515625 0.734375 -0.609375 1.890625q-0.09375 1.15625 -0.09375 2.484375l0 7.234375q0 1.28125 0.09375 2.46875q0.09375 1.171875 0.609375 1.890625q0.53125 0.71875 1.765625 0.71875zm10.64061 2.84375l0 -23.125l4.28125 0l0 2.28125q1.15625 -1.078125 2.5625 -1.828125q1.40625 -0.765625 3.078125 -0.765625q1.40625 0 2.140625 0.71875q0.734375 0.71875 1.03125 1.796875q0.3125 1.078125 0.3125 2.203125l0 18.71875l-4.28125 0l0 -17.484375q0 -1.234375 -0.359375 -1.90625q-0.359375 -0.6875 -1.484375 -0.6875q-0.71875 0 -1.5 0.421875q-0.78125 0.421875 -1.5 1.015625l0 18.640625l-4.28125 0zm25.329346 0l6.875 -32.406246l4.359375 0l6.921875 32.406246l-4.28125 0l-1.484375 -8.15625l-6.59375 0l-1.5625 8.15625l-4.234375 0zm6.390625 -11.40625l5.40625 0l-2.71875 -14.59375l-2.6875 14.59375zm15.039352 11.40625l0 -32.406246l8.046875 0q2.921875 0 4.65625 1.0625q1.734375 1.0625 2.53125 3.0624962q0.8125 2.0 0.8125 4.84375q0 2.5625 -0.90625 4.4375q-0.890625 1.875 -2.65625 2.90625q-1.765625 1.015625 -4.40625 1.015625l-3.546875 0l0 15.078125l-4.53125 0zm4.53125 -18.3125l2.078125 0q1.953125 0 3.0625 -0.4375q1.125 -0.453125 1.609375 -1.546875q0.484375 -1.109375 0.484375 -3.109375q0 -2.3125 -0.34375 -3.546875q-0.34375 -1.25 -1.421875 -1.71875q-1.078125 -0.484375 -3.359375 -0.484375l-2.109375 0l0 10.84375zm14.918732 18.3125l0 -32.406246l4.4375 0l0 32.406246l-4.4375 0zm9.107498 0l0 -4.765625l4.28125 0l0 4.765625l-4.28125 0zm25.367477 0.359375q-3.4375 0 -5.34375 -1.4375q-1.890625 -1.4375 -2.640625 -3.875q-0.734375 -2.453125 -0.734375 -5.453125l0 -11.4375q0 -3.28125 0.734375 -5.71875q0.75 -2.4375 2.640625 -3.7812462q1.90625 -1.34375 5.34375 -1.34375q3.046875 0 4.8125 1.125q1.78125 1.125 2.5625 3.2031212q0.78125 2.078125 0.78125 5.0l0 2.5625l-4.28125 0l0 -2.28125q0 -1.796875 -0.1875 -3.171875q-0.171875 -1.390625 -0.96875 -2.140625q-0.796875 -0.765625 -2.671875 -0.765625q-1.921875 0 -2.8125 0.828125q-0.875 0.8125 -1.140625 2.3125q-0.25 1.5 -0.25 3.5l0 12.828125q0 2.453125 0.390625 3.875q0.40625 1.40625 1.328125 2.015625q0.921875 0.59375 2.484375 0.59375q1.828125 0 2.625 -0.8125q0.8125 -0.828125 1.0 -2.265625q0.203125 -1.4375 0.203125 -3.359375l0 -2.40625l4.28125 0l0 2.40625q0 2.953125 -0.71875 5.21875q-0.71875 2.265625 -2.484375 3.53125q-1.75 1.25 -4.953125 1.25zm12.240601 -0.359375l0 -32.406246l4.28125 0l0 11.687496q1.15625 -1.125 2.59375 -1.921875q1.4375 -0.796875 3.203125 -0.796875q1.359375 0 2.09375 0.71875q0.75 0.71875 1.046875 1.796875q0.296875 1.078125 0.296875 2.203125l0 18.71875l-4.28125 0l0 -17.484375q0 -1.234375 -0.359375 -1.90625q-0.359375 -0.6875 -1.46875 -0.6875q-0.765625 0 -1.59375 0.4375q-0.8125 0.4375 -1.53125 1.078125l0 18.5625l-4.28125 0zm21.831238 0.3125q-1.359375 0 -2.40625 -0.765625q-1.03125 -0.78125 -1.625 -2.0q-0.59375 -1.234375 -0.59375 -2.59375q0 -2.15625 0.71875 -3.625q0.71875 -1.484375 1.96875 -2.5q1.265625 -1.03125 2.921875 -1.78125q1.65625 -0.765625 3.5 -1.484375l0 -1.640625q0 -1.40625 -0.15625 -2.3125q-0.15625 -0.921875 -0.65625 -1.375q-0.5 -0.46875 -1.5 -0.46875q-0.890625 0 -1.4375 0.40625q-0.53125 0.390625 -0.765625 1.140625q-0.234375 0.734375 -0.234375 1.734375l0 1.15625l-4.25 -0.15625q0.078125 -3.84375 1.75 -5.65625q1.6875 -1.828125 5.21875 -1.828125q3.4375 0 4.875 1.875q1.4375 1.875 1.4375 5.4375l0 10.5625q0 1.078125 0.0625 2.078125q0.0625 1.0 0.15625 1.859375q0.109375 0.859375 0.1875 1.625l-3.921875 0q-0.125 -0.640625 -0.3125 -1.609375q-0.171875 -0.984375 -0.25 -1.796875q-0.40625 1.359375 -1.546875 2.546875q-1.140625 1.171875 -3.140625 1.171875zm1.6875 -3.671875q0.640625 0 1.203125 -0.359375q0.5625 -0.359375 1.0 -0.8125q0.4375 -0.46875 0.59375 -0.75l0 -6.5625q-1.0 0.5625 -1.875 1.125q-0.875 0.5625 -1.546875 1.1875q-0.65625 0.609375 -1.046875 1.390625q-0.375 0.78125 -0.375 1.78125q0 1.40625 0.515625 2.203125q0.53125 0.796875 1.53125 0.796875zm11.196228 3.359375l0 -23.125l4.28125 0l0 2.28125q1.15625 -1.078125 2.5625 -1.828125q1.40625 -0.765625 3.078125 -0.765625q1.40625 0 2.140625 0.71875q0.734375 0.71875 1.03125 1.796875q0.3125 1.078125 0.3125 2.203125l0 18.71875l-4.28125 0l0 -17.484375q0 -1.234375 -0.359375 -1.90625q-0.359375 -0.6875 -1.484375 -0.6875q-0.71875 0 -1.5 0.421875q-0.78125 0.421875 -1.5 1.015625l0 18.640625l-4.28125 0zm17.559967 0l0 -23.125l4.28125 0l0 2.28125q1.15625 -1.078125 2.5625 -1.828125q1.40625 -0.765625 3.078125 -0.765625q1.40625 0 2.140625 0.71875q0.734375 0.71875 1.03125 1.796875q0.3125 1.078125 0.3125 2.203125l0 18.71875l-4.28125 0l0 -17.484375q0 -1.234375 -0.359375 -1.90625q-0.359375 -0.6875 -1.484375 -0.6875q-0.71875 0 -1.5 0.421875q-0.78125 0.421875 -1.5 1.015625l0 18.640625l-4.28125 0zm23.966248 0.3125q-2.71875 0 -4.203125 -1.046875q-1.484375 -1.0625 -2.0625 -3.125q-0.578125 -2.0625 -0.578125 -5.0625l0 -5.28125q0 -3.078125 0.59375 -5.109375q0.609375 -2.046875 2.109375 -3.078125q1.5 -1.046875 4.140625 -1.046875q2.921875 0 4.296875 1.203125q1.375 1.1875 1.8125 3.453125q0.453125 2.265625 0.453125 5.421875l0 1.875l-9.125 0l0 4.640625q0 1.40625 0.25 2.28125q0.265625 0.875 0.84375 1.296875q0.59375 0.421875 1.5 0.421875q0.96875 0 1.46875 -0.453125q0.5 -0.46875 0.671875 -1.328125q0.1875 -0.859375 0.1875 -2.015625l0 -1.40625l4.15625 0l0 0.890625q0 3.46875 -1.484375 5.46875q-1.46875 2.0 -5.03125 2.0zm-2.5625 -14.109375l4.921875 0l0 -2.078125q0 -1.4375 -0.171875 -2.421875q-0.15625 -0.984375 -0.65625 -1.484375q-0.5 -0.5 -1.578125 -0.5q-1.03125 0 -1.578125 0.484375q-0.53125 0.484375 -0.734375 1.625q-0.203125 1.125 -0.203125 3.125l0 1.25zm13.402466 13.796875l0 -32.406246l4.28125 0l0 32.406246l-4.28125 0zm14.113098 0.3125q-2.828125 0 -4.5625 -1.765625q-1.71875 -1.78125 -1.953125 -4.703125l3.5625 -1.078125q0.3125 2.1875 1.078125 3.296875q0.765625 1.09375 2.234375 1.09375q1.171875 0 1.765625 -0.65625q0.59375 -0.65625 0.59375 -1.78125q0 -1.0 -0.4375 -1.796875q-0.4375 -0.796875 -1.4375 -1.640625l-3.953125 -3.40625q-1.203125 -1.03125 -2.03125 -2.3125q-0.8125 -1.28125 -0.8125 -3.328125q0 -1.828125 0.734375 -3.09375q0.75 -1.265625 2.078125 -1.921875q1.34375 -0.65625 3.140625 -0.65625q2.765625 0 4.21875 1.78125q1.46875 1.78125 1.671875 4.296875l-2.890625 1.078125q-0.15625 -1.203125 -0.484375 -2.09375q-0.3125 -0.90625 -0.875 -1.40625q-0.5625 -0.5 -1.46875 -0.5q-1.046875 0 -1.671875 0.703125q-0.609375 0.703125 -0.609375 1.65625q0 0.609375 0.25 1.1875q0.265625 0.578125 0.90625 1.140625l4.078125 3.75q0.84375 0.765625 1.578125 1.65625q0.734375 0.875 1.21875 2.0q0.484375 1.109375 0.484375 2.59375q0 1.953125 -0.8125 3.28125q-0.796875 1.3125 -2.234375 1.96875q-1.4375 0.65625 -3.359375 0.65625zm25.91687 0.046875q-2.1875 0 -3.78125 -0.9375q-1.578125 -0.9375 -2.40625 -2.578125q-0.8125 -1.640625 -0.8125 -3.765625q0 -3.078125 1.375 -5.328125q1.390625 -2.265625 3.359375 -4.03125q-0.734375 -1.4375 -1.546875 -2.890625q-0.8125 -1.46875 -1.40625 -3.046875q-0.578125 -1.578125 -0.578125 -3.296875q0 -2.171875 0.84375 -3.765625q0.84375 -1.5937462 2.390625 -2.4999962q1.5625 -0.90625 3.6875 -0.90625q1.96875 0 3.5 0.734375q1.546875 0.71875 2.453125 2.0624962q0.921875 1.328125 0.921875 3.203125q0 2.125 -0.984375 4.0625q-0.96875 1.9375 -2.375 3.609375q-1.390625 1.65625 -2.71875 2.9375l4.890625 7.671875q0.4375 -0.828125 0.734375 -1.890625q0.296875 -1.0625 0.515625 -2.265625q0.21875 -1.203125 0.34375 -2.3125l4.234375 0q0 1.5625 -0.453125 3.28125q-0.453125 1.71875 -1.1875 3.265625q-0.71875 1.53125 -1.46875 2.609375q0.515625 0.640625 1.359375 1.140625q0.84375 0.5 1.796875 0.5l0 4.390625q-0.15625 0 -0.296875 0q-0.140625 0 -0.265625 0q-1.15625 -0.03125 -2.078125 -0.53125q-0.921875 -0.5 -1.671875 -1.21875q-0.734375 -0.71875 -1.40625 -1.359375q-1.078125 1.359375 -2.828125 2.265625q-1.734375 0.890625 -4.140625 0.890625zm0 -3.5625q1.53125 0 2.5625 -0.734375q1.046875 -0.75 1.8125 -1.65625l-4.96875 -7.640625q-0.953125 1.234375 -1.546875 2.890625q-0.578125 1.65625 -0.578125 3.421875q0 0.921875 0.234375 1.78125q0.25 0.859375 0.84375 1.40625q0.609375 0.53125 1.640625 0.53125zm0.453125 -15.203125q0.828125 -1.0 1.5625 -2.359375q0.75 -1.359375 1.234375 -2.890625q0.484375 -1.546875 0.484375 -3.03125q0 -1.15625 -0.734375 -1.8125q-0.71875 -0.65625 -1.875 -0.65625q-1.4375 0 -2.046875 1.125q-0.59375 1.109375 -0.59375 2.515625q0 1.828125 0.625 3.65625q0.625 1.8125 1.34375 3.453125zm33.79059 18.765625q-2.796875 0 -4.65625 -1.203125q-1.859375 -1.203125 -2.828125 -3.3125q-0.953125 -2.125 -1.109375 -4.921875l4.0 -1.078125q0.125 1.71875 0.53125 3.328125q0.421875 1.59375 1.375 2.609375q0.96875 1.015625 2.6875 1.015625q1.765625 0 2.65625 -0.96875q0.90625 -0.984375 0.90625 -2.828125q0 -2.203125 -1.0 -3.53125q-1.0 -1.34375 -2.515625 -2.703125l-5.4375 -4.8125q-1.609375 -1.390625 -2.375 -3.046875q-0.75 -1.671875 -0.75 -4.109375q0 -3.5625 2.03125 -5.515621q2.046875 -1.96875 5.5625 -1.96875q1.921875 0 3.375 0.5q1.46875 0.5 2.453125 1.546875q0.984375 1.0468712 1.5625 2.6249962q0.578125 1.578125 0.78125 3.703125l-3.84375 1.03125q-0.125 -1.59375 -0.484375 -2.9375q-0.359375 -1.34375 -1.265625 -2.15625q-0.890625 -0.828125 -2.578125 -0.828125q-1.671875 0 -2.609375 0.90625q-0.9375 0.890625 -0.9375 2.65625q0 1.484375 0.5 2.453125q0.5 0.953125 1.609375 1.953125l5.484375 4.796875q1.84375 1.59375 3.234375 3.8125q1.40625 2.21875 1.40625 5.265625q0 2.40625 -1.0 4.140625q-1.0 1.734375 -2.75 2.65625q-1.734375 0.921875 -4.015625 0.921875zm17.076233 -0.046875q-1.796875 0 -2.90625 -0.671875q-1.09375 -0.6875 -1.59375 -1.921875q-0.5 -1.234375 -0.5 -2.921875l0 -15.078125l-2.4375 0l0 -2.84375l2.4375 0l0 -6.75l4.28125 0l0 6.75l3.71875 0l0 2.84375l-3.71875 0l0 14.796875q0 1.359375 0.4375 1.953125q0.453125 0.578125 1.6875 0.578125q0.328125 0 0.734375 -0.046875q0.421875 -0.046875 0.828125 -0.078125l0 3.15625q-0.796875 0.125 -1.484375 0.171875q-0.671875 0.0625 -1.484375 0.0625zm6.2887573 -0.3125l0 -23.125l4.28125 0l0 3.28125q1.28125 -2.109375 2.5625 -2.828125q1.28125 -0.734375 2.5625 -0.734375q0.15625 0 0.296875 0q0.140625 0 0.375 0.046875l0 4.71875q-0.484375 -0.203125 -1.109375 -0.34375q-0.609375 -0.140625 -1.25 -0.140625q-1.0 0 -1.828125 0.46875q-0.8125 0.453125 -1.609375 1.78125l0 16.875l-4.28125 0zm19.121216 0.3125q-2.71875 0 -4.203125 -1.046875q-1.484375 -1.0625 -2.0625 -3.125q-0.578125 -2.0625 -0.578125 -5.0625l0 -5.28125q0 -3.078125 0.59375 -5.109375q0.609375 -2.046875 2.109375 -3.078125q1.5 -1.046875 4.140625 -1.046875q2.921875 0 4.296875 1.203125q1.375 1.1875 1.8125 3.453125q0.453125 2.265625 0.453125 5.421875l0 1.875l-9.125 0l0 4.640625q0 1.40625 0.25 2.28125q0.265625 0.875 0.84375 1.296875q0.59375 0.421875 1.5 0.421875q0.96875 0 1.46875 -0.453125q0.5 -0.46875 0.671875 -1.328125q0.1875 -0.859375 0.1875 -2.015625l0 -1.40625l4.15625 0l0 0.890625q0 3.46875 -1.484375 5.46875q-1.46875 2.0 -5.03125 2.0zm-2.5625 -14.109375l4.921875 0l0 -2.078125q0 -1.4375 -0.171875 -2.421875q-0.15625 -0.984375 -0.65625 -1.484375q-0.5 -0.5 -1.578125 -0.5q-1.03125 0 -1.578125 0.484375q-0.53125 0.484375 -0.734375 1.625q-0.203125 1.125 -0.203125 3.125l0 1.25zm17.152466 14.109375q-1.359375 0 -2.40625 -0.765625q-1.03125 -0.78125 -1.625 -2.0q-0.59375 -1.234375 -0.59375 -2.59375q0 -2.15625 0.71875 -3.625q0.71875 -1.484375 1.96875 -2.5q1.265625 -1.03125 2.921875 -1.78125q1.65625 -0.765625 3.5 -1.484375l0 -1.640625q0 -1.40625 -0.15625 -2.3125q-0.15625 -0.921875 -0.65625 -1.375q-0.5 -0.46875 -1.5 -0.46875q-0.890625 0 -1.4375 0.40625q-0.53125 0.390625 -0.765625 1.140625q-0.234375 0.734375 -0.234375 1.734375l0 1.15625l-4.25 -0.15625q0.078125 -3.84375 1.75 -5.65625q1.6875 -1.828125 5.21875 -1.828125q3.4375 0 4.875 1.875q1.4375 1.875 1.4375 5.4375l0 10.5625q0 1.078125 0.0625 2.078125q0.0625 1.0 0.15625 1.859375q0.109375 0.859375 0.1875 1.625l-3.921875 0q-0.125 -0.640625 -0.3125 -1.609375q-0.171875 -0.984375 -0.25 -1.796875q-0.40625 1.359375 -1.546875 2.546875q-1.140625 1.171875 -3.140625 1.171875zm1.6875 -3.671875q0.640625 0 1.203125 -0.359375q0.5625 -0.359375 1.0 -0.8125q0.4375 -0.46875 0.59375 -0.75l0 -6.5625q-1.0 0.5625 -1.875 1.125q-0.875 0.5625 -1.546875 1.1875q-0.65625 0.609375 -1.046875 1.390625q-0.375 0.78125 -0.375 1.78125q0 1.40625 0.515625 2.203125q0.53125 0.796875 1.53125 0.796875zm11.196228 3.359375l0 -23.125l3.96875 0l0 2.203125q1.15625 -1.3125 2.546875 -1.953125q1.40625 -0.640625 2.890625 -0.640625q1.28125 0 2.296875 0.640625q1.015625 0.640625 1.453125 2.28125q1.25 -1.53125 2.703125 -2.21875q1.46875 -0.703125 3.0625 -0.703125q1.125 0 2.046875 0.546875q0.921875 0.53125 1.46875 1.71875q0.5625 1.171875 0.5625 3.09375l0 18.15625l-3.921875 0l0 -17.875q0 -1.6875 -0.546875 -2.265625q-0.53125 -0.578125 -1.453125 -0.578125q-0.875 0 -1.84375 0.5q-0.953125 0.5 -1.75 1.375q0 0.15625 0 0.328125q0 0.15625 0 0.359375l0 18.15625l-3.921875 0l0 -17.875q0 -1.6875 -0.546875 -2.265625q-0.53125 -0.578125 -1.453125 -0.578125q-0.875 0 -1.828125 0.5q-0.9375 0.5 -1.765625 1.375l0 18.84375l-3.96875 0zm32.559357 0.3125q-2.828125 0 -4.5625 -1.765625q-1.71875 -1.78125 -1.953125 -4.703125l3.5625 -1.078125q0.3125 2.1875 1.078125 3.296875q0.765625 1.09375 2.234375 1.09375q1.171875 0 1.765625 -0.65625q0.59375 -0.65625 0.59375 -1.78125q0 -1.0 -0.4375 -1.796875q-0.4375 -0.796875 -1.4375 -1.640625l-3.953125 -3.40625q-1.203125 -1.03125 -2.03125 -2.3125q-0.8125 -1.28125 -0.8125 -3.328125q0 -1.828125 0.734375 -3.09375q0.75 -1.265625 2.078125 -1.921875q1.34375 -0.65625 3.140625 -0.65625q2.765625 0 4.21875 1.78125q1.46875 1.78125 1.671875 4.296875l-2.890625 1.078125q-0.15625 -1.203125 -0.484375 -2.09375q-0.3125 -0.90625 -0.875 -1.40625q-0.5625 -0.5 -1.46875 -0.5q-1.046875 0 -1.671875 0.703125q-0.609375 0.703125 -0.609375 1.65625q0 0.609375 0.25 1.1875q0.265625 0.578125 0.90625 1.140625l4.078125 3.75q0.84375 0.765625 1.578125 1.65625q0.734375 0.875 1.21875 2.0q0.484375 1.109375 0.484375 2.59375q0 1.953125 -0.8125 3.28125q-0.796875 1.3125 -2.234375 1.96875q-1.4375 0.65625 -3.359375 0.65625z" fill-rule="nonzero"/><path fill="#ff00ff" d="m759.916 282.7874l0 0c0 -31.380219 25.43866 -56.81891 56.81891 -56.81891l0 0c15.069275 0 29.521423 5.986252 40.177002 16.641861c10.65564 10.655624 16.641907 25.107712 16.641907 40.177048l0 0c0 31.380188 -25.43872 56.81888 -56.81891 56.81888l0 0c-31.380249 0 -56.81891 -25.43869 -56.81891 -56.81888z" fill-rule="evenodd"/><path fill="#ffffff" d="m806.26227 286.84302q0 -0.984375 -0.703125 -1.515625q-0.703125 -0.546875 -2.53125 -1.125q-1.828125 -0.59375 -2.890625 -1.171875q-2.90625 -1.578125 -2.90625 -4.234375q0 -1.375 0.765625 -2.453125q0.78125 -1.09375 2.234375 -1.703125q1.46875 -0.609375 3.28125 -0.609375q1.828125 0 3.25 0.671875q1.4375 0.65625 2.234375 1.859375q0.796875 1.203125 0.796875 2.734375l-3.515625 0q0 -1.171875 -0.75 -1.8125q-0.734375 -0.65625 -2.0625 -0.65625q-1.296875 0 -2.015625 0.546875q-0.703125 0.546875 -0.703125 1.4375q0 0.828125 0.828125 1.390625q0.84375 0.5625 2.46875 1.0625q3.0 0.890625 4.375 2.234375q1.375 1.328125 1.375 3.328125q0 2.21875 -1.6875 3.484375q-1.671875 1.25 -4.5 1.25q-1.96875 0 -3.59375 -0.71875q-1.609375 -0.71875 -2.46875 -1.96875q-0.84375 -1.265625 -0.84375 -2.921875l3.53125 0q0 2.828125 3.375 2.828125q1.25 0 1.953125 -0.5q0.703125 -0.515625 0.703125 -1.4375zm13.269531 3.1875q-1.25 1.53125 -3.46875 1.53125q-2.03125 0 -3.109375 -1.171875q-1.0625 -1.171875 -1.09375 -3.4375l0 -8.3125l3.390625 0l0 8.203125q0 1.96875 1.796875 1.96875q1.734375 0 2.375 -1.1875l0 -8.984375l3.390625 0l0 12.6875l-3.1875 0l-0.09375 -1.296875zm17.273438 -4.921875q0 3.046875 -1.3125 4.75q-1.296875 1.703125 -3.625 1.703125q-2.0625 0 -3.296875 -1.578125l-0.15625 1.34375l-3.046875 0l0 -18.0l3.390625 0l0 6.453125q1.171875 -1.375 3.078125 -1.375q2.328125 0 3.640625 1.71875q1.328125 1.703125 1.328125 4.796875l0 0.1875zm-3.390625 -0.25q0 -1.921875 -0.609375 -2.796875q-0.609375 -0.890625 -1.8125 -0.890625q-1.625 0 -2.234375 1.3125l0 5.015625q0.625 1.328125 2.25 1.328125q1.640625 0 2.15625 -1.609375q0.25 -0.78125 0.25 -2.359375z" fill-rule="nonzero"/><path fill="#0000ff" d="m47.97113 282.7874l0 0c0 -31.380219 25.438683 -56.81891 56.818893 -56.81891l0 0c15.069313 0 29.521423 5.986252 40.177032 16.641861c10.655609 10.655624 16.641861 25.107712 16.641861 40.177048l0 0c0 31.380188 -25.438675 56.81888 -56.818893 56.81888l0 0c-31.38021 0 -56.818893 -25.43869 -56.818893 -56.81888z" fill-rule="evenodd"/><path fill="#ffffff" d="m88.62596 285.31177l0 6.015625l-3.515625 0l0 -17.0625l6.65625 0q1.921875 0 3.375 0.703125q1.453125 0.703125 2.234375 2.0q0.796875 1.296875 0.796875 2.9375q0 2.515625 -1.71875 3.96875q-1.71875 1.4375 -4.75 1.4375l-3.078125 0zm0 -2.84375l3.140625 0q1.390625 0 2.125 -0.65625q0.734375 -0.65625 0.734375 -1.875q0 -1.25 -0.75 -2.015625q-0.734375 -0.78125 -2.03125 -0.8125l-3.21875 0l0 5.359375zm19.324219 7.5625q-1.25 1.53125 -3.46875 1.53125q-2.03125 0 -3.109375 -1.171875q-1.0625 -1.171875 -1.09375 -3.4375l0 -8.3125l3.390625 0l0 8.203125q0 1.96875 1.796875 1.96875q1.734375 0 2.375 -1.1875l0 -8.984375l3.390625 0l0 12.6875l-3.1875 0l-0.09375 -1.296875zm17.273438 -4.921875q0 3.046875 -1.3125 4.75q-1.296875 1.703125 -3.625 1.703125q-2.0625 0 -3.296875 -1.578125l-0.15625 1.34375l-3.046875 0l0 -18.0l3.390625 0l0 6.453125q1.171875 -1.375 3.078125 -1.375q2.328125 0 3.640625 1.71875q1.328125 1.703125 1.328125 4.796875l0 0.1875zm-3.390625 -0.25q0 -1.921875 -0.609375 -2.796875q-0.609375 -0.890625 -1.8125 -0.890625q-1.625 0 -2.234375 1.3125l0 5.015625q0.625 1.328125 2.25 1.328125q1.640625 0 2.15625 -1.609375q0.25 -0.78125 0.25 -2.359375z" fill-rule="nonzero"/><path fill="#000000" fill-opacity="0.0" d="m349.99957 199.67192l313.9348 0c-34.67627 0 -62.786987 37.212067 -62.786987 83.11549c0 45.90341 28.110718 83.11548 62.786987 83.11548l-313.9348 0l0 0c-34.6763 0 -62.786987 -37.212067 -62.786987 -83.11548c0 -45.903427 28.110687 -83.11549 62.786987 -83.11549z" fill-rule="evenodd"/><path stroke="#9e9e9e" stroke-width="1.0" stroke-linejoin="round" stroke-linecap="butt" d="m349.99957 199.67192l313.9348 0c-34.67627 0 -62.786987 37.212067 -62.786987 83.11549c0 45.90341 28.110718 83.11548 62.786987 83.11548l-313.9348 0l0 0c-34.6763 0 -62.786987 -37.212067 -62.786987 -83.11548c0 -45.903427 28.110687 -83.11549 62.786987 -83.11549z" fill-rule="evenodd"/><path fill="#000000" fill-opacity="0.0" d="m287.2257 125.902885l376.72443 0l0 60.125984l-376.72443 0z" fill-rule="evenodd"/><path fill="#ffffff" d="m424.9102 173.30289l-3.609375 0l0 -21.140625l3.609375 0l0 21.140625zm-3.90625 -26.734375q0 -0.890625 0.53125 -1.484375q0.546875 -0.609375 1.59375 -0.609375q1.0625 0 1.609375 0.609375q0.546875 0.59375 0.546875 1.484375q0 0.875 -0.546875 1.46875q-0.546875 0.578125 -1.609375 0.578125q-1.046875 0 -1.59375 -0.578125q-0.53125 -0.59375 -0.53125 -1.46875zm27.550781 16.40625q0 4.8125 -2.21875 7.765625q-2.203125 2.953125 -5.96875 2.953125q-3.84375 0 -6.0625 -2.4375l0 10.171875l-3.609375 0l0 -29.265625l3.296875 0l0.1875 2.34375q2.203125 -2.734375 6.125 -2.734375q3.8125 0 6.03125 2.875q2.21875 2.875 2.21875 7.984375l0 0.34375zm-3.625 -0.421875q0 -3.5625 -1.53125 -5.625q-1.515625 -2.078125 -4.171875 -2.078125q-3.28125 0 -4.921875 2.90625l0 10.09375q1.625 2.890625 4.96875 2.890625q2.59375 0 4.125 -2.0625q1.53125 -2.0625 1.53125 -6.125zm8.285156 8.859375q0 -0.9375 0.546875 -1.5625q0.5625 -0.625 1.671875 -0.625q1.125 0 1.703125 0.625q0.578125 0.625 0.578125 1.5625q0 0.890625 -0.578125 1.5q-0.578125 0.609375 -1.703125 0.609375q-1.109375 0 -1.671875 -0.609375q-0.546875 -0.609375 -0.546875 -1.5zm0 -17.0q0 -0.9375 0.546875 -1.5625q0.5625 -0.625 1.671875 -0.625q1.125 0 1.703125 0.625q0.578125 0.625 0.578125 1.5625q0 0.890625 -0.578125 1.5q-0.578125 0.609375 -1.703125 0.609375q-1.109375 0 -1.671875 -0.609375q-0.546875 -0.609375 -0.546875 -1.5zm27.46875 8.5625q0 4.8125 -2.21875 7.765625q-2.203125 2.953125 -5.96875 2.953125q-3.84375 0 -6.0625 -2.4375l0 10.171875l-3.609375 0l0 -29.265625l3.296875 0l0.1875 2.34375q2.203125 -2.734375 6.125 -2.734375q3.8125 0 6.03125 2.875q2.21875 2.875 2.21875 7.984375l0 0.34375zm-3.625 -0.421875q0 -3.5625 -1.53125 -5.625q-1.515625 -2.078125 -4.171875 -2.078125q-3.28125 0 -4.921875 2.90625l0 10.09375q1.625 2.890625 4.96875 2.890625q2.59375 0 4.125 -2.0625q1.53125 -2.0625 1.53125 -6.125zm7.2539062 -0.015625q0 -3.109375 1.21875 -5.578125q1.21875 -2.484375 3.390625 -3.828125q2.1875 -1.359375 4.984375 -1.359375q4.3125 0 6.96875 3.0q2.671875 2.984375 2.671875 7.9375l0 0.265625q0 3.078125 -1.1875 5.53125q-1.171875 2.453125 -3.375 3.828125q-2.1875 1.359375 -5.046875 1.359375q-4.296875 0 -6.96875 -2.984375q-2.65625 -3.0 -2.65625 -7.921875l0 -0.25zm3.625 0.4375q0 3.515625 1.625 5.640625q1.640625 2.125 4.375 2.125q2.75 0 4.375 -2.15625q1.625 -2.15625 1.625 -6.046875q0 -3.46875 -1.65625 -5.625q-1.640625 -2.171875 -4.375 -2.171875q-2.6875 0 -4.328125 2.140625q-1.640625 2.125 -1.640625 6.09375zm30.359344 -7.5625q-0.828125 -0.140625 -1.78125 -0.140625q-3.546875 0 -4.8280945 3.03125l0 15.0l-3.609375 0l0 -21.140625l3.515625 0l0.0625 2.453125q1.7812195 -2.84375 5.0312195 -2.84375q1.0625 0 1.609375 0.28125l0 3.359375zm9.199219 -8.359375l0 5.109375l3.9375 0l0 2.796875l-3.9375 0l0 13.109375q0 1.265625 0.515625 1.90625q0.53125 0.625 1.8125 0.625q0.625 0 1.71875 -0.234375l0 2.9375q-1.4375 0.390625 -2.78125 0.390625q-2.421875 0 -3.65625 -1.46875q-1.21875 -1.46875 -1.21875 -4.15625l0 -13.109375l-3.859375 0l0 -2.796875l3.859375 0l0 -5.109375l3.609375 0z" fill-rule="nonzero"/><path fill="#000000" fill-opacity="0.0" d="m287.2126 282.7874l313.92126 0" fill-rule="evenodd"/><path stroke="#ff9900" stroke-width="8.0" stroke-linejoin="round" stroke-linecap="butt" d="m287.2126 282.7874l313.92126 0" fill-rule="evenodd"/><path fill="#000000" fill-opacity="0.0" d="m161.60892 282.7874l125.60629 0" fill-rule="evenodd"/><path stroke="#4a86e8" stroke-width="4.0" stroke-linejoin="round" stroke-linecap="butt" d="m161.60892 282.7874l125.60629 0" fill-rule="evenodd"/><path fill="#000000" fill-opacity="0.0" d="m601.1474 282.7874l158.77167 0" fill-rule="evenodd"/><path stroke="#4a86e8" stroke-width="4.0" stroke-linejoin="round" stroke-linecap="butt" d="m601.1474 282.7874l158.77167 0" fill-rule="evenodd"/><path fill="#ff00ff" d="m759.9147 417.8058l0 0c0 -31.380219 25.43872 -56.81891 56.81891 -56.81891l0 0c15.069336 0 29.521423 5.986267 40.177063 16.641876c10.655579 10.655609 16.641846 25.107727 16.641846 40.177032l0 0c0 31.380188 -25.43866 56.81888 -56.81891 56.81888l0 0c-31.380188 0 -56.81891 -25.43869 -56.81891 -56.81888z" fill-rule="evenodd"/><path fill="#ffffff" d="m806.2609 421.8614q0 -0.984375 -0.703125 -1.515625q-0.703125 -0.546875 -2.53125 -1.125q-1.828125 -0.59375 -2.890625 -1.171875q-2.90625 -1.578125 -2.90625 -4.234375q0 -1.375 0.765625 -2.453125q0.78125 -1.09375 2.234375 -1.703125q1.46875 -0.609375 3.28125 -0.609375q1.828125 0 3.25 0.671875q1.4375 0.65625 2.234375 1.859375q0.796875 1.203125 0.796875 2.734375l-3.515625 0q0 -1.171875 -0.75 -1.8125q-0.734375 -0.65625 -2.0625 -0.65625q-1.296875 0 -2.015625 0.546875q-0.703125 0.546875 -0.703125 1.4375q0 0.828125 0.828125 1.390625q0.84375 0.5625 2.46875 1.0625q3.0 0.890625 4.375 2.234375q1.375 1.328125 1.375 3.328125q0 2.21875 -1.6875 3.484375q-1.671875 1.25 -4.5 1.25q-1.96875 0 -3.59375 -0.71875q-1.609375 -0.71875 -2.46875 -1.96875q-0.84375 -1.265625 -0.84375 -2.921875l3.53125 0q0 2.828125 3.375 2.828125q1.25 0 1.953125 -0.5q0.703125 -0.515625 0.703125 -1.4375zm13.269531 3.1875q-1.25 1.53125 -3.46875 1.53125q-2.03125 0 -3.109375 -1.171875q-1.0625 -1.171875 -1.09375 -3.4375l0 -8.3125l3.390625 0l0 8.203125q0 1.96875 1.796875 1.96875q1.734375 0 2.375 -1.1875l0 -8.984375l3.390625 0l0 12.6875l-3.1875 0l-0.09375 -1.296875zm17.273438 -4.921875q0 3.046875 -1.3125 4.75q-1.296875 1.703125 -3.625 1.703125q-2.0625 0 -3.296875 -1.578125l-0.15625 1.34375l-3.046875 0l0 -18.0l3.390625 0l0 6.453125q1.171875 -1.375 3.078125 -1.375q2.328125 0 3.640625 1.71875q1.328125 1.703125 1.328125 4.796875l0 0.1875zm-3.390625 -0.25q0 -1.921875 -0.609375 -2.796875q-0.609375 -0.890625 -1.8125 -0.890625q-1.625 0 -2.234375 1.3125l0 5.015625q0.625 1.328125 2.25 1.328125q1.640625 0 2.15625 -1.609375q0.25 -0.78125 0.25 -2.359375z" fill-rule="nonzero"/><path fill="#0000ff" d="m47.96982 417.8058l0 0c0 -31.380219 25.438683 -56.81891 56.818893 -56.81891l0 0c15.069313 0 29.521423 5.986267 40.177032 16.641876c10.655609 10.655609 16.641861 25.107727 16.641861 40.177032l0 0c0 31.380188 -25.438675 56.81888 -56.818893 56.81888l0 0c-31.38021 0 -56.818893 -25.43869 -56.818893 -56.81888z" fill-rule="evenodd"/><path fill="#ffffff" d="m88.62465 420.33014l0 6.015625l-3.515625 0l0 -17.0625l6.65625 0q1.921875 0 3.375 0.703125q1.453125 0.703125 2.234375 2.0q0.796875 1.296875 0.796875 2.9375q0 2.515625 -1.71875 3.96875q-1.71875 1.4375 -4.75 1.4375l-3.078125 0zm0 -2.84375l3.140625 0q1.390625 0 2.125 -0.65625q0.734375 -0.65625 0.734375 -1.875q0 -1.25 -0.75 -2.015625q-0.734375 -0.78125 -2.03125 -0.8125l-3.21875 0l0 5.359375zm19.324219 7.5625q-1.25 1.53125 -3.46875 1.53125q-2.03125 0 -3.109375 -1.171875q-1.0625 -1.171875 -1.09375 -3.4375l0 -8.3125l3.390625 0l0 8.203125q0 1.96875 1.796875 1.96875q1.734375 0 2.375 -1.1875l0 -8.984375l3.390625 0l0 12.6875l-3.1875 0l-0.09375 -1.296875zm17.273438 -4.921875q0 3.046875 -1.3125 4.75q-1.296875 1.703125 -3.625 1.703125q-2.0625 0 -3.296875 -1.578125l-0.15625 1.34375l-3.046875 0l0 -18.0l3.390625 0l0 6.453125q1.171875 -1.375 3.078125 -1.375q2.328125 0 3.640625 1.71875q1.328125 1.703125 1.328125 4.796875l0 0.1875zm-3.390625 -0.25q0 -1.921875 -0.609375 -2.796875q-0.609375 -0.890625 -1.8125 -0.890625q-1.625 0 -2.234375 1.3125l0 5.015625q0.625 1.328125 2.25 1.328125q1.640625 0 2.15625 -1.609375q0.25 -0.78125 0.25 -2.359375z" fill-rule="nonzero"/><path fill="#000000" fill-opacity="0.0" d="m297.04855 327.31497l313.92123 0" fill-rule="evenodd"/><path stroke="#ff9900" stroke-width="8.0" stroke-linejoin="round" stroke-linecap="butt" d="m297.04855 327.31497l313.92123 0" fill-rule="evenodd"/><path fill="#000000" fill-opacity="0.0" d="m161.6076 417.8058l139.37009 -91.24411" fill-rule="evenodd"/><path stroke="#4a86e8" stroke-width="4.0" stroke-linejoin="round" stroke-linecap="butt" d="m161.6076 417.8058l139.37009 -91.24411" fill-rule="evenodd"/><path fill="#000000" fill-opacity="0.0" d="m612.7966 327.53806l147.1181 90.26773" fill-rule="evenodd"/><path stroke="#4a86e8" stroke-width="4.0" stroke-linejoin="round" stroke-linecap="butt" d="m612.7966 327.53806l147.1181 90.26773" fill-rule="evenodd"/><path fill="#000000" fill-opacity="0.0" d="m303.80054 228.23097l313.92126 0" fill-rule="evenodd"/><path stroke="#ff9900" stroke-width="8.0" stroke-linejoin="round" stroke-linecap="butt" d="m303.80054 228.23097l313.92126 0" fill-rule="evenodd"/><path fill="#0000ff" d="m47.96982 158.19423l0 0c0 -31.38021 25.438683 -56.8189 56.818893 -56.8189l0 0c15.069313 0 29.521423 5.9862595 40.177032 16.641869c10.655609 10.655609 16.641861 25.107727 16.641861 40.177032l0 0c0 31.380203 -25.438675 56.818893 -56.818893 56.818893l0 0c-31.38021 0 -56.818893 -25.43869 -56.818893 -56.818893z" fill-rule="evenodd"/><path fill="#ffffff" d="m88.62465 160.7186l0 6.015625l-3.515625 0l0 -17.0625l6.65625 0q1.921875 0 3.375 0.703125q1.453125 0.703125 2.234375 2.0q0.796875 1.296875 0.796875 2.9375q0 2.515625 -1.71875 3.96875q-1.71875 1.4375 -4.75 1.4375l-3.078125 0zm0 -2.84375l3.140625 0q1.390625 0 2.125 -0.65625q0.734375 -0.65625 0.734375 -1.875q0 -1.25 -0.75 -2.015625q-0.734375 -0.78125 -2.03125 -0.8125l-3.21875 0l0 5.359375zm19.324219 7.5625q-1.25 1.53125 -3.46875 1.53125q-2.03125 0 -3.109375 -1.171875q-1.0625 -1.171875 -1.09375 -3.4375l0 -8.3125l3.390625 0l0 8.203125q0 1.96875 1.796875 1.96875q1.734375 0 2.375 -1.1875l0 -8.984375l3.390625 0l0 12.6875l-3.1875 0l-0.09375 -1.296875zm17.273438 -4.921875q0 3.046875 -1.3125 4.75q-1.296875 1.703125 -3.625 1.703125q-2.0625 0 -3.296875 -1.578125l-0.15625 1.34375l-3.046875 0l0 -18.0l3.390625 0l0 6.453125q1.171875 -1.375 3.078125 -1.375q2.328125 0 3.640625 1.71875q1.328125 1.703125 1.328125 4.796875l0 0.1875zm-3.390625 -0.25q0 -1.921875 -0.609375 -2.796875q-0.609375 -0.890625 -1.8125 -0.890625q-1.625 0 -2.234375 1.3125l0 5.015625q0.625 1.328125 2.25 1.328125q1.640625 0 2.15625 -1.609375q0.25 -0.78125 0.25 -2.359375z" fill-rule="nonzero"/><path fill="#000000" fill-opacity="0.0" d="m161.6076 158.19423l146.26773 69.00787" fill-rule="evenodd"/><path stroke="#4a86e8" stroke-width="4.0" stroke-linejoin="round" stroke-linecap="butt" d="m161.6076 158.19423l146.26773 69.00787" fill-rule="evenodd"/><path fill="#ff00ff" d="m759.9173 158.19423l0 0c0 -31.38021 25.43872 -56.8189 56.81891 -56.8189l0 0c15.069336 0 29.521423 5.9862595 40.177063 16.641869c10.655579 10.655609 16.641846 25.107727 16.641846 40.177032l0 0c0 31.380203 -25.43866 56.818893 -56.81891 56.818893l0 0c-31.380188 0 -56.81891 -25.43869 -56.81891 -56.818893z" fill-rule="evenodd"/><path fill="#ffffff" d="m806.26355 162.24985q0 -0.984375 -0.703125 -1.515625q-0.703125 -0.546875 -2.53125 -1.125q-1.828125 -0.59375 -2.890625 -1.171875q-2.90625 -1.578125 -2.90625 -4.234375q0 -1.375 0.765625 -2.453125q0.78125 -1.09375 2.234375 -1.703125q1.46875 -0.609375 3.28125 -0.609375q1.828125 0 3.25 0.671875q1.4375 0.65625 2.234375 1.859375q0.796875 1.203125 0.796875 2.734375l-3.515625 0q0 -1.171875 -0.75 -1.8125q-0.734375 -0.65625 -2.0625 -0.65625q-1.296875 0 -2.015625 0.546875q-0.703125 0.546875 -0.703125 1.4375q0 0.828125 0.828125 1.390625q0.84375 0.5625 2.46875 1.0625q3.0 0.890625 4.375 2.234375q1.375 1.328125 1.375 3.328125q0 2.21875 -1.6875 3.484375q-1.671875 1.25 -4.5 1.25q-1.96875 0 -3.59375 -0.71875q-1.609375 -0.71875 -2.46875 -1.96875q-0.84375 -1.265625 -0.84375 -2.921875l3.53125 0q0 2.828125 3.375 2.828125q1.25 0 1.953125 -0.5q0.703125 -0.515625 0.703125 -1.4375zm13.269531 3.1875q-1.25 1.53125 -3.46875 1.53125q-2.03125 0 -3.109375 -1.171875q-1.0625 -1.171875 -1.09375 -3.4375l0 -8.3125l3.390625 0l0 8.203125q0 1.96875 1.796875 1.96875q1.734375 0 2.375 -1.1875l0 -8.984375l3.390625 0l0 12.6875l-3.1875 0l-0.09375 -1.296875zm17.273438 -4.921875q0 3.046875 -1.3125 4.75q-1.296875 1.703125 -3.625 1.703125q-2.0625 0 -3.296875 -1.578125l-0.15625 1.34375l-3.046875 0l0 -18.0l3.390625 0l0 6.453125q1.171875 -1.375 3.078125 -1.375q2.328125 0 3.640625 1.71875q1.328125 1.703125 1.328125 4.796875l0 0.1875zm-3.390625 -0.25q0 -1.921875 -0.609375 -2.796875q-0.609375 -0.890625 -1.8125 -0.890625q-1.625 0 -2.234375 1.3125l0 5.015625q0.625 1.328125 2.25 1.328125q1.640625 0 2.15625 -1.609375q0.25 -0.78125 0.25 -2.359375z" fill-rule="nonzero"/><path fill="#000000" fill-opacity="0.0" d="m620.7362 227.54855l139.18109 -69.354324" fill-rule="evenodd"/><path stroke="#4a86e8" stroke-width="4.0" stroke-linejoin="round" stroke-linecap="butt" d="m620.7362 227.54855l139.18109 -69.354324" fill-rule="evenodd"/><path fill="#000000" fill-opacity="0.0" d="m349.61417 241.9685l222.29922 0l0 35.685028l-222.29922 0z" fill-rule="evenodd"/><path fill="#ffffff" d="m429.08017 274.0085l-2.171875 0l0 -12.6875l2.171875 0l0 12.6875zm-2.34375 -16.046875q0 -0.53125 0.3125 -0.890625q0.328125 -0.359375 0.953125 -0.359375q0.640625 0 0.96875 0.359375q0.328125 0.359375 0.328125 0.890625q0 0.53125 -0.328125 0.890625q-0.328125 0.34375 -0.96875 0.34375q-0.625 0 -0.953125 -0.34375q-0.3125 -0.359375 -0.3125 -0.890625zm5.2773438 9.59375q0 -2.90625 1.375 -4.6875q1.390625 -1.78125 3.640625 -1.78125q2.21875 0 3.515625 1.53125l0 -6.609375l2.171875 0l0 18.0l-1.984375 0l-0.109375 -1.359375q-1.296875 1.59375 -3.625 1.59375q-2.203125 0 -3.59375 -1.796875q-1.390625 -1.8125 -1.390625 -4.71875l0 -0.171875zm2.171875 0.25q0 2.15625 0.890625 3.375q0.890625 1.21875 2.46875 1.21875q2.0625 0 3.0 -1.84375l0 -5.828125q-0.96875 -1.796875 -2.984375 -1.796875q-1.59375 0 -2.484375 1.234375q-0.890625 1.234375 -0.890625 3.640625zm27.757812 -3.34375l-9.78125 0l0 -1.875l9.78125 0l0 1.875zm0 4.875l-9.78125 0l0 -1.875l9.78125 0l0 1.875zm18.128906 -1.0625l2.359375 0l0 1.765625l-2.359375 0l0 3.96875l-2.1875 0l0 -3.96875l-7.765625 0l0 -1.265625l7.640625 -11.828125l2.3125 0l0 11.328125zm-7.5 0l5.3125 0l0 -8.359375l-0.25 0.46875l-5.0625 7.890625zm22.992188 5.734375l-11.171875 0l0 -1.5625l5.90625 -6.5625q1.3125 -1.484375 1.8125 -2.40625q0.5 -0.9375 0.5 -1.9375q0 -1.34375 -0.8125 -2.1875q-0.8125 -0.859375 -2.15625 -0.859375q-1.625 0 -2.515625 0.921875q-0.890625 0.921875 -0.890625 2.5625l-2.171875 0q0 -2.359375 1.515625 -3.8125q1.515625 -1.453125 4.0625 -1.453125q2.375 0 3.75 1.25q1.390625 1.25 1.390625 3.3125q0 2.53125 -3.203125 6.0l-4.578125 4.96875l8.5625 0l0 1.765625z" fill-rule="nonzero"/><path fill="#000000" fill-opacity="0.0" d="m349.61285 287.20734l222.2992 0l0 35.68506l-222.2992 0z" fill-rule="evenodd"/><path fill="#ffffff" d="m422.34058 319.24734l-2.171875 0l0 -12.6875l2.171875 0l0 12.6875zm-2.34375 -16.046875q0 -0.53125 0.3125 -0.890625q0.328125 -0.359375 0.953125 -0.359375q0.640625 0 0.96875 0.359375q0.328125 0.359375 0.328125 0.890625q0 0.53125 -0.328125 0.890625q-0.328125 0.34375 -0.96875 0.34375q-0.625 0 -0.953125 -0.34375q-0.3125 -0.359375 -0.3125 -0.890625zm5.2773438 9.59375q0 -2.90625 1.375 -4.6875q1.390625 -1.78125 3.640625 -1.78125q2.21875 0 3.515625 1.53125l0 -6.609375l2.171875 0l0 18.0l-1.984375 0l-0.109375 -1.359375q-1.296875 1.59375 -3.625 1.59375q-2.203125 0 -3.59375 -1.796875q-1.390625 -1.8125 -1.390625 -4.71875l0 -0.171875zm2.171875 0.25q0 2.15625 0.890625 3.375q0.890625 1.21875 2.46875 1.21875q2.0625 0 3.0 -1.84375l0 -5.828125q-0.96875 -1.796875 -2.984375 -1.796875q-1.59375 0 -2.484375 1.234375q-0.890625 1.234375 -0.890625 3.640625zm27.757812 -3.34375l-9.78125 0l0 -1.875l9.78125 0l0 1.875zm0 4.875l-9.78125 0l0 -1.875l9.78125 0l0 1.875zm16.097656 4.671875l-2.1875 0l0 -14.453125l-4.359375 1.609375l0 -1.96875l6.203125 -2.328125l0.34375 0l0 17.140625zm17.523438 0l-11.171875 0l0 -1.5625l5.90625 -6.5625q1.3125 -1.484375 1.8125 -2.40625q0.5 -0.9375 0.5 -1.9375q0 -1.34375 -0.8125 -2.1875q-0.8125 -0.859375 -2.15625 -0.859375q-1.625 0 -2.515625 0.921875q-0.890625 0.921875 -0.890625 2.5625l-2.171875 0q0 -2.359375 1.515625 -3.8125q1.515625 -1.453125 4.0625 -1.453125q2.375 0 3.75 1.25q1.390625 1.25 1.390625 3.3125q0 2.53125 -3.203125 6.0l-4.578125 4.96875l8.5625 0l0 1.765625zm5.4609375 -9.59375l1.625 0q1.53125 -0.015625 2.40625 -0.796875q0.890625 -0.796875 0.890625 -2.125q0 -3.0 -3.0 -3.0q-1.40625 0 -2.25 0.8125q-0.828125 0.796875 -0.828125 2.109375l-2.171875 0q0 -2.015625 1.484375 -3.359375q1.484375 -1.34375 3.765625 -1.34375q2.421875 0 3.78125 1.28125q1.375 1.265625 1.375 3.546875q0 1.109375 -0.71875 2.15625q-0.71875 1.046875 -1.953125 1.5625q1.40625 0.4375 2.171875 1.46875q0.765625 1.03125 0.765625 2.515625q0 2.296875 -1.5 3.65625q-1.5 1.34375 -3.90625 1.34375q-2.40625 0 -3.90625 -1.296875q-1.5 -1.3125 -1.5 -3.4375l2.171875 0q0 1.34375 0.875 2.15625q0.890625 0.8125 2.359375 0.8125q1.578125 0 2.40625 -0.8125q0.828125 -0.828125 0.828125 -2.375q0 -1.484375 -0.921875 -2.28125q-0.90625 -0.796875 -2.625 -0.8125l-1.625 0l0 -1.78125z" fill-rule="nonzero"/><path fill="#000000" fill-opacity="0.0" d="m349.61285 189.2874l222.2992 0l0 35.685043l-222.2992 0z" fill-rule="evenodd"/><path fill="#ffffff" d="m422.34058 221.32741l-2.171875 0l0 -12.6875l2.171875 0l0 12.6875zm-2.34375 -16.046875q0 -0.53125 0.3125 -0.890625q0.328125 -0.359375 0.953125 -0.359375q0.640625 0 0.96875 0.359375q0.328125 0.359375 0.328125 0.890625q0 0.53125 -0.328125 0.890625q-0.328125 0.34375 -0.96875 0.34375q-0.625 0 -0.953125 -0.34375q-0.3125 -0.359375 -0.3125 -0.890625zm5.2773438 9.59375q0 -2.90625 1.375 -4.6875q1.390625 -1.78125 3.640625 -1.78125q2.21875 0 3.515625 1.53125l0 -6.609375l2.171875 0l0 18.0l-1.984375 0l-0.109375 -1.359375q-1.296875 1.59375 -3.625 1.59375q-2.203125 0 -3.59375 -1.796875q-1.390625 -1.8125 -1.390625 -4.71875l0 -0.171875zm2.171875 0.25q0 2.15625 0.890625 3.375q0.890625 1.21875 2.46875 1.21875q2.0625 0 3.0 -1.84375l0 -5.828125q-0.96875 -1.796875 -2.984375 -1.796875q-1.59375 0 -2.484375 1.234375q-0.890625 1.234375 -0.890625 3.640625zm27.757812 -3.34375l-9.78125 0l0 -1.875l9.78125 0l0 1.875zm0 4.875l-9.78125 0l0 -1.875l9.78125 0l0 1.875zm12.128906 -4.921875l1.625 0q1.53125 -0.015625 2.40625 -0.796875q0.890625 -0.796875 0.890625 -2.125q0 -3.0 -3.0 -3.0q-1.40625 0 -2.25 0.8125q-0.828125 0.796875 -0.828125 2.109375l-2.171875 0q0 -2.015625 1.484375 -3.359375q1.484375 -1.34375 3.765625 -1.34375q2.421875 0 3.78125 1.28125q1.375 1.265625 1.375 3.546875q0 1.109375 -0.71875 2.15625q-0.71875 1.046875 -1.953125 1.5625q1.40625 0.4375 2.171875 1.46875q0.765625 1.03125 0.765625 2.515625q0 2.296875 -1.5 3.65625q-1.5 1.34375 -3.90625 1.34375q-2.40625 0 -3.90625 -1.296875q-1.5 -1.3125 -1.5 -3.4375l2.171875 0q0 1.34375 0.875 2.15625q0.890625 0.8125 2.359375 0.8125q1.578125 0 2.40625 -0.8125q0.828125 -0.828125 0.828125 -2.375q0 -1.484375 -0.921875 -2.28125q-0.90625 -0.796875 -2.625 -0.8125l-1.625 0l0 -1.78125zm21.492188 9.59375l-11.171875 0l0 -1.5625l5.90625 -6.5625q1.3125 -1.484375 1.8125 -2.40625q0.5 -0.9375 0.5 -1.9375q0 -1.34375 -0.8125 -2.1875q-0.8125 -0.859375 -2.15625 -0.859375q-1.625 0 -2.515625 0.921875q-0.890625 0.921875 -0.890625 2.5625l-2.171875 0q0 -2.359375 1.515625 -3.8125q1.515625 -1.453125 4.0625 -1.453125q2.375 0 3.75 1.25q1.390625 1.25 1.390625 3.3125q0 2.53125 -3.203125 6.0l-4.578125 4.96875l8.5625 0l0 1.765625zm9.4296875 0l-2.1875 0l0 -14.453125l-4.359375 1.609375l0 -1.96875l6.203125 -2.328125l0.34375 0l0 17.140625z" fill-rule="nonzero"/></g></svg>