<svg version="1.1" viewBox="0.0 0.0 960.0 540.0" fill="none" stroke="none" stroke-linecap="square" stroke-miterlimit="10" xmlns:xlink="http://www.w3.org/1999/xlink" xmlns="http://www.w3.org/2000/svg"><clipPath id="g76b5a6cf4a_1_47.0"><path d="m0 0l960.0 0l0 540.0l-960.0 0l0 -540.0z" clip-rule="nonzero"/></clipPath><g clip-path="url(#g76b5a6cf4a_1_47.0)"><path fill="#2b2b2b" d="m0 0l960.0 0l0 540.0l-960.0 0z" fill-rule="evenodd"/><path fill="#000000" fill-opacity="0.0" d="m32.72441 46.721786l894.55115 0l0 60.125984l-894.55115 0z" fill-rule="evenodd"/><path fill="#ffffff" d="m44.240036 94.12178l0 -32.406246l4.53125 0l0 29.171871l8.265625 0l0 3.234375l-12.796875 0zm21.87999 0.3125q-2.5625 0 -4.046875 -1.03125q-1.46875 -1.046875 -2.09375 -2.953125q-0.609375 -1.921875 -0.609375 -4.53125l0 -6.71875q0 -2.59375 0.609375 -4.515625q0.625 -1.921875 2.09375 -2.953125q1.484375 -1.046875 4.046875 -1.046875q2.5625 0 4.015625 1.046875q1.46875 1.03125 2.078125 2.953125q0.625 1.921875 0.625 4.515625l0 6.71875q0 2.609375 -0.625 4.53125q-0.609375 1.90625 -2.078125 2.953125q-1.453125 1.03125 -4.015625 1.03125zm0 -3.15625q1.25 0 1.75 -0.71875q0.5 -0.71875 0.59375 -1.890625q0.09375 -1.1875 0.09375 -2.46875l0 -7.234375q0 -1.328125 -0.09375 -2.484375q-0.09375 -1.15625 -0.59375 -1.890625q-0.5 -0.75 -1.75 -0.75q-1.234375 0 -1.765625 0.75q-0.515625 0.734375 -0.609375 1.890625q-0.09375 1.15625 -0.09375 2.484375l0 7.234375q0 1.28125 0.09375 2.46875q0.09375 1.171875 0.609375 1.890625q0.53125 0.71875 1.765625 0.71875zm16.64061 10.0q-2.078125 0 -3.765625 -0.4375q-1.671875 -0.4375 -2.640625 -1.40625q-0.953125 -0.953125 -0.953125 -2.515625q0 -1.109375 0.484375 -1.953125q0.484375 -0.84375 1.234375 -1.453125q0.765625 -0.625 1.609375 -1.03125q-1.125 -0.3125 -1.6875 -1.015625q-0.5625 -0.703125 -0.5625 -1.46875q0 -1.28125 0.671875 -2.1875q0.6875 -0.921875 1.890625 -2.0q-1.3125 -1.0 -2.0 -2.5625q-0.671875 -1.5625 -0.671875 -4.328125q0 -2.71875 0.734375 -4.53125q0.734375 -1.828125 2.1875 -2.765625q1.46875 -0.9375 3.59375 -0.9375q1.875 0 3.015625 0.640625q1.140625 0.640625 1.75 1.921875q0.1875 -0.328125 1.0625 -1.109375q0.890625 -0.78125 2.046875 -1.296875l0.640625 -0.28125l1.078125 2.765625q-0.515625 0.078125 -1.375 0.375q-0.859375 0.296875 -1.609375 0.609375q-0.734375 0.296875 -0.9375 0.5q0.28125 0.671875 0.5 1.953125q0.234375 1.28125 0.234375 2.28125q0 2.359375 -0.609375 4.15625q-0.59375 1.796875 -1.984375 2.828125q-1.375 1.015625 -3.8125 1.015625q-0.515625 0 -1.125 -0.078125q-0.59375 -0.078125 -1.078125 -0.203125q-0.234375 0.359375 -0.5 0.84375q-0.265625 0.46875 -0.265625 0.921875q0 0.4375 0.453125 0.703125q0.46875 0.25 1.46875 0.328125l3.609375 0.328125q2.71875 0.234375 4.03125 1.640625q1.328125 1.390625 1.328125 4.0q0 1.875 -0.890625 3.171875q-0.875 1.296875 -2.65625 1.9375q-1.78125 0.640625 -4.5 0.640625zm0.328125 -3.359375q2.28125 0 3.359375 -0.546875q1.078125 -0.53125 1.078125 -1.734375q0 -0.71875 -0.265625 -1.203125q-0.25 -0.46875 -0.9375 -0.75q-0.671875 -0.28125 -1.953125 -0.40625l-3.640625 -0.3125q-0.4375 0.4375 -0.84375 0.875q-0.40625 0.4375 -0.640625 0.9375q-0.234375 0.5 -0.234375 1.0625q0 1.046875 0.875 1.5625q0.875 0.515625 3.203125 0.515625zm-0.203125 -13.875q0.921875 0 1.453125 -0.34375q0.546875 -0.34375 0.828125 -1.0q0.28125 -0.65625 0.375 -1.609375q0.109375 -0.96875 0.109375 -2.171875q0 -1.203125 -0.109375 -2.171875q-0.09375 -0.984375 -0.359375 -1.6875q-0.265625 -0.703125 -0.8125 -1.0625q-0.53125 -0.359375 -1.453125 -0.359375q-0.875 0 -1.453125 0.359375q-0.578125 0.359375 -0.859375 1.03125q-0.28125 0.65625 -0.40625 1.640625q-0.109375 0.96875 -0.109375 2.25q0 1.078125 0.09375 2.03125q0.109375 0.9375 0.40625 1.625q0.296875 0.671875 0.859375 1.078125q0.5625 0.390625 1.4375 0.390625zm28.716217 10.390625q-1.234375 0 -2.21875 -0.609375q-0.984375 -0.625 -1.703125 -1.390625l0 1.6875l-4.28125 0l0 -32.406246l4.28125 0l0 11.124996q0.765625 -0.875 1.828125 -1.515625q1.0625 -0.640625 2.53125 -0.640625q1.8125 0 2.859375 0.9375q1.0625 0.9375 1.578125 2.359375q0.53125 1.421875 0.6875 2.890625q0.15625 1.453125 0.15625 2.484375l0 5.609375q0 2.4375 -0.484375 4.625q-0.46875 2.171875 -1.71875 3.515625q-1.234375 1.328125 -3.515625 1.328125zm-0.875 -3.359375q1.125 0 1.59375 -0.8125q0.484375 -0.828125 0.59375 -2.21875q0.125 -1.40625 0.125 -3.078125l0 -5.609375q0 -1.4375 -0.15625 -2.65625q-0.15625 -1.21875 -0.6875 -1.9375q-0.515625 -0.71875 -1.625 -0.71875q-0.84375 0 -1.59375 0.359375q-0.734375 0.359375 -1.296875 0.796875l0 14.84375q0.5625 0.4375 1.34375 0.734375q0.78125 0.296875 1.703125 0.296875zm13.801865 3.359375q-1.359375 0 -2.125 -0.71875q-0.765625 -0.71875 -1.0625 -1.796875q-0.296875 -1.078125 -0.296875 -2.203125l0 -18.71875l4.28125 0l0 17.4375q0 1.25 0.359375 1.953125q0.359375 0.6875 1.484375 0.6875q0.71875 0 1.5 -0.40625q0.78125 -0.421875 1.5 -1.03125l0 -18.640625l4.28125 0l0 23.125l-4.28125 0l0 -2.28125q-1.125 1.078125 -2.546875 1.84375q-1.421875 0.75 -3.09375 0.75zm15.631241 -0.3125l0 -19.953125l-2.75 0l0 -3.171875l2.75 0l0 -1.1875q0 -2.171875 0.34375 -3.703125q0.34375 -1.546875 1.421875 -2.3749962q1.078125 -0.84375 3.234375 -0.84375q0.796875 0 1.421875 0.0625q0.625 0.046875 1.375 0.21875l0 3.1093712q-0.359375 -0.078125 -0.796875 -0.140625q-0.4375 -0.0625 -0.796875 -0.0625q-1.234375 0 -1.578125 0.828125q-0.34375 0.8125 -0.34375 2.171875l0 1.921875l3.515625 0l0 3.171875l-3.515625 0l0 19.953125l-4.28125 0zm10.0 0l0 -19.953125l-2.75 0l0 -3.171875l2.75 0l0 -1.1875q0 -2.171875 0.34375 -3.703125q0.34375 -1.546875 1.421875 -2.3749962q1.078125 -0.84375 3.234375 -0.84375q0.796875 0 1.421875 0.0625q0.625 0.046875 1.375 0.21875l0 3.1093712q-0.359375 -0.078125 -0.796875 -0.140625q-0.4375 -0.0625 -0.796875 -0.0625q-1.234375 0 -1.578125 0.828125q-0.34375 0.8125 -0.34375 2.171875l0 1.921875l3.515625 0l0 3.171875l-3.515625 0l0 19.953125l-4.28125 0zm16.966858 0.3125q-2.71875 0 -4.203125 -1.046875q-1.484375 -1.0625 -2.0625 -3.125q-0.578125 -2.0625 -0.578125 -5.0625l0 -5.28125q0 -3.078125 0.59375 -5.109375q0.609375 -2.046875 2.109375 -3.078125q1.5 -1.046875 4.140625 -1.046875q2.921875 0 4.296875 1.203125q1.375 1.1875 1.8125 3.453125q0.453125 2.265625 0.453125 5.421875l0 1.875l-9.125 0l0 4.640625q0 1.40625 0.25 2.28125q0.265625 0.875 0.84375 1.296875q0.59375 0.421875 1.5 0.421875q0.96875 0 1.46875 -0.453125q0.5 -0.46875 0.671875 -1.328125q0.1875 -0.859375 0.1875 -2.015625l0 -1.40625l4.15625 0l0 0.890625q0 3.46875 -1.484375 5.46875q-1.46875 2.0 -5.03125 2.0zm-2.5625 -14.109375l4.921875 0l0 -2.078125q0 -1.4375 -0.171875 -2.421875q-0.15625 -0.984375 -0.65625 -1.484375q-0.5 -0.5 -1.578125 -0.5q-1.03125 0 -1.578125 0.484375q-0.53125 0.484375 -0.734375 1.625q-0.203125 1.125 -0.203125 3.125l0 1.25zm13.121231 13.796875l0 -23.125l4.28125 0l0 3.28125q1.28125 -2.109375 2.5625 -2.828125q1.28125 -0.734375 2.5625 -0.734375q0.15625 0 0.296875 0q0.140625 0 0.375 0.046875l0 4.71875q-0.484375 -0.203125 -1.109375 -0.34375q-0.609375 -0.140625 -1.25 -0.140625q-1.0 0 -1.828125 0.46875q-0.8125 0.453125 -1.609375 1.78125l0 16.875l-4.28125 0z" fill-rule="nonzero"/><path fill="#cc0000" d="m249.33858 241.80081l0 0c0 -7.7872314 6.312805 -14.100021 14.100021 -14.100021l154.76059 0c3.739563 0 7.3259583 1.4855347 9.970215 4.1297913c2.644287 2.6442719 4.129822 6.230667 4.129822 9.97023l0 56.398376c0 7.7872314 -6.312805 14.100037 -14.100037 14.100037l-154.76059 0c-7.787216 0 -14.100021 -6.312805 -14.100021 -14.100037z" fill-rule="evenodd"/><path stroke="#9e9e9e" stroke-width="1.0" stroke-linejoin="round" stroke-linecap="butt" d="m249.33858 241.80081l0 0c0 -7.7872314 6.312805 -14.100021 14.100021 -14.100021l154.76059 0c3.739563 0 7.3259583 1.4855347 9.970215 4.1297913c2.644287 2.6442719 4.129822 6.230667 4.129822 9.97023l0 56.398376c0 7.7872314 -6.312805 14.100037 -14.100037 14.100037l-154.76059 0c-7.787216 0 -14.100021 -6.312805 -14.100021 -14.100037z" fill-rule="evenodd"/><path fill="#ffffff" d="m310.33453 281.72l0 -22.75l6.421875 0q2.96875 0 5.25 1.3125q2.28125 1.3125 3.515625 3.734375q1.25 2.421875 1.265625 5.5625l0 1.453125q0 3.21875 -1.25 5.640625q-1.234375 2.421875 -3.546875 3.71875q-2.296875 1.296875 -5.359375 1.328125l-6.296875 0zm3.0 -20.28125l0 17.828125l3.15625 0q3.46875 0 5.390625 -2.15625q1.9375 -2.15625 1.9375 -6.140625l0 -1.328125q0 -3.875 -1.828125 -6.015625q-1.8125 -2.15625 -5.15625 -2.1875l-3.5 0zm27.96875 20.28125q-0.25 -0.5 -0.40625 -1.78125q-2.015625 2.09375 -4.8125 2.09375q-2.5 0 -4.109375 -1.40625q-1.59375 -1.421875 -1.59375 -3.59375q0 -2.640625 2.0 -4.09375q2.015625 -1.46875 5.65625 -1.46875l2.8125 0l0 -1.328125q0 -1.515625 -0.90625 -2.40625q-0.90625 -0.90625 -2.671875 -0.90625q-1.546875 0 -2.59375 0.78125q-1.046875 0.78125 -1.046875 1.890625l-2.90625 0q0 -1.265625 0.890625 -2.4375q0.90625 -1.1875 2.4375 -1.875q1.546875 -0.6875 3.390625 -0.6875q2.921875 0 4.578125 1.46875q1.65625 1.453125 1.71875 4.015625l0 7.78125q0 2.328125 0.59375 3.703125l0 0.25l-3.03125 0zm-4.796875 -2.203125q1.359375 0 2.578125 -0.703125q1.21875 -0.703125 1.765625 -1.828125l0 -3.46875l-2.265625 0q-5.3125 0 -5.3125 3.109375q0 1.359375 0.90625 2.125q0.90625 0.765625 2.328125 0.765625zm15.6875 -18.796875l0 4.09375l3.15625 0l0 2.234375l-3.15625 0l0 10.484375q0 1.015625 0.421875 1.53125q0.421875 0.5 1.4375 0.5q0.5 0 1.375 -0.1875l0 2.34375q-1.140625 0.3125 -2.21875 0.3125q-1.9375 0 -2.921875 -1.171875q-0.984375 -1.171875 -0.984375 -3.328125l0 -10.484375l-3.078125 0l0 -2.234375l3.078125 0l0 -4.09375l2.890625 0zm16.96875 21.0q-0.25 -0.5 -0.40625 -1.78125q-2.015625 2.09375 -4.8125 2.09375q-2.5 0 -4.109375 -1.40625q-1.59375 -1.421875 -1.59375 -3.59375q0 -2.640625 2.0 -4.09375q2.015625 -1.46875 5.65625 -1.46875l2.8125 0l0 -1.328125q0 -1.515625 -0.90625 -2.40625q-0.90625 -0.90625 -2.671875 -0.90625q-1.546875 0 -2.59375 0.78125q-1.046875 0.78125 -1.046875 1.890625l-2.90625 0q0 -1.265625 0.890625 -2.4375q0.90625 -1.1875 2.4375 -1.875q1.546875 -0.6875 3.390625 -0.6875q2.921875 0 4.578125 1.46875q1.65625 1.453125 1.71875 4.015625l0 7.78125q0 2.328125 0.59375 3.703125l0 0.25l-3.03125 0zm-4.796875 -2.203125q1.359375 0 2.578125 -0.703125q1.21875 -0.703125 1.765625 -1.828125l0 -3.46875l-2.265625 0q-5.3125 0 -5.3125 3.109375q0 1.359375 0.90625 2.125q0.90625 0.765625 2.328125 0.765625z" fill-rule="nonzero"/><path fill="#000000" fill-opacity="0.0" d="m432.29922 227.70079l278.3622 0l0 84.598434l-278.3622 0z" fill-rule="evenodd"/><path fill="#ffffff" d="m476.2914 263.70267l-19.546875 0l0 -3.78125l19.546875 0l0 3.78125zm0 9.71875l-19.546875 0l0 -3.75l19.546875 0l0 3.75zm24.257812 -9.8125l3.265625 0q3.0625 -0.046875 4.8125 -1.609375q1.765625 -1.578125 1.765625 -4.25q0 -6.0 -5.96875 -6.0q-2.8125 0 -4.5 1.609375q-1.671875 1.59375 -1.671875 4.25l-4.328125 0q0 -4.0625 2.953125 -6.734375q2.96875 -2.6875 7.546875 -2.6875q4.828125 0 7.5625 2.5625q2.7499695 2.546875 2.7499695 7.09375q0 2.21875 -1.453125 4.3125q-1.4374695 2.078125 -3.9218445 3.109375q2.8124695 0.890625 4.3437195 2.953125q1.546875 2.0625 1.546875 5.046875q0 4.59375 -3.0 7.296875q-2.9999695 2.6875 -7.8124695 2.6875q-4.796875 0 -7.8125 -2.59375q-3.015625 -2.609375 -3.015625 -6.875l4.359375 0q0 2.6875 1.75 4.3125q1.765625 1.609375 4.71875 1.609375q3.140625 0 4.796875 -1.640625q1.671875 -1.640625 1.671875 -4.703125q0 -2.984375 -1.828125 -4.578125q-1.828125 -1.59375 -5.265625 -1.640625l-3.265625 0l0 -3.53125zm42.046844 4.609375q0 7.625 -2.609375 11.328125q-2.59375 3.703125 -8.125 3.703125q-5.453125 0 -8.078125 -3.625q-2.625 -3.625 -2.71875 -10.8125l0 -5.796875q0 -7.515625 2.59375 -11.171875q2.609375 -3.65625 8.15625 -3.65625q5.515625 0 8.109375 3.53125q2.609375 3.515625 2.671875 10.875l0 5.625zm-4.328125 -5.921875q0 -5.515625 -1.546875 -8.03125q-1.546875 -2.515625 -4.90625 -2.515625q-3.328125 0 -4.859375 2.515625q-1.515625 2.5 -1.5625 7.703125l0 6.9375q0 5.53125 1.609375 8.171875q1.609375 2.625 4.859375 2.625q3.21875 0 4.765625 -2.484375q1.5625 -2.484375 1.640625 -7.828125l0 -7.09375zm31.28125 5.921875q0 7.625 -2.609375 11.328125q-2.59375 3.703125 -8.125 3.703125q-5.453125 0 -8.078125 -3.625q-2.625 -3.625 -2.71875 -10.8125l0 -5.796875q0 -7.515625 2.59375 -11.171875q2.609375 -3.65625 8.15625 -3.65625q5.515625 0 8.109375 3.53125q2.609375 3.515625 2.671875 10.875l0 5.625zm-4.328125 -5.921875q0 -5.515625 -1.546875 -8.03125q-1.546875 -2.515625 -4.90625 -2.515625q-3.328125 0 -4.859375 2.515625q-1.515625 2.5 -1.5625 7.703125l0 6.9375q0 5.53125 1.609375 8.171875q1.609375 2.625 4.859375 2.625q3.21875 0 4.765625 -2.484375q1.5625 -2.484375 1.640625 -7.828125l0 -7.09375zm43.679688 8.078125q0 5.8125 -2.671875 9.34375q-2.671875 3.53125 -7.171875 3.53125q-4.796875 0 -7.421875 -3.40625l-0.21875 2.9375l-3.984375 0l0 -36.0l4.34375 0l0 13.421875q2.625 -3.25 7.234375 -3.25q4.625 0 7.25 3.5q2.640625 3.484375 2.640625 9.546875l0 0.375zm-4.328125 -0.484375q0 -4.4375 -1.71875 -6.84375q-1.703125 -2.421875 -4.921875 -2.421875q-4.28125 0 -6.15625 3.984375l0 10.96875q1.984375 3.984375 6.203125 3.984375q3.125 0 4.859375 -2.40625q1.734375 -2.421875 1.734375 -7.265625zm17.828125 6.53125l5.90625 -19.0l4.640625 0l-10.1875 29.28125q-2.375 6.328125 -7.53125 6.328125l-0.8125 -0.078125l-1.625 -0.296875l0 -3.515625l1.171875 0.09375q2.203125 0 3.4375 -0.890625q1.234375 -0.890625 2.03125 -3.265625l0.953125 -2.578125l-9.046875 -25.078125l4.734375 0l6.328125 19.0zm20.304688 -25.140625l0 6.140625l4.734375 0l0 3.34375l-4.734375 0l0 15.734375q0 1.515625 0.625 2.28125q0.640625 0.765625 2.15625 0.765625q0.75 0 2.0625 -0.28125l0 3.515625q-1.703125 0.46875 -3.328125 0.46875q-2.90625 0 -4.390625 -1.75q-1.46875 -1.765625 -1.46875 -5.0l0 -15.734375l-4.609375 0l0 -3.34375l4.609375 0l0 -6.140625l4.34375 0zm20.320312 31.96875q-5.15625 0 -8.390625 -3.390625q-3.234375 -3.390625 -3.234375 -9.0625l0 -0.796875q0 -3.765625 1.4375 -6.734375q1.4375 -2.96875 4.03125 -4.640625q2.59375 -1.671875 5.609375 -1.671875q4.953125 0 7.6875 3.265625q2.75 3.25 2.75 9.3125l0 1.8125l-17.1875 0q0.09375 3.75 2.1875 6.0625q2.109375 2.296875 5.34375 2.296875q2.296875 0 3.890625 -0.9375q1.59375 -0.9375 2.78125 -2.484375l2.65625 2.0625q-3.1875 4.90625 -9.5625 4.90625zm-0.546875 -22.734375q-2.625 0 -4.40625 1.90625q-1.78125 1.90625 -2.203125 5.359375l12.703125 0l0 -0.328125q-0.1875 -3.3125 -1.78125 -5.125q-1.59375 -1.8125 -4.3125 -1.8125z" fill-rule="nonzero"/><path fill="#000000" fill-opacity="0.0" d="m891.3648 491.44455l57.606323 0l0 41.322845l-57.606323 0z" fill-rule="evenodd"/><path fill="#cacaca" d="m939.30804 514.2028q0 1.25 -1.171875 2.265625q-1.171875 1.015625 -3.015625 1.015625q-0.59375 0 -1.21875 -0.140625l0.046875 -0.640625q0.59375 0.125 1.09375 0.125q1.40625 0 2.203125 -0.734375q0.796875 -0.75 0.796875 -1.71875q0 -0.78125 -0.546875 -1.3125q-0.53125 -0.546875 -1.515625 -0.546875q-0.46875 0 -1.0 0.140625l0.046875 -0.515625q1.28125 -0.29684448 1.9375 -0.9999695q0.65625 -0.71875 0.65625 -1.265625q0 -0.5625 -0.3125 -0.859375q-0.3125 -0.296875 -0.984375 -0.296875q-0.671875 0 -1.703125 0.640625l-0.1875 -0.375q1.15625 -1.0625 2.4375 -1.0625q0.84375 0 1.40625 0.46875q0.578125 0.46875 0.578125 1.109375q0 1.375 -1.984375 2.40625l0 0.0625q1.25 0.18746948 1.84375 0.7812195q0.59375 0.59375 0.59375 1.453125z" fill-rule="nonzero"/></g></svg>