<svg version="1.1" viewBox="0.0 0.0 960.0 540.0" fill="none" stroke="none" stroke-linecap="square" stroke-miterlimit="10" xmlns:xlink="http://www.w3.org/1999/xlink" xmlns="http://www.w3.org/2000/svg"><clipPath id="g422c6524986df10d_39.0"><path d="m0 0l960.0 0l0 540.0l-960.0 0l0 -540.0z" clip-rule="nonzero"/></clipPath><g clip-path="url(#g422c6524986df10d_39.0)"><path fill="#2b2b2b" d="m0 0l960.0 0l0 540.0l-960.0 0z" fill-rule="evenodd"/><path fill="#000000" fill-opacity="0.0" d="m32.72441 46.721786l894.55115 0l0 60.125984l-894.55115 0z" fill-rule="evenodd"/><path fill="#ffffff" d="m44.240036 94.12178l0 -32.406246l4.53125 0l0 29.171871l8.265625 0l0 3.234375l-12.796875 0zm21.87999 0.3125q-2.5625 0 -4.046875 -1.03125q-1.46875 -1.046875 -2.09375 -2.953125q-0.609375 -1.921875 -0.609375 -4.53125l0 -6.71875q0 -2.59375 0.609375 -4.515625q0.625 -1.921875 2.09375 -2.953125q1.484375 -1.046875 4.046875 -1.046875q2.5625 0 4.015625 1.046875q1.46875 1.03125 2.078125 2.953125q0.625 1.921875 0.625 4.515625l0 6.71875q0 2.609375 -0.625 4.53125q-0.609375 1.90625 -2.078125 2.953125q-1.453125 1.03125 -4.015625 1.03125zm0 -3.15625q1.25 0 1.75 -0.71875q0.5 -0.71875 0.59375 -1.890625q0.09375 -1.1875 0.09375 -2.46875l0 -7.234375q0 -1.328125 -0.09375 -2.484375q-0.09375 -1.15625 -0.59375 -1.890625q-0.5 -0.75 -1.75 -0.75q-1.234375 0 -1.765625 0.75q-0.515625 0.734375 -0.609375 1.890625q-0.09375 1.15625 -0.09375 2.484375l0 7.234375q0 1.28125 0.09375 2.46875q0.09375 1.171875 0.609375 1.890625q0.53125 0.71875 1.765625 0.71875zm16.64061 10.0q-2.078125 0 -3.765625 -0.4375q-1.671875 -0.4375 -2.640625 -1.40625q-0.953125 -0.953125 -0.953125 -2.515625q0 -1.109375 0.484375 -1.953125q0.484375 -0.84375 1.234375 -1.453125q0.765625 -0.625 1.609375 -1.03125q-1.125 -0.3125 -1.6875 -1.015625q-0.5625 -0.703125 -0.5625 -1.46875q0 -1.28125 0.671875 -2.1875q0.6875 -0.921875 1.890625 -2.0q-1.3125 -1.0 -2.0 -2.5625q-0.671875 -1.5625 -0.671875 -4.328125q0 -2.71875 0.734375 -4.53125q0.734375 -1.828125 2.1875 -2.765625q1.46875 -0.9375 3.59375 -0.9375q1.875 0 3.015625 0.640625q1.140625 0.640625 1.75 1.921875q0.1875 -0.328125 1.0625 -1.109375q0.890625 -0.78125 2.046875 -1.296875l0.640625 -0.28125l1.078125 2.765625q-0.515625 0.078125 -1.375 0.375q-0.859375 0.296875 -1.609375 0.609375q-0.734375 0.296875 -0.9375 0.5q0.28125 0.671875 0.5 1.953125q0.234375 1.28125 0.234375 2.28125q0 2.359375 -0.609375 4.15625q-0.59375 1.796875 -1.984375 2.828125q-1.375 1.015625 -3.8125 1.015625q-0.515625 0 -1.125 -0.078125q-0.59375 -0.078125 -1.078125 -0.203125q-0.234375 0.359375 -0.5 0.84375q-0.265625 0.46875 -0.265625 0.921875q0 0.4375 0.453125 0.703125q0.46875 0.25 1.46875 0.328125l3.609375 0.328125q2.71875 0.234375 4.03125 1.640625q1.328125 1.390625 1.328125 4.0q0 1.875 -0.890625 3.171875q-0.875 1.296875 -2.65625 1.9375q-1.78125 0.640625 -4.5 0.640625zm0.328125 -3.359375q2.28125 0 3.359375 -0.546875q1.078125 -0.53125 1.078125 -1.734375q0 -0.71875 -0.265625 -1.203125q-0.25 -0.46875 -0.9375 -0.75q-0.671875 -0.28125 -1.953125 -0.40625l-3.640625 -0.3125q-0.4375 0.4375 -0.84375 0.875q-0.40625 0.4375 -0.640625 0.9375q-0.234375 0.5 -0.234375 1.0625q0 1.046875 0.875 1.5625q0.875 0.515625 3.203125 0.515625zm-0.203125 -13.875q0.921875 0 1.453125 -0.34375q0.546875 -0.34375 0.828125 -1.0q0.28125 -0.65625 0.375 -1.609375q0.109375 -0.96875 0.109375 -2.171875q0 -1.203125 -0.109375 -2.171875q-0.09375 -0.984375 -0.359375 -1.6875q-0.265625 -0.703125 -0.8125 -1.0625q-0.53125 -0.359375 -1.453125 -0.359375q-0.875 0 -1.453125 0.359375q-0.578125 0.359375 -0.859375 1.03125q-0.28125 0.65625 -0.40625 1.640625q-0.109375 0.96875 -0.109375 2.25q0 1.078125 0.09375 2.03125q0.109375 0.9375 0.40625 1.625q0.296875 0.671875 0.859375 1.078125q0.5625 0.390625 1.4375 0.390625zm28.716217 10.390625q-1.234375 0 -2.21875 -0.609375q-0.984375 -0.625 -1.703125 -1.390625l0 1.6875l-4.28125 0l0 -32.406246l4.28125 0l0 11.124996q0.765625 -0.875 1.828125 -1.515625q1.0625 -0.640625 2.53125 -0.640625q1.8125 0 2.859375 0.9375q1.0625 0.9375 1.578125 2.359375q0.53125 1.421875 0.6875 2.890625q0.15625 1.453125 0.15625 2.484375l0 5.609375q0 2.4375 -0.484375 4.625q-0.46875 2.171875 -1.71875 3.515625q-1.234375 1.328125 -3.515625 1.328125zm-0.875 -3.359375q1.125 0 1.59375 -0.8125q0.484375 -0.828125 0.59375 -2.21875q0.125 -1.40625 0.125 -3.078125l0 -5.609375q0 -1.4375 -0.15625 -2.65625q-0.15625 -1.21875 -0.6875 -1.9375q-0.515625 -0.71875 -1.625 -0.71875q-0.84375 0 -1.59375 0.359375q-0.734375 0.359375 -1.296875 0.796875l0 14.84375q0.5625 0.4375 1.34375 0.734375q0.78125 0.296875 1.703125 0.296875zm13.801865 3.359375q-1.359375 0 -2.125 -0.71875q-0.765625 -0.71875 -1.0625 -1.796875q-0.296875 -1.078125 -0.296875 -2.203125l0 -18.71875l4.28125 0l0 17.4375q0 1.25 0.359375 1.953125q0.359375 0.6875 1.484375 0.6875q0.71875 0 1.5 -0.40625q0.78125 -0.421875 1.5 -1.03125l0 -18.640625l4.28125 0l0 23.125l-4.28125 0l0 -2.28125q-1.125 1.078125 -2.546875 1.84375q-1.421875 0.75 -3.09375 0.75zm15.631241 -0.3125l0 -19.953125l-2.75 0l0 -3.171875l2.75 0l0 -1.1875q0 -2.171875 0.34375 -3.703125q0.34375 -1.546875 1.421875 -2.3749962q1.078125 -0.84375 3.234375 -0.84375q0.796875 0 1.421875 0.0625q0.625 0.046875 1.375 0.21875l0 3.1093712q-0.359375 -0.078125 -0.796875 -0.140625q-0.4375 -0.0625 -0.796875 -0.0625q-1.234375 0 -1.578125 0.828125q-0.34375 0.8125 -0.34375 2.171875l0 1.921875l3.515625 0l0 3.171875l-3.515625 0l0 19.953125l-4.28125 0zm10.0 0l0 -19.953125l-2.75 0l0 -3.171875l2.75 0l0 -1.1875q0 -2.171875 0.34375 -3.703125q0.34375 -1.546875 1.421875 -2.3749962q1.078125 -0.84375 3.234375 -0.84375q0.796875 0 1.421875 0.0625q0.625 0.046875 1.375 0.21875l0 3.1093712q-0.359375 -0.078125 -0.796875 -0.140625q-0.4375 -0.0625 -0.796875 -0.0625q-1.234375 0 -1.578125 0.828125q-0.34375 0.8125 -0.34375 2.171875l0 1.921875l3.515625 0l0 3.171875l-3.515625 0l0 19.953125l-4.28125 0zm16.966858 0.3125q-2.71875 0 -4.203125 -1.046875q-1.484375 -1.0625 -2.0625 -3.125q-0.578125 -2.0625 -0.578125 -5.0625l0 -5.28125q0 -3.078125 0.59375 -5.109375q0.609375 -2.046875 2.109375 -3.078125q1.5 -1.046875 4.140625 -1.046875q2.921875 0 4.296875 1.203125q1.375 1.1875 1.8125 3.453125q0.453125 2.265625 0.453125 5.421875l0 1.875l-9.125 0l0 4.640625q0 1.40625 0.25 2.28125q0.265625 0.875 0.84375 1.296875q0.59375 0.421875 1.5 0.421875q0.96875 0 1.46875 -0.453125q0.5 -0.46875 0.671875 -1.328125q0.1875 -0.859375 0.1875 -2.015625l0 -1.40625l4.15625 0l0 0.890625q0 3.46875 -1.484375 5.46875q-1.46875 2.0 -5.03125 2.0zm-2.5625 -14.109375l4.921875 0l0 -2.078125q0 -1.4375 -0.171875 -2.421875q-0.15625 -0.984375 -0.65625 -1.484375q-0.5 -0.5 -1.578125 -0.5q-1.03125 0 -1.578125 0.484375q-0.53125 0.484375 -0.734375 1.625q-0.203125 1.125 -0.203125 3.125l0 1.25zm13.121231 13.796875l0 -23.125l4.28125 0l0 3.28125q1.28125 -2.109375 2.5625 -2.828125q1.28125 -0.734375 2.5625 -0.734375q0.15625 0 0.296875 0q0.140625 0 0.375 0.046875l0 4.71875q-0.484375 -0.203125 -1.109375 -0.34375q-0.609375 -0.140625 -1.25 -0.140625q-1.0 0 -1.828125 0.46875q-0.8125 0.453125 -1.609375 1.78125l0 16.875l-4.28125 0z" fill-rule="nonzero"/><path fill="#e0e0e0" d="m175.86351 188.59055l234.11024 0l0 325.82675l-234.11024 0z" fill-rule="evenodd"/><path stroke="#9e9e9e" stroke-width="1.0" stroke-linejoin="round" stroke-linecap="butt" d="m175.86351 188.59055l234.11024 0l0 325.82675l-234.11024 0z" fill-rule="evenodd"/><path fill="#e0e0e0" d="m425.03937 188.60268l234.11023 0l0 325.82678l-234.11023 0z" fill-rule="evenodd"/><path stroke="#9e9e9e" stroke-width="1.0" stroke-linejoin="round" stroke-linecap="butt" d="m425.03937 188.60268l234.11023 0l0 325.82678l-234.11023 0z" fill-rule="evenodd"/><path fill="#e0e0e0" d="m674.2152 188.60268l234.11023 0l0 325.82678l-234.11023 0z" fill-rule="evenodd"/><path stroke="#9e9e9e" stroke-width="1.0" stroke-linejoin="round" stroke-linecap="butt" d="m674.2152 188.60268l234.11023 0l0 325.82678l-234.11023 0z" fill-rule="evenodd"/><path fill="#000000" fill-opacity="0.0" d="m172.91339 142.62204l234.11023 0l0 42.299225l-234.11023 0z" fill-rule="evenodd"/><path fill="#ffffff" d="m246.92163 159.4433l-5.484375 0l0 15.21875l-2.234375 0l0 -15.21875l-5.46875 0l0 -1.84375l13.1875 0l0 1.84375zm6.3007812 15.453125q-2.578125 0 -4.203125 -1.6875q-1.609375 -1.703125 -1.609375 -4.53125l0 -0.40625q0 -1.890625 0.71875 -3.359375q0.71875 -1.484375 2.015625 -2.328125q1.296875 -0.84375 2.8125 -0.84375q2.46875 0 3.828125 1.640625q1.375 1.625 1.375 4.65625l0 0.90625l-8.578125 0q0.046875 1.875 1.09375 3.03125q1.046875 1.15625 2.65625 1.15625q1.15625 0 1.953125 -0.46875q0.796875 -0.46875 1.390625 -1.25l1.328125 1.03125q-1.59375 2.453125 -4.78125 2.453125zm-0.265625 -11.375q-1.3125 0 -2.203125 0.96875q-0.890625 0.953125 -1.109375 2.671875l6.359375 0l0 -0.171875q-0.09375 -1.640625 -0.890625 -2.546875q-0.796875 -0.921875 -2.15625 -0.921875zm13.839844 0.40625q-0.484375 -0.078125 -1.0625 -0.078125q-2.125 0 -2.890625 1.8125l0 9.0l-2.171875 0l0 -12.6875l2.109375 0l0.03125 1.46875q1.078125 -1.703125 3.03125 -1.703125q0.625 0 0.953125 0.171875l0 2.015625zm4.0429688 -1.953125l0.046875 1.40625q1.40625 -1.640625 3.765625 -1.640625q2.65625 0 3.625 2.046875q0.625 -0.921875 1.640625 -1.484375q1.015625 -0.5625 2.40625 -0.5625q4.171875 0 4.234375 4.421875l0 8.5l-2.171875 0l0 -8.375q0 -1.359375 -0.625 -2.03125q-0.609375 -0.671875 -2.078125 -0.671875q-1.203125 0 -2.0 0.71875q-0.796875 0.71875 -0.921875 1.9375l0 8.421875l-2.1875 0l0 -8.3125q0 -2.765625 -2.703125 -2.765625q-2.140625 0 -2.921875 1.8125l0 9.265625l-2.171875 0l0 -12.6875l2.0625 0zm21.738281 12.6875l-2.25 0l0 -17.0625l2.25 0l0 17.0625zm3.2460938 -6.453125q0 -2.90625 1.375 -4.6875q1.390625 -1.78125 3.640625 -1.78125q2.21875 0 3.515625 1.53125l0 -6.609375l2.171875 0l0 18.0l-1.984375 0l-0.109375 -1.359375q-1.296875 1.59375 -3.625 1.59375q-2.203125 0 -3.59375 -1.796875q-1.390625 -1.8125 -1.390625 -4.71875l0 -0.171875zm2.171875 0.25q0 2.15625 0.890625 3.375q0.890625 1.21875 2.46875 1.21875q2.0625 0 3.0 -1.84375l0 -5.828125q-0.96875 -1.796875 -2.984375 -1.796875q-1.59375 0 -2.484375 1.234375q-0.890625 1.234375 -0.890625 3.640625zm27.757812 -3.34375l-9.78125 0l0 -1.875l9.78125 0l0 1.875zm0 4.875l-9.78125 0l0 -1.875l9.78125 0l0 1.875zm19.675781 -2.609375q0 3.8125 -1.3125 5.671875q-1.296875 1.84375 -4.0625 1.84375q-2.734375 0 -4.046875 -1.8125q-1.3125 -1.8125 -1.359375 -5.40625l0 -2.890625q0 -3.765625 1.296875 -5.59375q1.3125 -1.828125 4.09375 -1.828125q2.75 0 4.046875 1.765625q1.296875 1.765625 1.34375 5.4375l0 2.8125zm-2.171875 -2.96875q0 -2.75 -0.78125 -4.0q-0.765625 -1.265625 -2.4375 -1.265625q-1.671875 0 -2.4375 1.25q-0.75 1.25 -0.78125 3.859375l0 3.46875q0 2.765625 0.796875 4.09375q0.8125 1.3125 2.4375 1.3125q1.609375 0 2.390625 -1.234375q0.78125 -1.25 0.8125 -3.921875l0 -3.5625z" fill-rule="nonzero"/><path fill="#000000" fill-opacity="0.0" d="m425.03937 142.62204l234.11023 0l0 42.299225l-234.11023 0z" fill-rule="evenodd"/><path fill="#ffffff" d="m499.0476 159.4433l-5.484375 0l0 15.21875l-2.234375 0l0 -15.21875l-5.46875 0l0 -1.84375l13.1875 0l0 1.84375zm6.3007812 15.453125q-2.578125 0 -4.203125 -1.6875q-1.609375 -1.703125 -1.609375 -4.53125l0 -0.40625q0 -1.890625 0.71875 -3.359375q0.71875 -1.484375 2.015625 -2.328125q1.296875 -0.84375 2.8125 -0.84375q2.46875 0 3.828125 1.640625q1.375 1.625 1.375 4.65625l0 0.90625l-8.578125 0q0.046875 1.875 1.09375 3.03125q1.046875 1.15625 2.65625 1.15625q1.15625 0 1.953125 -0.46875q0.796875 -0.46875 1.390625 -1.25l1.328125 1.03125q-1.59375 2.453125 -4.78125 2.453125zm-0.265625 -11.375q-1.3125 0 -2.203125 0.96875q-0.890625 0.953125 -1.109375 2.671875l6.359375 0l0 -0.171875q-0.09375 -1.640625 -0.890625 -2.546875q-0.796875 -0.921875 -2.15625 -0.921875zm13.839844 0.40625q-0.484375 -0.078125 -1.0625 -0.078125q-2.125 0 -2.890625 1.8125l0 9.0l-2.171875 0l0 -12.6875l2.109375 0l0.03125 1.46875q1.078125 -1.703125 3.03125 -1.703125q0.625 0 0.953125 0.171875l0 2.015625zm4.0429688 -1.953125l0.046875 1.40625q1.40625 -1.640625 3.765625 -1.640625q2.65625 0 3.625 2.046875q0.625 -0.921875 1.640625 -1.484375q1.015625 -0.5625 2.40625 -0.5625q4.171875 0 4.234375 4.421875l0 8.5l-2.171875 0l0 -8.375q0 -1.359375 -0.625 -2.03125q-0.609375 -0.671875 -2.078125 -0.671875q-1.203125 0 -2.0 0.71875q-0.796875 0.71875 -0.921875 1.9375l0 8.421875l-2.1875 0l0 -8.3125q0 -2.765625 -2.703125 -2.765625q-2.140625 0 -2.921875 1.8125l0 9.265625l-2.171875 0l0 -12.6875l2.0625 0zm21.738281 12.6875l-2.25 0l0 -17.0625l2.25 0l0 17.0625zm3.2460938 -6.453125q0 -2.90625 1.375 -4.6875q1.390625 -1.78125 3.640625 -1.78125q2.21875 0 3.515625 1.53125l0 -6.609375l2.171875 0l0 18.0l-1.984375 0l-0.109375 -1.359375q-1.296875 1.59375 -3.625 1.59375q-2.203125 0 -3.59375 -1.796875q-1.390625 -1.8125 -1.390625 -4.71875l0 -0.171875zm2.171875 0.25q0 2.15625 0.890625 3.375q0.890625 1.21875 2.46875 1.21875q2.0625 0 3.0 -1.84375l0 -5.828125q-0.96875 -1.796875 -2.984375 -1.796875q-1.59375 0 -2.484375 1.234375q-0.890625 1.234375 -0.890625 3.640625zm27.757812 -3.34375l-9.78125 0l0 -1.875l9.78125 0l0 1.875zm0 4.875l-9.78125 0l0 -1.875l9.78125 0l0 1.875zm16.097656 4.671875l-2.1875 0l0 -14.453125l-4.359375 1.609375l0 -1.96875l6.203125 -2.328125l0.34375 0l0 17.140625z" fill-rule="nonzero"/><path fill="#000000" fill-opacity="0.0" d="m677.16534 142.62204l234.11023 0l0 42.299225l-234.11023 0z" fill-rule="evenodd"/><path fill="#ffffff" d="m751.1736 159.4433l-5.484375 0l0 15.21875l-2.234375 0l0 -15.21875l-5.46875 0l0 -1.84375l13.1875 0l0 1.84375zm6.3007812 15.453125q-2.578125 0 -4.203125 -1.6875q-1.609375 -1.703125 -1.609375 -4.53125l0 -0.40625q0 -1.890625 0.71875 -3.359375q0.71875 -1.484375 2.015625 -2.328125q1.296875 -0.84375 2.8125 -0.84375q2.46875 0 3.828125 1.640625q1.375 1.625 1.375 4.65625l0 0.90625l-8.578125 0q0.046875 1.875 1.09375 3.03125q1.046875 1.15625 2.65625 1.15625q1.15625 0 1.953125 -0.46875q0.796875 -0.46875 1.390625 -1.25l1.328125 1.03125q-1.59375 2.453125 -4.78125 2.453125zm-0.265625 -11.375q-1.3125 0 -2.203125 0.96875q-0.890625 0.953125 -1.109375 2.671875l6.359375 0l0 -0.171875q-0.09375 -1.640625 -0.890625 -2.546875q-0.796875 -0.921875 -2.15625 -0.921875zm13.839844 0.40625q-0.484375 -0.078125 -1.0625 -0.078125q-2.125 0 -2.890625 1.8125l0 9.0l-2.171875 0l0 -12.6875l2.109375 0l0.03125 1.46875q1.078125 -1.703125 3.03125 -1.703125q0.625 0 0.953125 0.171875l0 2.015625zm4.0429688 -1.953125l0.046875 1.40625q1.40625 -1.640625 3.765625 -1.640625q2.65625 0 3.625 2.046875q0.625 -0.921875 1.640625 -1.484375q1.015625 -0.5625 2.40625 -0.5625q4.171875 0 4.234375 4.421875l0 8.5l-2.171875 0l0 -8.375q0 -1.359375 -0.625 -2.03125q-0.609375 -0.671875 -2.078125 -0.671875q-1.203125 0 -2.0 0.71875q-0.796875 0.71875 -0.921875 1.9375l0 8.421875l-2.1875 0l0 -8.3125q0 -2.765625 -2.703125 -2.765625q-2.140625 0 -2.921875 1.8125l0 9.265625l-2.171875 0l0 -12.6875l2.0625 0zm21.738281 12.6875l-2.25 0l0 -17.0625l2.25 0l0 17.0625zm3.2460938 -6.453125q0 -2.90625 1.375 -4.6875q1.390625 -1.78125 3.640625 -1.78125q2.21875 0 3.515625 1.53125l0 -6.609375l2.171875 0l0 18.0l-1.984375 0l-0.109375 -1.359375q-1.296875 1.59375 -3.625 1.59375q-2.203125 0 -3.59375 -1.796875q-1.390625 -1.8125 -1.390625 -4.71875l0 -0.171875zm2.171875 0.25q0 2.15625 0.890625 3.375q0.890625 1.21875 2.46875 1.21875q2.0625 0 3.0 -1.84375l0 -5.828125q-0.96875 -1.796875 -2.984375 -1.796875q-1.59375 0 -2.484375 1.234375q-0.890625 1.234375 -0.890625 3.640625zm27.757812 -3.34375l-9.78125 0l0 -1.875l9.78125 0l0 1.875zm0 4.875l-9.78125 0l0 -1.875l9.78125 0l0 1.875zm20.144531 4.671875l-11.171875 0l0 -1.5625l5.90625 -6.5625q1.3125 -1.484375 1.8125 -2.40625q0.5 -0.9375 0.5 -1.9375q0 -1.34375 -0.8125 -2.1875q-0.8125 -0.859375 -2.15625 -0.859375q-1.625 0 -2.515625 0.921875q-0.890625 0.921875 -0.890625 2.5625l-2.171875 0q0 -2.359375 1.515625 -3.8125q1.515625 -1.453125 4.0625 -1.453125q2.375 0 3.75 1.25q1.390625 1.25 1.390625 3.3125q0 2.53125 -3.203125 6.0l-4.578125 4.96875l8.5625 0l0 1.765625z" fill-rule="nonzero"/><path fill="#000000" fill-opacity="0.0" d="m25.648294 328.1496l111.149605 0l0 46.70868l-111.149605 0z" fill-rule="evenodd"/><path fill="#ffffff" d="m41.288918 355.0696l-1.6875 0l0 -11.234375l-3.40625 1.25l0 -1.53125l4.828125 -1.8125l0.265625 0l0 13.328125zm13.257172 -5.65625q0 2.953125 -1.015625 4.40625q-1.015625 1.4375 -3.15625 1.4375q-2.125 0 -3.15625 -1.40625q-1.015625 -1.40625 -1.046875 -4.203125l0 -2.25q0 -2.9375 1.0 -4.359375q1.015625 -1.421875 3.1875 -1.421875q2.140625 0 3.140625 1.375q1.015625 1.375 1.046875 4.234375l0 2.1875zm-1.6875 -2.3125q0 -2.140625 -0.609375 -3.109375q-0.59375 -0.984375 -1.890625 -0.984375q-1.296875 0 -1.890625 0.984375q-0.59375 0.96875 -0.609375 2.984375l0 2.703125q0 2.140625 0.625 3.171875q0.625 1.03125 1.890625 1.03125q1.25 0 1.84375 -0.96875q0.609375 -0.96875 0.640625 -3.046875l0 -2.765625zm12.163422 2.3125q0 2.953125 -1.015625 4.40625q-1.015625 1.4375 -3.15625 1.4375q-2.125 0 -3.15625 -1.40625q-1.015625 -1.40625 -1.046875 -4.203125l0 -2.25q0 -2.9375 1.0 -4.359375q1.015625 -1.421875 3.1875 -1.421875q2.140625 0 3.140625 1.375q1.015625 1.375 1.046875 4.234375l0 2.1875zm-1.6875 -2.3125q0 -2.140625 -0.609375 -3.109375q-0.59375 -0.984375 -1.890625 -0.984375q-1.296875 0 -1.890625 0.984375q-0.59375 0.96875 -0.609375 2.984375l0 2.703125q0 2.140625 0.625 3.171875q0.625 1.03125 1.890625 1.03125q1.25 0 1.84375 -0.96875q0.609375 -0.96875 0.640625 -3.046875l0 -2.765625zm12.163422 2.3125q0 2.953125 -1.015625 4.40625q-1.015625 1.4375 -3.15625 1.4375q-2.125 0 -3.15625 -1.40625q-1.015625 -1.40625 -1.046875 -4.203125l0 -2.25q0 -2.9375 1.0 -4.359375q1.015625 -1.421875 3.1875 -1.421875q2.140625 0 3.140625 1.375q1.015625 1.375 1.046875 4.234375l0 2.1875zm-1.6875 -2.3125q0 -2.140625 -0.609375 -3.109375q-0.59375 -0.984375 -1.890625 -0.984375q-1.296875 0 -1.890625 0.984375q-0.59375 0.96875 -0.609375 2.984375l0 2.703125q0 2.140625 0.625 3.171875q0.625 1.03125 1.890625 1.03125q1.25 0 1.84375 -0.96875q0.609375 -0.96875 0.640625 -3.046875l0 -2.765625zm16.985062 3.15625q0 2.25 -1.046875 3.625q-1.03125 1.375 -2.78125 1.375q-1.875 0 -2.890625 -1.328125l-0.078125 1.140625l-1.546875 0l0 -14.0l1.671875 0l0 5.234375q1.03125 -1.265625 2.8125 -1.265625q1.796875 0 2.828125 1.359375q1.03125 1.34375 1.03125 3.703125l0 0.15625zm-1.6875 -0.203125q0 -1.71875 -0.671875 -2.65625q-0.65625 -0.9375 -1.90625 -0.9375q-1.671875 0 -2.40625 1.546875l0 4.265625q0.78125 1.546875 2.421875 1.546875q1.21875 0 1.890625 -0.9375q0.671875 -0.9375 0.671875 -2.828125zm6.9290466 2.546875l2.296875 -7.390625l1.796875 0l-3.953125 11.375q-0.921875 2.46875 -2.921875 2.46875l-0.328125 -0.03125l-0.625 -0.125l0 -1.359375l0.453125 0.03125q0.859375 0 1.328125 -0.34375q0.484375 -0.34375 0.796875 -1.265625l0.375 -1.0l-3.515625 -9.75l1.84375 0l2.453125 7.390625zm7.8896027 -9.78125l0 2.390625l1.84375 0l0 1.3125l-1.84375 0l0 6.109375q0 0.59375 0.234375 0.890625q0.25 0.296875 0.84375 0.296875q0.296875 0 0.8125 -0.109375l0 1.359375q-0.671875 0.1875 -1.296875 0.1875q-1.125 0 -1.703125 -0.6875q-0.578125 -0.6875 -0.578125 -1.9375l0 -6.109375l-1.796875 0l0 -1.3125l1.796875 0l0 -2.390625l1.6875 0zm7.8911285 12.4375q-2.0 0 -3.265625 -1.3125q-1.25 -1.328125 -1.25 -3.53125l0 -0.3125q0 -1.46875 0.5625 -2.609375q0.5625 -1.15625 1.5625 -1.796875q1.015625 -0.65625 2.1875 -0.65625q1.921875 0 2.984375 1.265625q1.0625 1.265625 1.0625 3.625l0 0.6875l-6.671875 0q0.03125 1.46875 0.84375 2.375q0.828125 0.890625 2.078125 0.890625q0.890625 0 1.515625 -0.359375q0.625 -0.375 1.078125 -0.96875l1.03125 0.796875q-1.234375 1.90625 -3.71875 1.90625zm-0.203125 -8.84375q-1.015625 0 -1.71875 0.75q-0.6875 0.734375 -0.84375 2.078125l4.9375 0l0 -0.125q-0.078125 -1.28125 -0.703125 -1.984375q-0.609375 -0.71875 -1.671875 -0.71875z" fill-rule="nonzero"/><path fill="#000000" fill-opacity="0.0" d="m171.40929 195.73753c-5.2163696 1.3114624 -25.774765 -15.082245 -31.298172 7.868759c-5.5233917 22.95102 0.30540466 105.5748 -1.8422241 129.83728c-2.1476288 24.262451 -11.350555 10.983368 -11.043518 15.737518c0.30703735 4.754181 11.045151 -12.130341 12.885742 12.787415c1.8405914 24.917755 -5.831253 111.47333 -1.8422241 136.71915c3.989029 25.24588 21.480331 12.2966 25.776413 14.75589" fill-rule="evenodd"/><path stroke="#9e9e9e" stroke-width="3.0" stroke-linejoin="round" stroke-linecap="butt" d="m171.40929 195.73753c-5.2163696 1.3114624 -25.774765 -15.082245 -31.298172 7.868759c-5.5233917 22.95102 0.30540466 105.5748 -1.8422241 129.83728c-2.1476288 24.262451 -11.350555 10.983368 -11.043518 15.737518c0.30703735 4.754181 11.045151 -12.130341 12.885742 12.787415c1.8405914 24.917755 -5.831253 111.47333 -1.8422241 136.71915c3.989029 25.24588 21.480331 12.2966 25.776413 14.75589" fill-rule="evenodd"/><path fill="#000000" fill-opacity="0.0" d="m891.3648 491.44455l57.606323 0l0 41.322845l-57.606323 0z" fill-rule="evenodd"/><path fill="#cacaca" d="m939.6099 516.9528q-0.84375 -0.046875 -2.0 -0.046875q-1.140625 0 -1.984375 0.046875l-0.046875 -0.390625q0.234375 -0.0625 0.5 -0.109375q0.28125 -0.046875 0.4375 -0.078125q0.171875 -0.046875 0.265625 -0.078125q0.09375 -0.03125 0.1875 -0.078125q0.171875 -0.078125 0.203125 -0.234375q0.046875 -0.296875 0.078125 -1.5625l-3.828125 0l-0.15625 -0.515625l3.515625 -6.6249695l1.21875 0.125l-3.78125 6.2812195l3.046875 0l0 -2.4530945q0 -0.03125 0.015625 -0.078125q0.03125 -0.046875 0.3125 -0.125q0.296875 -0.09375 0.828125 -0.125q0 2.2968445 0.015625 2.7812195l1.078125 0l0.078125 0.1875l-0.5 0.625q0 -0.03125 -0.640625 -0.0625l0.078125 1.546875q0.03125 0.234375 0.25 0.34375q0.21875 0.09375 0.875 0.234375l-0.046875 0.390625z" fill-rule="nonzero"/></g></svg>