<svg version="1.1" viewBox="0.0 0.0 960.0 540.0" fill="none" stroke="none" stroke-linecap="square" stroke-miterlimit="10" xmlns:xlink="http://www.w3.org/1999/xlink" xmlns="http://www.w3.org/2000/svg"><clipPath id="g5ed97d6ff9_4_119.0"><path d="m0 0l960.0 0l0 540.0l-960.0 0l0 -540.0z" clip-rule="nonzero"/></clipPath><g clip-path="url(#g5ed97d6ff9_4_119.0)"><path fill="#2b2b2b" d="m0 0l960.0 0l0 540.0l-960.0 0z" fill-rule="evenodd"/><path fill="#000000" fill-opacity="0.0" d="m32.72441 46.721786l894.55115 0l0 60.125984l-894.55115 0z" fill-rule="evenodd"/><path fill="#ffffff" d="m44.240036 94.12178l0 -32.406246l4.53125 0l0 29.171871l8.265625 0l0 3.234375l-12.796875 0zm21.87999 0.3125q-2.5625 0 -4.046875 -1.03125q-1.46875 -1.046875 -2.09375 -2.953125q-0.609375 -1.921875 -0.609375 -4.53125l0 -6.71875q0 -2.59375 0.609375 -4.515625q0.625 -1.921875 2.09375 -2.953125q1.484375 -1.046875 4.046875 -1.046875q2.5625 0 4.015625 1.046875q1.46875 1.03125 2.078125 2.953125q0.625 1.921875 0.625 4.515625l0 6.71875q0 2.609375 -0.625 4.53125q-0.609375 1.90625 -2.078125 2.953125q-1.453125 1.03125 -4.015625 1.03125zm0 -3.15625q1.25 0 1.75 -0.71875q0.5 -0.71875 0.59375 -1.890625q0.09375 -1.1875 0.09375 -2.46875l0 -7.234375q0 -1.328125 -0.09375 -2.484375q-0.09375 -1.15625 -0.59375 -1.890625q-0.5 -0.75 -1.75 -0.75q-1.234375 0 -1.765625 0.75q-0.515625 0.734375 -0.609375 1.890625q-0.09375 1.15625 -0.09375 2.484375l0 7.234375q0 1.28125 0.09375 2.46875q0.09375 1.171875 0.609375 1.890625q0.53125 0.71875 1.765625 0.71875zm16.64061 10.0q-2.078125 0 -3.765625 -0.4375q-1.671875 -0.4375 -2.640625 -1.40625q-0.953125 -0.953125 -0.953125 -2.515625q0 -1.109375 0.484375 -1.953125q0.484375 -0.84375 1.234375 -1.453125q0.765625 -0.625 1.609375 -1.03125q-1.125 -0.3125 -1.6875 -1.015625q-0.5625 -0.703125 -0.5625 -1.46875q0 -1.28125 0.671875 -2.1875q0.6875 -0.921875 1.890625 -2.0q-1.3125 -1.0 -2.0 -2.5625q-0.671875 -1.5625 -0.671875 -4.328125q0 -2.71875 0.734375 -4.53125q0.734375 -1.828125 2.1875 -2.765625q1.46875 -0.9375 3.59375 -0.9375q1.875 0 3.015625 0.640625q1.140625 0.640625 1.75 1.921875q0.1875 -0.328125 1.0625 -1.109375q0.890625 -0.78125 2.046875 -1.296875l0.640625 -0.28125l1.078125 2.765625q-0.515625 0.078125 -1.375 0.375q-0.859375 0.296875 -1.609375 0.609375q-0.734375 0.296875 -0.9375 0.5q0.28125 0.671875 0.5 1.953125q0.234375 1.28125 0.234375 2.28125q0 2.359375 -0.609375 4.15625q-0.59375 1.796875 -1.984375 2.828125q-1.375 1.015625 -3.8125 1.015625q-0.515625 0 -1.125 -0.078125q-0.59375 -0.078125 -1.078125 -0.203125q-0.234375 0.359375 -0.5 0.84375q-0.265625 0.46875 -0.265625 0.921875q0 0.4375 0.453125 0.703125q0.46875 0.25 1.46875 0.328125l3.609375 0.328125q2.71875 0.234375 4.03125 1.640625q1.328125 1.390625 1.328125 4.0q0 1.875 -0.890625 3.171875q-0.875 1.296875 -2.65625 1.9375q-1.78125 0.640625 -4.5 0.640625zm0.328125 -3.359375q2.28125 0 3.359375 -0.546875q1.078125 -0.53125 1.078125 -1.734375q0 -0.71875 -0.265625 -1.203125q-0.25 -0.46875 -0.9375 -0.75q-0.671875 -0.28125 -1.953125 -0.40625l-3.640625 -0.3125q-0.4375 0.4375 -0.84375 0.875q-0.40625 0.4375 -0.640625 0.9375q-0.234375 0.5 -0.234375 1.0625q0 1.046875 0.875 1.5625q0.875 0.515625 3.203125 0.515625zm-0.203125 -13.875q0.921875 0 1.453125 -0.34375q0.546875 -0.34375 0.828125 -1.0q0.28125 -0.65625 0.375 -1.609375q0.109375 -0.96875 0.109375 -2.171875q0 -1.203125 -0.109375 -2.171875q-0.09375 -0.984375 -0.359375 -1.6875q-0.265625 -0.703125 -0.8125 -1.0625q-0.53125 -0.359375 -1.453125 -0.359375q-0.875 0 -1.453125 0.359375q-0.578125 0.359375 -0.859375 1.03125q-0.28125 0.65625 -0.40625 1.640625q-0.109375 0.96875 -0.109375 2.25q0 1.078125 0.09375 2.03125q0.109375 0.9375 0.40625 1.625q0.296875 0.671875 0.859375 1.078125q0.5625 0.390625 1.4375 0.390625zm28.716217 10.390625q-1.234375 0 -2.21875 -0.609375q-0.984375 -0.625 -1.703125 -1.390625l0 1.6875l-4.28125 0l0 -32.406246l4.28125 0l0 11.124996q0.765625 -0.875 1.828125 -1.515625q1.0625 -0.640625 2.53125 -0.640625q1.8125 0 2.859375 0.9375q1.0625 0.9375 1.578125 2.359375q0.53125 1.421875 0.6875 2.890625q0.15625 1.453125 0.15625 2.484375l0 5.609375q0 2.4375 -0.484375 4.625q-0.46875 2.171875 -1.71875 3.515625q-1.234375 1.328125 -3.515625 1.328125zm-0.875 -3.359375q1.125 0 1.59375 -0.8125q0.484375 -0.828125 0.59375 -2.21875q0.125 -1.40625 0.125 -3.078125l0 -5.609375q0 -1.4375 -0.15625 -2.65625q-0.15625 -1.21875 -0.6875 -1.9375q-0.515625 -0.71875 -1.625 -0.71875q-0.84375 0 -1.59375 0.359375q-0.734375 0.359375 -1.296875 0.796875l0 14.84375q0.5625 0.4375 1.34375 0.734375q0.78125 0.296875 1.703125 0.296875zm13.801865 3.359375q-1.359375 0 -2.125 -0.71875q-0.765625 -0.71875 -1.0625 -1.796875q-0.296875 -1.078125 -0.296875 -2.203125l0 -18.71875l4.28125 0l0 17.4375q0 1.25 0.359375 1.953125q0.359375 0.6875 1.484375 0.6875q0.71875 0 1.5 -0.40625q0.78125 -0.421875 1.5 -1.03125l0 -18.640625l4.28125 0l0 23.125l-4.28125 0l0 -2.28125q-1.125 1.078125 -2.546875 1.84375q-1.421875 0.75 -3.09375 0.75zm15.631241 -0.3125l0 -19.953125l-2.75 0l0 -3.171875l2.75 0l0 -1.1875q0 -2.171875 0.34375 -3.703125q0.34375 -1.546875 1.421875 -2.3749962q1.078125 -0.84375 3.234375 -0.84375q0.796875 0 1.421875 0.0625q0.625 0.046875 1.375 0.21875l0 3.1093712q-0.359375 -0.078125 -0.796875 -0.140625q-0.4375 -0.0625 -0.796875 -0.0625q-1.234375 0 -1.578125 0.828125q-0.34375 0.8125 -0.34375 2.171875l0 1.921875l3.515625 0l0 3.171875l-3.515625 0l0 19.953125l-4.28125 0zm10.0 0l0 -19.953125l-2.75 0l0 -3.171875l2.75 0l0 -1.1875q0 -2.171875 0.34375 -3.703125q0.34375 -1.546875 1.421875 -2.3749962q1.078125 -0.84375 3.234375 -0.84375q0.796875 0 1.421875 0.0625q0.625 0.046875 1.375 0.21875l0 3.1093712q-0.359375 -0.078125 -0.796875 -0.140625q-0.4375 -0.0625 -0.796875 -0.0625q-1.234375 0 -1.578125 0.828125q-0.34375 0.8125 -0.34375 2.171875l0 1.921875l3.515625 0l0 3.171875l-3.515625 0l0 19.953125l-4.28125 0zm16.966858 0.3125q-2.71875 0 -4.203125 -1.046875q-1.484375 -1.0625 -2.0625 -3.125q-0.578125 -2.0625 -0.578125 -5.0625l0 -5.28125q0 -3.078125 0.59375 -5.109375q0.609375 -2.046875 2.109375 -3.078125q1.5 -1.046875 4.140625 -1.046875q2.921875 0 4.296875 1.203125q1.375 1.1875 1.8125 3.453125q0.453125 2.265625 0.453125 5.421875l0 1.875l-9.125 0l0 4.640625q0 1.40625 0.25 2.28125q0.265625 0.875 0.84375 1.296875q0.59375 0.421875 1.5 0.421875q0.96875 0 1.46875 -0.453125q0.5 -0.46875 0.671875 -1.328125q0.1875 -0.859375 0.1875 -2.015625l0 -1.40625l4.15625 0l0 0.890625q0 3.46875 -1.484375 5.46875q-1.46875 2.0 -5.03125 2.0zm-2.5625 -14.109375l4.921875 0l0 -2.078125q0 -1.4375 -0.171875 -2.421875q-0.15625 -0.984375 -0.65625 -1.484375q-0.5 -0.5 -1.578125 -0.5q-1.03125 0 -1.578125 0.484375q-0.53125 0.484375 -0.734375 1.625q-0.203125 1.125 -0.203125 3.125l0 1.25zm13.121231 13.796875l0 -23.125l4.28125 0l0 3.28125q1.28125 -2.109375 2.5625 -2.828125q1.28125 -0.734375 2.5625 -0.734375q0.15625 0 0.296875 0q0.140625 0 0.375 0.046875l0 4.71875q-0.484375 -0.203125 -1.109375 -0.34375q-0.609375 -0.140625 -1.25 -0.140625q-1.0 0 -1.828125 0.46875q-0.8125 0.453125 -1.609375 1.78125l0 16.875l-4.28125 0z" fill-rule="nonzero"/><path fill="#cc0000" d="m581.9895 241.80081l0 0c0 -7.7872314 6.312805 -14.100021 14.100037 -14.100021l154.76056 0c3.739563 0 7.325989 1.4855347 9.970215 4.1297913c2.644287 2.6442719 4.129822 6.230667 4.129822 9.97023l0 56.398376c0 7.7872314 -6.312805 14.100037 -14.100037 14.100037l-154.76056 0c-7.7872314 0 -14.100037 -6.312805 -14.100037 -14.100037z" fill-rule="evenodd"/><path stroke="#9e9e9e" stroke-width="1.0" stroke-linejoin="round" stroke-linecap="butt" d="m581.9895 241.80081l0 0c0 -7.7872314 6.312805 -14.100021 14.100037 -14.100021l154.76056 0c3.739563 0 7.325989 1.4855347 9.970215 4.1297913c2.644287 2.6442719 4.129822 6.230667 4.129822 9.97023l0 56.398376c0 7.7872314 -6.312805 14.100037 -14.100037 14.100037l-154.76056 0c-7.7872314 0 -14.100037 -6.312805 -14.100037 -14.100037z" fill-rule="evenodd"/><path fill="#ffffff" d="m642.9855 281.72l0 -22.75l6.421875 0q2.96875 0 5.25 1.3125q2.28125 1.3125 3.515625 3.734375q1.25 2.421875 1.265625 5.5625l0 1.453125q0 3.21875 -1.25 5.640625q-1.234375 2.421875 -3.546875 3.71875q-2.296875 1.296875 -5.359375 1.328125l-6.296875 0zm3.0 -20.28125l0 17.828125l3.15625 0q3.46875 0 5.390625 -2.15625q1.9375 -2.15625 1.9375 -6.140625l0 -1.328125q0 -3.875 -1.828125 -6.015625q-1.8125 -2.15625 -5.15625 -2.1875l-3.5 0zm27.96875 20.28125q-0.25 -0.5 -0.40625 -1.78125q-2.015625 2.09375 -4.8125 2.09375q-2.5 0 -4.109375 -1.40625q-1.59375 -1.421875 -1.59375 -3.59375q0 -2.640625 2.0 -4.09375q2.015625 -1.46875 5.65625 -1.46875l2.8125 0l0 -1.328125q0 -1.515625 -0.90625 -2.40625q-0.90625 -0.90625 -2.671875 -0.90625q-1.546875 0 -2.59375 0.78125q-1.046875 0.78125 -1.046875 1.890625l-2.90625 0q0 -1.265625 0.890625 -2.4375q0.90625 -1.1875 2.4375 -1.875q1.546875 -0.6875 3.390625 -0.6875q2.921875 0 4.578125 1.46875q1.65625 1.453125 1.71875 4.015625l0 7.78125q0 2.328125 0.59375 3.703125l0 0.25l-3.03125 0zm-4.796875 -2.203125q1.359375 0 2.578125 -0.703125q1.21875 -0.703125 1.765625 -1.828125l0 -3.46875l-2.265625 0q-5.3125 0 -5.3125 3.109375q0 1.359375 0.90625 2.125q0.90625 0.765625 2.328125 0.765625zm15.6875 -18.796875l0 4.09375l3.15625 0l0 2.234375l-3.15625 0l0 10.484375q0 1.015625 0.421875 1.53125q0.421875 0.5 1.4375 0.5q0.5 0 1.375 -0.1875l0 2.34375q-1.140625 0.3125 -2.21875 0.3125q-1.9375 0 -2.921875 -1.171875q-0.984375 -1.171875 -0.984375 -3.328125l0 -10.484375l-3.078125 0l0 -2.234375l3.078125 0l0 -4.09375l2.890625 0zm16.96875 21.0q-0.25 -0.5 -0.40625 -1.78125q-2.015625 2.09375 -4.8125 2.09375q-2.5 0 -4.109375 -1.40625q-1.59375 -1.421875 -1.59375 -3.59375q0 -2.640625 2.0 -4.09375q2.015625 -1.46875 5.65625 -1.46875l2.8125 0l0 -1.328125q0 -1.515625 -0.90625 -2.40625q-0.90625 -0.90625 -2.671875 -0.90625q-1.546875 0 -2.59375 0.78125q-1.046875 0.78125 -1.046875 1.890625l-2.90625 0q0 -1.265625 0.890625 -2.4375q0.90625 -1.1875 2.4375 -1.875q1.546875 -0.6875 3.390625 -0.6875q2.921875 0 4.578125 1.46875q1.65625 1.453125 1.71875 4.015625l0 7.78125q0 2.328125 0.59375 3.703125l0 0.25l-3.03125 0zm-4.796875 -2.203125q1.359375 0 2.578125 -0.703125q1.21875 -0.703125 1.765625 -1.828125l0 -3.46875l-2.265625 0q-5.3125 0 -5.3125 3.109375q0 1.359375 0.90625 2.125q0.90625 0.765625 2.328125 0.765625z" fill-rule="nonzero"/><path fill="#000000" fill-opacity="0.0" d="m891.3648 491.44455l57.606323 0l0 41.322845l-57.606323 0z" fill-rule="evenodd"/><path fill="#cacaca" d="m939.0024 510.34348q0 0.75 -0.390625 1.5625q-0.390625 0.8124695 -0.890625 1.4218445q-0.5 0.609375 -1.171875 1.234375q-0.96875 0.84375 -1.75 1.390625l0.03125 0.078125q2.46875 0 3.140625 -0.21875q0.6875 -0.21875 0.984375 -1.1875l0.359375 0.15625q-0.234375 0.734375 -0.3125 2.125l-5.359375 0l-0.15625 -0.53125q0.484375 -0.375 1.34375 -1.203125q0.859375 -0.84375 1.421875 -1.515625q0.5625 -0.6875 1.015625 -1.5625q0.46875 -0.8749695 0.46875 -1.6718445q0 -0.796875 -0.484375 -1.1875q-0.484375 -0.390625 -1.25 -0.390625q-1.109375 0 -2.078125 0.515625l-0.1875 -0.375q1.25 -1.046875 2.65625 -1.046875q1.078125 0 1.84375 0.640625q0.765625 0.625 0.765625 1.765625z" fill-rule="nonzero"/><path fill="#000000" fill-opacity="0.0" d="m134.61679 240.56955l704.5354 0l0 74.74017l-704.5354 0z" fill-rule="evenodd"/><path fill="#ffffff" d="m163.50742 277.8133q0 2.609375 -0.734375 4.5625q-0.734375 1.953125 -2.03125 3.25q-1.28125 1.28125 -3.046875 1.9375q-1.75 0.640625 -3.796875 0.640625q-0.9375 0 -1.875 -0.09375q-0.921875 -0.09375 -1.875 -0.34375l0 8.21875l-3.40625 0l0 -27.625l3.03125 0l0.21875 3.28125q1.453125 -2.015625 3.109375 -2.828125q1.671875 -0.8125 3.609375 -0.8125q1.671875 0 2.9375 0.703125q1.28125 0.703125 2.140625 1.984375q0.859375 1.28125 1.28125 3.09375q0.4375 1.796875 0.4375 4.03125zm-3.484375 0.15625q0 -1.546875 -0.234375 -2.828125q-0.21875 -1.296875 -0.703125 -2.203125q-0.484375 -0.921875 -1.25 -1.4375q-0.765625 -0.53125 -1.8125 -0.53125q-0.640625 0 -1.3125 0.21875q-0.65625 0.203125 -1.375 0.6875q-0.71875 0.46875 -1.515625 1.265625q-0.78125 0.78125 -1.671875 1.953125l0 9.515625q0.9375 0.390625 1.96875 0.625q1.03125 0.21875 2.03125 0.21875q2.75 0 4.3125 -1.859375q1.5625 -1.875 1.5625 -5.625zm24.476562 10.0l-3.046875 0l-0.125 -3.171875q-0.875 1.015625 -1.671875 1.703125q-0.78125 0.671875 -1.5625 1.078125q-0.78125 0.40625 -1.578125 0.578125q-0.78125 0.171875 -1.671875 0.171875q-3.015625 0 -4.5625 -1.78125q-1.546875 -1.78125 -1.546875 -5.375l0 -12.8125l3.40625 0l0 12.53125q0 4.515625 3.390625 4.515625q0.625 0 1.21875 -0.1875q0.59375 -0.1875 1.25 -0.640625q0.65625 -0.453125 1.40625 -1.234375q0.75 -0.78125 1.6875 -1.984375l0 -13.0l3.40625 0l0 19.609375zm22.992188 -10.15625q0 2.4375 -0.6875 4.359375q-0.671875 1.921875 -1.90625 3.265625q-1.234375 1.34375 -3.015625 2.0625q-1.78125 0.703125 -4.0 0.703125q-1.75 0 -3.5625 -0.328125q-1.8125 -0.34375 -3.59375 -1.0625l0 -26.4375l3.40625 0l0 7.59375l-0.15625 3.625q1.453125 -1.96875 3.125 -2.78125q1.671875 -0.8125 3.59375 -0.8125q1.671875 0 2.9375 0.703125q1.28125 0.703125 2.140625 1.984375q0.859375 1.28125 1.28125 3.09375q0.4375 1.796875 0.4375 4.03125zm-3.484375 0.15625q0 -1.546875 -0.234375 -2.828125q-0.21875 -1.296875 -0.703125 -2.203125q-0.484375 -0.921875 -1.25 -1.4375q-0.765625 -0.53125 -1.8125 -0.53125q-0.640625 0 -1.3125 0.21875q-0.65625 0.203125 -1.375 0.6875q-0.71875 0.46875 -1.515625 1.265625q-0.78125 0.78125 -1.671875 1.953125l0 9.515625q0.984375 0.390625 2.015625 0.625q1.046875 0.21875 1.984375 0.21875q1.171875 0 2.234375 -0.375q1.0625 -0.375 1.875 -1.234375q0.8125 -0.875 1.28125 -2.3125q0.484375 -1.4375 0.484375 -3.5625zm15.3984375 -14.8125l-5.8125 0l0 -2.78125l9.25 0l0 24.765625l5.828125 0l0 2.828125l-15.71875 0l0 -2.828125l6.453125 0l0 -21.984375zm21.992188 8.015625l-5.8125 0l0 -2.8125l9.25 0l0 16.78125l5.828125 0l0 2.828125l-15.71875 0l0 -2.828125l6.453125 0l0 -13.96875zm1.1875 -11.03125q0.5625 0 1.046875 0.203125q0.5 0.203125 0.859375 0.578125q0.359375 0.359375 0.5625 0.84375q0.203125 0.484375 0.203125 1.046875q0 0.546875 -0.203125 1.03125q-0.203125 0.484375 -0.5625 0.859375q-0.359375 0.375 -0.859375 0.578125q-0.484375 0.203125 -1.046875 0.203125q-0.5625 0 -1.0625 -0.203125q-0.484375 -0.203125 -0.84375 -0.578125q-0.359375 -0.375 -0.5625 -0.859375q-0.203125 -0.484375 -0.203125 -1.03125q0 -0.5625 0.203125 -1.046875q0.203125 -0.484375 0.5625 -0.84375q0.359375 -0.375 0.84375 -0.578125q0.5 -0.203125 1.0625 -0.203125zm29.351562 27.109375q-1.328125 0.5 -2.734375 0.75q-1.390625 0.25 -2.875 0.25q-4.640625 0 -7.15625 -2.515625q-2.5 -2.53125 -2.5 -7.375q0 -2.328125 0.71875 -4.21875q0.71875 -1.890625 2.03125 -3.234375q1.3125 -1.359375 3.125 -2.09375q1.8125 -0.734375 4.0 -0.734375q1.53125 0 2.859375 0.21875q1.328125 0.21875 2.53125 0.703125l0 3.25q-1.265625 -0.671875 -2.59375 -0.96875q-1.3125 -0.3125 -2.71875 -0.3125q-1.3125 0 -2.46875 0.5q-1.15625 0.5 -2.046875 1.4375q-0.875 0.9375 -1.390625 2.296875q-0.5 1.34375 -0.5 3.03125q0 3.5625 1.71875 5.328125q1.734375 1.765625 4.8125 1.765625q1.375 0 2.671875 -0.3125q1.3125 -0.3125 2.515625 -0.9375l0 3.171875zm19.351562 0.71875l-0.078125 -2.640625q-1.59375 1.578125 -3.25 2.296875q-1.640625 0.703125 -3.46875 0.703125q-1.671875 0 -2.875 -0.4375q-1.1875 -0.4375 -1.953125 -1.1875q-0.765625 -0.75 -1.140625 -1.765625q-0.359375 -1.015625 -0.359375 -2.203125q0 -2.953125 2.203125 -4.625q2.203125 -1.671875 6.5 -1.671875l4.0625 0l0 -1.71875q0 -1.734375 -1.125 -2.78125q-1.109375 -1.046875 -3.390625 -1.046875q-1.65625 0 -3.28125 0.375q-1.609375 0.375 -3.328125 1.0625l0 -3.078125q0.65625 -0.234375 1.4375 -0.453125q0.796875 -0.21875 1.671875 -0.390625q0.875 -0.1875 1.828125 -0.296875q0.96875 -0.109375 1.9375 -0.109375q1.78125 0 3.203125 0.390625q1.4375 0.390625 2.421875 1.203125q0.984375 0.796875 1.5 2.015625q0.53125 1.203125 0.53125 2.84375l0 13.515625l-3.046875 0zm-0.359375 -8.921875l-4.328125 0q-1.265625 0 -2.1875 0.25q-0.90625 0.25 -1.5 0.71875q-0.578125 0.46875 -0.875 1.125q-0.28125 0.65625 -0.28125 1.46875q0 0.578125 0.171875 1.09375q0.1875 0.515625 0.578125 0.921875q0.390625 0.390625 1.015625 0.625q0.625 0.234375 1.515625 0.234375q1.171875 0 2.6875 -0.703125q1.515625 -0.71875 3.203125 -2.265625l0 -3.46875zm25.554688 8.640625q-1.140625 0.296875 -2.375 0.421875q-1.234375 0.140625 -2.5 0.140625q-3.6875 0 -5.515625 -1.671875q-1.8125 -1.671875 -1.8125 -5.140625l0 -10.234375l-5.484375 0l0 -2.84375l5.484375 0l0 -5.390625l3.40625 -0.875l0 6.265625l8.796875 0l0 2.84375l-8.796875 0l0 9.96875q0 2.109375 1.109375 3.15625q1.125 1.046875 3.3125 1.046875q0.9375 0 2.046875 -0.140625q1.125 -0.15625 2.328125 -0.46875l0 2.921875zm12.8828125 -16.515625l-5.8125 0l0 -2.8125l9.25 0l0 16.78125l5.828125 0l0 2.828125l-15.71875 0l0 -2.828125l6.453125 0l0 -13.96875zm1.1875 -11.03125q0.5625 0 1.046875 0.203125q0.5 0.203125 0.859375 0.578125q0.359375 0.359375 0.5625 0.84375q0.203125 0.484375 0.203125 1.046875q0 0.546875 -0.203125 1.03125q-0.203125 0.484375 -0.5625 0.859375q-0.359375 0.375 -0.859375 0.578125q-0.484375 0.203125 -1.046875 0.203125q-0.5625 0 -1.0625 -0.203125q-0.484375 -0.203125 -0.84375 -0.578125q-0.359375 -0.375 -0.5625 -0.859375q-0.203125 -0.484375 -0.203125 -1.03125q0 -0.5625 0.203125 -1.046875q0.203125 -0.484375 0.5625 -0.84375q0.359375 -0.375 0.84375 -0.578125q0.5 -0.203125 1.0625 -0.203125zm31.195312 17.859375q0 2.296875 -0.65625 4.203125q-0.640625 1.890625 -1.859375 3.25q-1.203125 1.359375 -2.9375 2.125q-1.734375 0.75 -3.953125 0.75q-2.109375 0 -3.78125 -0.65625q-1.65625 -0.65625 -2.828125 -1.921875q-1.15625 -1.28125 -1.78125 -3.15625q-0.609375 -1.875 -0.609375 -4.3125q0 -2.28125 0.640625 -4.171875q0.65625 -1.890625 1.859375 -3.234375q1.21875 -1.359375 2.953125 -2.109375q1.734375 -0.765625 3.9375 -0.765625q2.109375 0 3.78125 0.65625q1.671875 0.65625 2.828125 1.921875q1.171875 1.25 1.78125 3.125q0.625 1.875 0.625 4.296875zm-3.484375 0.15625q0 -1.8125 -0.40625 -3.171875q-0.390625 -1.359375 -1.140625 -2.265625q-0.734375 -0.90625 -1.796875 -1.359375q-1.0625 -0.46875 -2.375 -0.46875q-1.53125 0 -2.609375 0.609375q-1.078125 0.59375 -1.78125 1.59375q-0.6875 0.984375 -1.015625 2.3125q-0.3125 1.3125 -0.3125 2.75q0 1.828125 0.390625 3.203125q0.40625 1.359375 1.140625 2.265625q0.75 0.90625 1.796875 1.375q1.0625 0.453125 2.390625 0.453125q1.515625 0 2.59375 -0.59375q1.09375 -0.609375 1.78125 -1.59375q0.703125 -1.0 1.015625 -2.3125q0.328125 -1.328125 0.328125 -2.796875zm8.3984375 -9.796875l3.03125 0l0.140625 3.15625q0.859375 -1.015625 1.65625 -1.6875q0.796875 -0.671875 1.5625 -1.078125q0.78125 -0.40625 1.578125 -0.578125q0.796875 -0.171875 1.65625 -0.171875q3.03125 0 4.578125 1.796875q1.5625 1.78125 1.5625 5.375l0 12.796875l-3.40625 0l0 -12.515625q0 -2.3125 -0.859375 -3.40625q-0.859375 -1.109375 -2.546875 -1.109375q-0.625 0 -1.234375 0.1875q-0.59375 0.1875 -1.234375 0.640625q-0.640625 0.453125 -1.390625 1.234375q-0.75 0.78125 -1.6875 1.953125l0 13.015625l-3.40625 0l0 -19.609375zm29.710938 13.453125q0.65625 0 1.25 0.265625q0.609375 0.25 1.046875 0.703125q0.4375 0.4375 0.6875 1.03125q0.25 0.59375 0.25 1.28125q0 0.671875 -0.25 1.265625q-0.25 0.578125 -0.6875 1.015625q-0.4375 0.4375 -1.046875 0.6875q-0.59375 0.265625 -1.25 0.265625q-0.6875 0 -1.28125 -0.265625q-0.578125 -0.25 -1.015625 -0.6875q-0.4375 -0.4375 -0.703125 -1.015625q-0.25 -0.59375 -0.25 -1.265625q0 -0.6875 0.25 -1.28125q0.265625 -0.59375 0.703125 -1.03125q0.4375 -0.453125 1.015625 -0.703125q0.59375 -0.265625 1.28125 -0.265625zm31.351562 -3.8125q0 2.296875 -0.65625 4.203125q-0.640625 1.890625 -1.859375 3.25q-1.203125 1.359375 -2.9375 2.125q-1.734375 0.75 -3.953125 0.75q-2.109375 0 -3.78125 -0.65625q-1.65625 -0.65625 -2.828125 -1.921875q-1.15625 -1.28125 -1.78125 -3.15625q-0.609375 -1.875 -0.609375 -4.3125q0 -2.28125 0.640625 -4.171875q0.65625 -1.890625 1.859375 -3.234375q1.21875 -1.359375 2.953125 -2.109375q1.734375 -0.765625 3.9375 -0.765625q2.109375 0 3.78125 0.65625q1.671875 0.65625 2.828125 1.921875q1.171875 1.25 1.78125 3.125q0.625 1.875 0.625 4.296875zm-3.484375 0.15625q0 -1.8125 -0.40625 -3.171875q-0.390625 -1.359375 -1.140625 -2.265625q-0.734375 -0.90625 -1.796875 -1.359375q-1.0625 -0.46875 -2.375 -0.46875q-1.53125 0 -2.609375 0.609375q-1.078125 0.59375 -1.78125 1.59375q-0.6875 0.984375 -1.015625 2.3125q-0.3125 1.3125 -0.3125 2.75q0 1.828125 0.390625 3.203125q0.40625 1.359375 1.140625 2.265625q0.75 0.90625 1.796875 1.375q1.0625 0.453125 2.390625 0.453125q1.515625 0 2.59375 -0.59375q1.09375 -0.609375 1.78125 -1.59375q0.703125 -1.0 1.015625 -2.3125q0.328125 -1.328125 0.328125 -2.796875zm25.804688 -14.625q-2.671875 -0.5625 -4.609375 -0.5625q-4.59375 0 -4.59375 4.796875l0 3.4375l8.59375 0l0 2.84375l-8.59375 0l0 13.921875l-3.453125 0l0 -13.921875l-6.3125 0l0 -2.84375l6.3125 0l0 -3.234375q0 -7.828125 8.15625 -7.828125q2.03125 0 4.5 0.46875l0 2.921875zm-20.53125 4.828125l0 0zm42.523438 -4.828125q-2.671875 -0.5625 -4.609375 -0.5625q-4.59375 0 -4.59375 4.796875l0 3.4375l8.59375 0l0 2.84375l-8.59375 0l0 13.921875l-3.453125 0l0 -13.921875l-6.3125 0l0 -2.84375l6.3125 0l0 -3.234375q0 -7.828125 8.15625 -7.828125q2.03125 0 4.5 0.46875l0 2.921875zm-20.53125 4.828125l0 0zm41.679688 8.765625q0 0.71875 -0.015625 1.21875q-0.015625 0.484375 -0.0625 0.90625l-13.765625 0q0 3.015625 1.671875 4.625q1.6875 1.609375 4.84375 1.609375q0.859375 0 1.71875 -0.0625q0.859375 -0.078125 1.65625 -0.1875q0.8125 -0.125 1.546875 -0.265625q0.734375 -0.140625 1.359375 -0.328125l0 2.796875q-1.390625 0.390625 -3.140625 0.640625q-1.75 0.25 -3.625 0.25q-2.515625 0 -4.34375 -0.6875q-1.8125 -0.6875 -2.96875 -1.984375q-1.15625 -1.296875 -1.71875 -3.1875q-0.5625 -1.890625 -0.5625 -4.265625q0 -2.078125 0.59375 -3.921875q0.609375 -1.84375 1.75 -3.234375q1.140625 -1.40625 2.796875 -2.21875q1.65625 -0.828125 3.765625 -0.828125q2.0625 0 3.640625 0.65625q1.578125 0.640625 2.65625 1.828125q1.09375 1.171875 1.640625 2.859375q0.5625 1.6875 0.5625 3.78125zm-3.53125 -0.484375q0.0625 -1.3125 -0.25 -2.390625q-0.3125 -1.09375 -0.96875 -1.875q-0.65625 -0.78125 -1.640625 -1.21875q-0.96875 -0.4375 -2.265625 -0.4375q-1.109375 0 -2.03125 0.4375q-0.90625 0.421875 -1.578125 1.203125q-0.65625 0.78125 -1.078125 1.875q-0.40625 1.09375 -0.5 2.40625l10.3125 0zm9.7578125 -8.28125l3.109375 0l0.09375 3.609375q1.75 -2.09375 3.4375 -3.03125q1.6875 -0.9375 3.40625 -0.9375q3.0469055 0 4.6094055 1.984375q1.578125 1.96875 1.46875 5.859375l-3.4375 0q0.046875 -2.578125 -0.7656555 -3.734375q-0.796875 -1.171875 -2.359375 -1.171875q-0.6875 0 -1.390625 0.25q-0.6875 0.234375 -1.421875 0.78125q-0.734375 0.53125 -1.5625 1.375q-0.8125 0.828125 -1.75 2.03125l0 12.59375l-3.4375 0l0 -19.609375zm54.921906 27.8125q-9.0 -8.34375 -9.0 -18.4375q0 -2.359375 0.46875 -4.71875q0.484375 -2.359375 1.546875 -4.71875q1.078125 -2.359375 2.8125 -4.71875q1.75 -2.375 4.25 -4.6875l1.984375 2.0q-7.578125 7.484375 -7.578125 16.59375q0 4.53125 1.90625 8.71875q1.921875 4.171875 5.671875 7.875l-2.0625 2.09375zm234.17969 -37.28125q9.015625 8.328125 9.015625 18.546875q0 2.109375 -0.4375 4.375q-0.421875 2.265625 -1.46875 4.640625q-1.03125 2.375 -2.78125 4.8125q-1.75 2.453125 -4.40625 4.90625l-1.96875 -2.015625q3.8125 -3.765625 5.6875 -7.859375q1.875 -4.109375 1.875 -8.609375q0 -9.296875 -7.5625 -16.71875l2.046875 -2.078125z" fill-rule="nonzero"/></g></svg>