<svg version="1.1" viewBox="0.0 0.0 960.0 540.0" fill="none" stroke="none" stroke-linecap="square" stroke-miterlimit="10" xmlns:xlink="http://www.w3.org/1999/xlink" xmlns="http://www.w3.org/2000/svg"><clipPath id="g5ed11bc90c_1_124.0"><path d="m0 0l960.0 0l0 540.0l-960.0 0l0 -540.0z" clip-rule="nonzero"/></clipPath><g clip-path="url(#g5ed11bc90c_1_124.0)"><path fill="#2b2b2b" d="m0 0l960.0 0l0 540.0l-960.0 0z" fill-rule="evenodd"/><path fill="#000000" fill-opacity="0.0" d="m26.740158 110.67454l915.84515 0l0 177.95538l-915.84515 0z" fill-rule="evenodd"/><path stroke="#ff9900" stroke-width="4.0" stroke-linejoin="round" stroke-linecap="butt" d="m26.740158 110.67454l915.84515 0l0 177.95538l-915.84515 0z" fill-rule="evenodd"/><path fill="#000000" fill-opacity="0.0" d="m32.72441 46.721786l894.55115 0l0 60.125984l-894.55115 0z" fill-rule="evenodd"/><path fill="#ffffff" d="m44.16191 94.12178l0.609375 -32.406246l4.4375 0l5.71875 26.281246l5.75 -26.281246l4.40625 0l0.59375 32.406246l-3.640625 0l-0.359375 -23.515625l-5.46875 23.515625l-2.5625 0l-5.4375 -23.515625l-0.359375 23.515625l-3.6875 0zm32.52498 0.3125q-2.71875 0 -4.203125 -1.046875q-1.484375 -1.0625 -2.0625 -3.125q-0.578125 -2.0625 -0.578125 -5.0625l0 -5.28125q0 -3.078125 0.59375 -5.109375q0.609375 -2.046875 2.109375 -3.078125q1.5 -1.046875 4.140625 -1.046875q2.921875 0 4.296875 1.203125q1.375 1.1875 1.8125 3.453125q0.453125 2.265625 0.453125 5.421875l0 1.875l-9.125 0l0 4.640625q0 1.40625 0.25 2.28125q0.265625 0.875 0.84375 1.296875q0.59375 0.421875 1.5 0.421875q0.96875 0 1.46875 -0.453125q0.5 -0.46875 0.671875 -1.328125q0.1875 -0.859375 0.1875 -2.015625l0 -1.40625l4.15625 0l0 0.890625q0 3.46875 -1.484375 5.46875q-1.46875 2.0 -5.03125 2.0zm-2.5625 -14.109375l4.921875 0l0 -2.078125q0 -1.4375 -0.171875 -2.421875q-0.15625 -0.984375 -0.65625 -1.484375q-0.5 -0.5 -1.578125 -0.5q-1.03125 0 -1.578125 0.484375q-0.53125 0.484375 -0.734375 1.625q-0.203125 1.125 -0.203125 3.125l0 1.25zm18.355606 14.109375q-2.921875 0 -4.359375 -2.125q-1.4375 -2.140625 -1.4375 -7.265625l0 -4.484375q0 -2.640625 0.4375 -4.890625q0.4375 -2.265625 1.65625 -3.625q1.234375 -1.359375 3.59375 -1.359375q1.15625 0 2.109375 0.515625q0.96875 0.515625 1.71875 1.28125l0 -10.765621l4.28125 0l0 32.406246l-4.28125 0l0 -1.484375q-0.75 0.796875 -1.65625 1.296875q-0.890625 0.5 -2.0625 0.5zm1.078125 -3.359375q0.609375 0 1.28125 -0.21875q0.6875 -0.21875 1.359375 -0.65625l0 -15.15625q-0.546875 -0.40625 -1.234375 -0.703125q-0.6875 -0.296875 -1.484375 -0.296875q-1.46875 0 -2.0 1.421875q-0.515625 1.421875 -0.515625 3.421875l0 6.515625q0 1.59375 0.171875 2.90625q0.1875 1.296875 0.75 2.03125q0.5625 0.734375 1.671875 0.734375zm11.523727 3.046875l0 -23.125l4.28125 0l0 23.125l-4.28125 0zm0 -26.5625l0 -4.484371l4.28125 0l0 4.484371l-4.28125 0zm13.034988 26.875q-1.359375 0 -2.40625 -0.765625q-1.03125 -0.78125 -1.625 -2.0q-0.59375 -1.234375 -0.59375 -2.59375q0 -2.15625 0.71875 -3.625q0.71875 -1.484375 1.96875 -2.5q1.265625 -1.03125 2.921875 -1.78125q1.65625 -0.765625 3.5 -1.484375l0 -1.640625q0 -1.40625 -0.15625 -2.3125q-0.15625 -0.921875 -0.65625 -1.375q-0.5 -0.46875 -1.5 -0.46875q-0.890625 0 -1.4375 0.40625q-0.53125 0.390625 -0.765625 1.140625q-0.234375 0.734375 -0.234375 1.734375l0 1.15625l-4.25 -0.15625q0.078125 -3.84375 1.75 -5.65625q1.6875 -1.828125 5.21875 -1.828125q3.4375 0 4.875 1.875q1.4375 1.875 1.4375 5.4375l0 10.5625q0 1.078125 0.0625 2.078125q0.0625 1.0 0.15625 1.859375q0.109375 0.859375 0.1875 1.625l-3.921875 0q-0.125 -0.640625 -0.3125 -1.609375q-0.171875 -0.984375 -0.25 -1.796875q-0.40625 1.359375 -1.546875 2.546875q-1.140625 1.171875 -3.140625 1.171875zm1.6875 -3.671875q0.640625 0 1.203125 -0.359375q0.5625 -0.359375 1.0 -0.8125q0.4375 -0.46875 0.59375 -0.75l0 -6.5625q-1.0 0.5625 -1.875 1.125q-0.875 0.5625 -1.546875 1.1875q-0.65625 0.609375 -1.046875 1.390625q-0.375 0.78125 -0.375 1.78125q0 1.40625 0.515625 2.203125q0.53125 0.796875 1.53125 0.796875zm20.715591 3.359375l0 -32.406246l7.046875 0q3.59375 0 5.6875 1.109375q2.109375 1.09375 3.0 3.2968712q0.90625 2.203125 0.90625 5.484375l0 11.921875q0 3.4375 -0.90625 5.796875q-0.890625 2.359375 -2.921875 3.578125q-2.015625 1.21875 -5.40625 1.21875l-7.40625 0zm4.53125 -3.234375l2.546875 0q2.484375 0 3.515625 -0.953125q1.046875 -0.96875 1.265625 -2.8125q0.21875 -1.84375 0.21875 -4.4375l0 -10.515625q0 -2.53125 -0.328125 -4.078125q-0.3125 -1.5625 -1.390625 -2.28125q-1.078125 -0.734375 -3.390625 -0.734375l-2.4375 0l0 25.8125zm16.314362 3.234375l0 -23.125l4.28125 0l0 3.28125q1.28125 -2.109375 2.5625 -2.828125q1.28125 -0.734375 2.5625 -0.734375q0.15625 0 0.296875 0q0.140625 0 0.375 0.046875l0 4.71875q-0.484375 -0.203125 -1.109375 -0.34375q-0.609375 -0.140625 -1.25 -0.140625q-1.0 0 -1.828125 0.46875q-0.8125 0.453125 -1.609375 1.78125l0 16.875l-4.28125 0zm12.996231 0l0 -23.125l4.28125 0l0 23.125l-4.28125 0zm0 -26.5625l0 -4.484371l4.28125 0l0 4.484371l-4.28125 0zm11.878738 26.5625l-4.5625 -23.125l4.328125 0l2.84375 18.609375l2.875 -18.609375l4.15625 0l-4.390625 23.125l-5.25 0zm18.806229 0.3125q-2.71875 0 -4.203125 -1.046875q-1.484375 -1.0625 -2.0625 -3.125q-0.578125 -2.0625 -0.578125 -5.0625l0 -5.28125q0 -3.078125 0.59375 -5.109375q0.609375 -2.046875 2.109375 -3.078125q1.5 -1.046875 4.140625 -1.046875q2.921875 0 4.296875 1.203125q1.375 1.1875 1.8125 3.453125q0.453125 2.265625 0.453125 5.421875l0 1.875l-9.125 0l0 4.640625q0 1.40625 0.25 2.28125q0.265625 0.875 0.84375 1.296875q0.59375 0.421875 1.5 0.421875q0.96875 0 1.46875 -0.453125q0.5 -0.46875 0.671875 -1.328125q0.1875 -0.859375 0.1875 -2.015625l0 -1.40625l4.15625 0l0 0.890625q0 3.46875 -1.484375 5.46875q-1.46875 2.0 -5.03125 2.0zm-2.5625 -14.109375l4.921875 0l0 -2.078125q0 -1.4375 -0.171875 -2.421875q-0.15625 -0.984375 -0.65625 -1.484375q-0.5 -0.5 -1.578125 -0.5q-1.03125 0 -1.578125 0.484375q-0.53125 0.484375 -0.734375 1.625q-0.203125 1.125 -0.203125 3.125l0 1.25zm13.121231 13.796875l0 -23.125l4.28125 0l0 3.28125q1.28125 -2.109375 2.5625 -2.828125q1.28125 -0.734375 2.5625 -0.734375q0.15625 0 0.296875 0q0.140625 0 0.375 0.046875l0 4.71875q-0.484375 -0.203125 -1.109375 -0.34375q-0.609375 -0.140625 -1.25 -0.140625q-1.0 0 -1.828125 0.46875q-0.8125 0.453125 -1.609375 1.78125l0 16.875l-4.28125 0z" fill-rule="nonzero"/><path fill="#000000" fill-opacity="0.0" d="m38.666668 123.53543l783.33856 0l38.86615 38.86615l-38.86615 38.866135l-783.33856 0z" fill-rule="evenodd"/><path stroke="#ffff00" stroke-width="4.0" stroke-linejoin="round" stroke-linecap="butt" d="m38.666668 123.53543l783.33856 0l38.86615 38.86615l-38.86615 38.866135l-783.33856 0z" fill-rule="evenodd"/><path fill="#cc0000" d="m151.53018 142.35979l0 0c0 -5.534561 4.4866486 -10.02121 10.021194 -10.02121l63.894623 0c2.6577759 0 5.206711 1.0558014 7.0860443 2.9351501c1.8793488 1.8793335 2.9351501 4.4282684 2.9351501 7.0860596l0 40.083588c0 5.534546 -4.4866486 10.021194 -10.021194 10.021194l-63.894623 0c-5.534546 0 -10.021194 -4.4866486 -10.021194 -10.021194z" fill-rule="evenodd"/><path stroke="#9e9e9e" stroke-width="1.0" stroke-linejoin="round" stroke-linecap="butt" d="m151.53018 142.35979l0 0c0 -5.534561 4.4866486 -10.02121 10.021194 -10.02121l63.894623 0c2.6577759 0 5.206711 1.0558014 7.0860443 2.9351501c1.8793488 1.8793335 2.9351501 4.4282684 2.9351501 7.0860596l0 40.083588c0 5.534546 -4.4866486 10.021194 -10.021194 10.021194l-63.894623 0c-5.534546 0 -10.021194 -4.4866486 -10.021194 -10.021194z" fill-rule="evenodd"/><path fill="#ffffff" d="m187.58168 169.32158l-8.6875 0l0 -1.21875l4.578125 -5.09375q1.03125 -1.15625 1.40625 -1.875q0.390625 -0.734375 0.390625 -1.5q0 -1.046875 -0.625 -1.703125q-0.625 -0.671875 -1.671875 -0.671875q-1.265625 0 -1.96875 0.71875q-0.6875 0.71875 -0.6875 1.984375l-1.6875 0q0 -1.828125 1.171875 -2.953125q1.1875 -1.140625 3.171875 -1.140625q1.84375 0 2.921875 0.984375q1.078125 0.96875 1.078125 2.578125q0 1.953125 -2.5 4.65625l-3.546875 3.859375l6.65625 0l0 1.375zm10.100922 -5.65625q0 2.953125 -1.015625 4.40625q-1.015625 1.4375 -3.15625 1.4375q-2.125 0 -3.15625 -1.40625q-1.015625 -1.40625 -1.046875 -4.203125l0 -2.25q0 -2.9375 1.0 -4.359375q1.015625 -1.421875 3.1875 -1.421875q2.140625 0 3.140625 1.375q1.015625 1.375 1.046875 4.234375l0 2.1875zm-1.6875 -2.3125q0 -2.140625 -0.609375 -3.109375q-0.59375 -0.984375 -1.890625 -0.984375q-1.296875 0 -1.890625 0.984375q-0.59375 0.96875 -0.609375 2.984375l0 2.703125q0 2.140625 0.625 3.171875q0.625 1.03125 1.890625 1.03125q1.25 0 1.84375 -0.96875q0.609375 -0.96875 0.640625 -3.046875l0 -2.765625zm12.163422 2.3125q0 2.953125 -1.015625 4.40625q-1.015625 1.4375 -3.15625 1.4375q-2.125 0 -3.15625 -1.40625q-1.015625 -1.40625 -1.046875 -4.203125l0 -2.25q0 -2.9375 1.0 -4.359375q1.015625 -1.421875 3.1875 -1.421875q2.140625 0 3.140625 1.375q1.015625 1.375 1.046875 4.234375l0 2.1875zm-1.6875 -2.3125q0 -2.140625 -0.609375 -3.109375q-0.59375 -0.984375 -1.890625 -0.984375q-1.296875 0 -1.890625 0.984375q-0.59375 0.96875 -0.609375 2.984375l0 2.703125q0 2.140625 0.625 3.171875q0.625 1.03125 1.890625 1.03125q1.25 0 1.84375 -0.96875q0.609375 -0.96875 0.640625 -3.046875l0 -2.765625z" fill-rule="nonzero"/><path fill="#cc0000" d="m52.740158 142.35979l0 0c0 -5.534561 4.486641 -10.02121 10.021198 -10.02121l63.89461 0c2.6577835 0 5.2067184 1.0558014 7.086052 2.9351501c1.8793488 1.8793335 2.9351501 4.4282684 2.9351501 7.0860596l0 40.083588c0 5.534546 -4.4866486 10.021194 -10.021202 10.021194l-63.89461 0c-5.5345573 0 -10.021198 -4.4866486 -10.021198 -10.021194z" fill-rule="evenodd"/><path stroke="#9e9e9e" stroke-width="1.0" stroke-linejoin="round" stroke-linecap="butt" d="m52.740158 142.35979l0 0c0 -5.534561 4.486641 -10.02121 10.021198 -10.02121l63.89461 0c2.6577835 0 5.2067184 1.0558014 7.086052 2.9351501c1.8793488 1.8793335 2.9351501 4.4282684 2.9351501 7.0860596l0 40.083588c0 5.534546 -4.4866486 10.021194 -10.021202 10.021194l-63.89461 0c-5.5345573 0 -10.021198 -4.4866486 -10.021198 -10.021194z" fill-rule="evenodd"/><path fill="#ffffff" d="m85.63541 169.32158l-1.6875 0l0 -11.234375l-3.40625 1.25l0 -1.53125l4.828125 -1.8125l0.265625 0l0 13.328125zm13.257164 -5.65625q0 2.953125 -1.015625 4.40625q-1.015625 1.4375 -3.15625 1.4375q-2.125 0 -3.15625 -1.40625q-1.015625 -1.40625 -1.046875 -4.203125l0 -2.25q0 -2.9375 1.0 -4.359375q1.015625 -1.421875 3.1875 -1.421875q2.140625 0 3.140625 1.375q1.015625 1.375 1.046875 4.234375l0 2.1875zm-1.6875 -2.3125q0 -2.140625 -0.609375 -3.109375q-0.59375 -0.984375 -1.890625 -0.984375q-1.296875 0 -1.890625 0.984375q-0.59375 0.96875 -0.609375 2.984375l0 2.703125q0 2.140625 0.625 3.171875q0.625 1.03125 1.890625 1.03125q1.25 0 1.84375 -0.96875q0.609375 -0.96875 0.640625 -3.046875l0 -2.765625zm12.163422 2.3125q0 2.953125 -1.015625 4.40625q-1.015625 1.4375 -3.15625 1.4375q-2.125 0 -3.15625 -1.40625q-1.015625 -1.40625 -1.046875 -4.203125l0 -2.25q0 -2.9375 1.0 -4.359375q1.015625 -1.421875 3.1875 -1.421875q2.140625 0 3.140625 1.375q1.015625 1.375 1.046875 4.234375l0 2.1875zm-1.6875 -2.3125q0 -2.140625 -0.609375 -3.109375q-0.59375 -0.984375 -1.890625 -0.984375q-1.296875 0 -1.890625 0.984375q-0.59375 0.96875 -0.609375 2.984375l0 2.703125q0 2.140625 0.625 3.171875q0.625 1.03125 1.890625 1.03125q1.25 0 1.84375 -0.96875q0.609375 -0.96875 0.640625 -3.046875l0 -2.765625z" fill-rule="nonzero"/><path fill="#000000" fill-opacity="0.0" d="m905.4514 110.67454l37.13391 0l0 40.850395l-37.13391 0z" fill-rule="evenodd"/><path fill="#ffffff" d="m923.3108 134.1258l-5.546875 0l-1.25 3.46875l-1.8125 0l5.0625 -13.265633l1.53125 0l5.078125 13.265633l-1.796875 0l-1.265625 -3.46875zm-5.03125 -1.4375l4.515625 0l-2.265625 -6.2031326l-2.25 6.2031326z" fill-rule="nonzero"/><path fill="#000000" fill-opacity="0.0" d="m26.740158 350.18634l915.84515 0l0 171.67456l-915.84515 0z" fill-rule="evenodd"/><path stroke="#4a86e8" stroke-width="4.0" stroke-linejoin="round" stroke-linecap="butt" d="m26.740158 350.18634l915.84515 0l0 171.67456l-915.84515 0z" fill-rule="evenodd"/><path fill="#000000" fill-opacity="0.0" d="m905.4505 488.4357l37.13385 0l0 29.700775l-37.13385 0z" fill-rule="evenodd"/><path fill="#ffffff" d="m915.9974 515.3557l0 -13.2656555l4.328125 0q2.15625 0 3.25 0.890625q1.09375 0.890625 1.09375 2.640625q0 0.9375 -0.53125 1.65625q-0.53125 0.703125 -1.4375 1.09375q1.0625 0.3125 1.6875 1.15625q0.625 0.84375 0.625 2.0q0 1.7812805 -1.15625 2.8125305q-1.15625 1.015625 -3.265625 1.015625l-4.59375 0zm1.734375 -6.2031555l0 4.7656555l2.890625 0q1.21875 0 1.921875 -0.625q0.71875 -0.640625 0.71875 -1.7500305q0 -2.390625 -2.609375 -2.390625l-2.921875 0zm0 -1.40625l2.65625 0q1.140625 0 1.828125 -0.5625q0.6875 -0.578125 0.6875 -1.5625q0 -1.09375 -0.640625 -1.59375q-0.640625 -0.5 -1.9375 -0.5l-2.59375 0l0 4.21875z" fill-rule="nonzero"/><path fill="#000000" fill-opacity="0.0" d="m38.666668 433.97113l783.33856 0l38.86615 38.86615l-38.86615 38.86612l-783.33856 0z" fill-rule="evenodd"/><path stroke="#ffff00" stroke-width="4.0" stroke-linejoin="round" stroke-linecap="butt" d="m38.666668 433.97113l783.33856 0l38.86615 38.86615l-38.86615 38.86612l-783.33856 0z" fill-rule="evenodd"/><path fill="#cc0000" d="m151.53018 452.79547l0 0c0 -5.534546 4.4866486 -10.021179 10.021194 -10.021179l63.894623 0c2.6577759 0 5.206711 1.0557861 7.0860443 2.9351196c1.8793488 1.8793335 2.9351501 4.4282837 2.9351501 7.0860596l0 40.083588c0 5.534546 -4.4866486 10.02121 -10.021194 10.02121l-63.894623 0c-5.534546 0 -10.021194 -4.486664 -10.021194 -10.02121z" fill-rule="evenodd"/><path stroke="#9e9e9e" stroke-width="1.0" stroke-linejoin="round" stroke-linecap="butt" d="m151.53018 452.79547l0 0c0 -5.534546 4.4866486 -10.021179 10.021194 -10.021179l63.894623 0c2.6577759 0 5.206711 1.0557861 7.0860443 2.9351196c1.8793488 1.8793335 2.9351501 4.4282837 2.9351501 7.0860596l0 40.083588c0 5.534546 -4.4866486 10.02121 -10.021194 10.02121l-63.894623 0c-5.534546 0 -10.021194 -4.486664 -10.021194 -10.02121z" fill-rule="evenodd"/><path fill="#ffffff" d="m187.58168 479.75726l-8.6875 0l0 -1.21875l4.578125 -5.09375q1.03125 -1.15625 1.40625 -1.875q0.390625 -0.734375 0.390625 -1.5q0 -1.046875 -0.625 -1.703125q-0.625 -0.671875 -1.671875 -0.671875q-1.265625 0 -1.96875 0.71875q-0.6875 0.71875 -0.6875 1.984375l-1.6875 0q0 -1.828125 1.171875 -2.953125q1.1875 -1.140625 3.171875 -1.140625q1.84375 0 2.921875 0.984375q1.078125 0.96875 1.078125 2.578125q0 1.953125 -2.5 4.65625l-3.546875 3.859375l6.65625 0l0 1.375zm10.100922 -5.65625q0 2.953125 -1.015625 4.40625q-1.015625 1.4375 -3.15625 1.4375q-2.125 0 -3.15625 -1.40625q-1.015625 -1.40625 -1.046875 -4.203125l0 -2.25q0 -2.9375 1.0 -4.359375q1.015625 -1.421875 3.1875 -1.421875q2.140625 0 3.140625 1.375q1.015625 1.375 1.046875 4.234375l0 2.1875zm-1.6875 -2.3125q0 -2.140625 -0.609375 -3.109375q-0.59375 -0.984375 -1.890625 -0.984375q-1.296875 0 -1.890625 0.984375q-0.59375 0.96875 -0.609375 2.984375l0 2.703125q0 2.140625 0.625 3.171875q0.625 1.03125 1.890625 1.03125q1.25 0 1.84375 -0.96875q0.609375 -0.96875 0.640625 -3.046875l0 -2.765625zm12.163422 2.3125q0 2.953125 -1.015625 4.40625q-1.015625 1.4375 -3.15625 1.4375q-2.125 0 -3.15625 -1.40625q-1.015625 -1.40625 -1.046875 -4.203125l0 -2.25q0 -2.9375 1.0 -4.359375q1.015625 -1.421875 3.1875 -1.421875q2.140625 0 3.140625 1.375q1.015625 1.375 1.046875 4.234375l0 2.1875zm-1.6875 -2.3125q0 -2.140625 -0.609375 -3.109375q-0.59375 -0.984375 -1.890625 -0.984375q-1.296875 0 -1.890625 0.984375q-0.59375 0.96875 -0.609375 2.984375l0 2.703125q0 2.140625 0.625 3.171875q0.625 1.03125 1.890625 1.03125q1.25 0 1.84375 -0.96875q0.609375 -0.96875 0.640625 -3.046875l0 -2.765625z" fill-rule="nonzero"/><path fill="#cc0000" d="m52.740158 452.79547l0 0c0 -5.534546 4.486641 -10.021179 10.021198 -10.021179l63.89461 0c2.6577835 0 5.2067184 1.0557861 7.086052 2.9351196c1.8793488 1.8793335 2.9351501 4.4282837 2.9351501 7.0860596l0 40.083588c0 5.534546 -4.4866486 10.02121 -10.021202 10.02121l-63.89461 0c-5.5345573 0 -10.021198 -4.486664 -10.021198 -10.02121z" fill-rule="evenodd"/><path stroke="#9e9e9e" stroke-width="1.0" stroke-linejoin="round" stroke-linecap="butt" d="m52.740158 452.79547l0 0c0 -5.534546 4.486641 -10.021179 10.021198 -10.021179l63.89461 0c2.6577835 0 5.2067184 1.0557861 7.086052 2.9351196c1.8793488 1.8793335 2.9351501 4.4282837 2.9351501 7.0860596l0 40.083588c0 5.534546 -4.4866486 10.02121 -10.021202 10.02121l-63.89461 0c-5.5345573 0 -10.021198 -4.486664 -10.021198 -10.02121z" fill-rule="evenodd"/><path fill="#ffffff" d="m85.63541 479.75726l-1.6875 0l0 -11.234375l-3.40625 1.25l0 -1.53125l4.828125 -1.8125l0.265625 0l0 13.328125zm13.257164 -5.65625q0 2.953125 -1.015625 4.40625q-1.015625 1.4375 -3.15625 1.4375q-2.125 0 -3.15625 -1.40625q-1.015625 -1.40625 -1.046875 -4.203125l0 -2.25q0 -2.9375 1.0 -4.359375q1.015625 -1.421875 3.1875 -1.421875q2.140625 0 3.140625 1.375q1.015625 1.375 1.046875 4.234375l0 2.1875zm-1.6875 -2.3125q0 -2.140625 -0.609375 -3.109375q-0.59375 -0.984375 -1.890625 -0.984375q-1.296875 0 -1.890625 0.984375q-0.59375 0.96875 -0.609375 2.984375l0 2.703125q0 2.140625 0.625 3.171875q0.625 1.03125 1.890625 1.03125q1.25 0 1.84375 -0.96875q0.609375 -0.96875 0.640625 -3.046875l0 -2.765625zm12.163422 2.3125q0 2.953125 -1.015625 4.40625q-1.015625 1.4375 -3.15625 1.4375q-2.125 0 -3.15625 -1.40625q-1.015625 -1.40625 -1.046875 -4.203125l0 -2.25q0 -2.9375 1.0 -4.359375q1.015625 -1.421875 3.1875 -1.421875q2.140625 0 3.140625 1.375q1.015625 1.375 1.046875 4.234375l0 2.1875zm-1.6875 -2.3125q0 -2.140625 -0.609375 -3.109375q-0.59375 -0.984375 -1.890625 -0.984375q-1.296875 0 -1.890625 0.984375q-0.59375 0.96875 -0.609375 2.984375l0 2.703125q0 2.140625 0.625 3.171875q0.625 1.03125 1.890625 1.03125q1.25 0 1.84375 -0.96875q0.609375 -0.96875 0.640625 -3.046875l0 -2.765625z" fill-rule="nonzero"/><path fill="#cae682" d="m84.86614 392.47916l0 0c0 -19.82135 16.068398 -35.88977 35.889763 -35.88977l159.55907 0c9.518555 0 18.647247 3.78125 25.3779 10.511871c6.7306213 6.730652 10.511841 15.8593445 10.511841 25.3779l0 0l0 0c0 19.82138 -16.06839 35.88977 -35.88974 35.88977l-159.55907 0c-19.821365 0 -35.889763 -16.06839 -35.889763 -35.88977z" fill-rule="evenodd"/><path fill="#000000" d="m170.15479 394.5398l-2.171875 0l0 4.859375l-2.734375 0l0 -13.265625l4.921875 0q2.359375 0 3.625 1.046875q1.28125 1.046875 1.28125 2.96875q0 1.359375 -0.59375 2.265625q-0.578125 0.90625 -1.78125 1.4375l2.875 5.421875l0 0.125l-2.9375 0l-2.484375 -4.859375zm-2.171875 -2.203125l2.203125 0q1.03125 0 1.59375 -0.515625q0.5625 -0.53125 0.5625 -1.453125q0 -0.9375 -0.53125 -1.46875q-0.53125 -0.546875 -1.640625 -0.546875l-2.1875 0l0 3.984375zm13.531113 7.25q-2.171875 0 -3.53125 -1.328125q-1.359375 -1.34375 -1.359375 -3.546875l0 -0.265625q0 -1.484375 0.5625 -2.640625q0.578125 -1.171875 1.625 -1.796875q1.0625 -0.640625 2.40625 -0.640625q2.03125 0 3.1875 1.28125q1.15625 1.265625 1.15625 3.609375l0 1.0625l-6.265625 0q0.125 0.96875 0.765625 1.5625q0.640625 0.578125 1.625 0.578125q1.515625 0 2.375 -1.109375l1.296875 1.453125q-0.59375 0.84375 -1.609375 1.3125q-1.0 0.46875 -2.234375 0.46875zm-0.296875 -8.09375q-0.78125 0 -1.28125 0.53125q-0.484375 0.53125 -0.609375 1.515625l3.65625 0l0 -0.21875q-0.015625 -0.875 -0.484375 -1.34375q-0.453125 -0.484375 -1.28125 -0.484375zm9.943588 5.96875q0.734375 0 1.1875 -0.390625q0.453125 -0.40625 0.46875 -1.078125l2.46875 0q0 1.0 -0.546875 1.84375q-0.53125 0.828125 -1.46875 1.296875q-0.9375 0.453125 -2.0625 0.453125q-2.109375 0 -3.34375 -1.34375q-1.21875 -1.34375 -1.21875 -3.71875l0 -0.171875q0 -2.28125 1.21875 -3.625q1.21875 -1.359375 3.328125 -1.359375q1.84375 0 2.953125 1.046875q1.125 1.046875 1.140625 2.796875l-2.46875 0q-0.015625 -0.765625 -0.46875 -1.234375q-0.453125 -0.484375 -1.203125 -0.484375q-0.921875 0 -1.390625 0.671875q-0.46875 0.671875 -0.46875 2.171875l0 0.265625q0 1.53125 0.453125 2.203125q0.46875 0.65625 1.421875 0.65625zm10.166443 2.125q-2.171875 0 -3.53125 -1.328125q-1.359375 -1.34375 -1.359375 -3.546875l0 -0.265625q0 -1.484375 0.5625 -2.640625q0.578125 -1.171875 1.625 -1.796875q1.0625 -0.640625 2.40625 -0.640625q2.03125 0 3.1875 1.28125q1.15625 1.265625 1.15625 3.609375l0 1.0625l-6.265625 0q0.125 0.96875 0.765625 1.5625q0.640625 0.578125 1.625 0.578125q1.515625 0 2.375 -1.109375l1.296875 1.453125q-0.59375 0.84375 -1.609375 1.3125q-1.0 0.46875 -2.234375 0.46875zm-0.296875 -8.09375q-0.78125 0 -1.28125 0.53125q-0.484375 0.53125 -0.609375 1.515625l3.65625 0l0 -0.21875q-0.015625 -0.875 -0.484375 -1.34375q-0.453125 -0.484375 -1.28125 -0.484375zm8.631088 7.90625l-2.65625 0l0 -9.859375l2.65625 0l0 9.859375zm-2.796875 -12.40625q0 -0.59375 0.390625 -0.96875q0.390625 -0.390625 1.078125 -0.390625q0.671875 0 1.0625 0.390625q0.40625 0.375 0.40625 0.96875q0 0.59375 -0.40625 0.984375q-0.390625 0.375 -1.0625 0.375q-0.671875 0 -1.078125 -0.375q-0.390625 -0.390625 -0.390625 -0.984375zm8.649582 9.1875l1.828125 -6.640625l2.75 0l-3.328125 9.859375l-2.515625 0l-3.3125 -9.859375l2.75 0l1.828125 6.640625zm10.153595 3.40625q-2.171875 0 -3.53125 -1.328125q-1.359375 -1.34375 -1.359375 -3.546875l0 -0.265625q0 -1.484375 0.5625 -2.640625q0.578125 -1.171875 1.625 -1.796875q1.0625 -0.640625 2.40625 -0.640625q2.03125 0 3.1875 1.28125q1.15625 1.265625 1.15625 3.609375l0 1.0625l-6.265625 0q0.125 0.96875 0.765625 1.5625q0.640625 0.578125 1.625 0.578125q1.515625 0 2.375 -1.109375l1.296875 1.453125q-0.59375 0.84375 -1.609375 1.3125q-1.0 0.46875 -2.234375 0.46875zm-0.296875 -8.09375q-0.78125 0 -1.28125 0.53125q-0.484375 0.53125 -0.609375 1.515625l3.65625 0l0 -0.21875q-0.015625 -0.875 -0.484375 -1.34375q-0.453125 -0.484375 -1.28125 -0.484375zm11.3811035 0.515625q-0.53125 -0.0625 -0.9375 -0.0625q-1.5 0 -1.96875 1.0l0 6.453125l-2.625 0l0 -9.859375l2.484375 0l0.078125 1.171875q0.78125 -1.34375 2.1875 -1.34375q0.4375 0 0.828125 0.109375l-0.046875 2.53125z" fill-rule="nonzero"/><path fill="#cae682" d="m84.86614 245.62335l0 0c0 -19.934433 16.16005 -36.094482 36.09449 -36.094482l159.1496 0c9.572845 0 18.753632 3.8027954 25.522675 10.571823c6.7690125 6.769043 10.571808 15.949814 10.571808 25.52266l0 0l0 0c0 19.934448 -16.160034 36.094482 -36.094482 36.094482l-159.1496 0c-19.93444 0 -36.09449 -16.160034 -36.09449 -36.094482z" fill-rule="evenodd"/><path fill="#000000" d="m178.89642 249.05898q0 -0.765625 -0.546875 -1.171875q-0.546875 -0.421875 -1.96875 -0.875q-1.421875 -0.46875 -2.25 -0.921875q-2.265625 -1.21875 -2.265625 -3.28125q0 -1.078125 0.609375 -1.921875q0.609375 -0.84375 1.734375 -1.3125q1.140625 -0.484375 2.5625 -0.484375q1.40625 0 2.515625 0.515625q1.125 0.515625 1.734375 1.453125q0.609375 0.9375 0.609375 2.140625l-2.71875 0q0 -0.90625 -0.578125 -1.40625q-0.578125 -0.515625 -1.609375 -0.515625q-1.015625 0 -1.578125 0.421875q-0.546875 0.421875 -0.546875 1.109375q0 0.65625 0.65625 1.09375q0.65625 0.4375 1.921875 0.8125q2.328125 0.703125 3.390625 1.75q1.0625 1.03125 1.0625 2.578125q0 1.71875 -1.296875 2.703125q-1.296875 0.984375 -3.5 0.984375q-1.53125 0 -2.796875 -0.5625q-1.25 -0.5625 -1.921875 -1.53125q-0.65625 -0.984375 -0.65625 -2.265625l2.75 0q0 2.1875 2.625 2.1875q0.96875 0 1.515625 -0.390625q0.546875 -0.390625 0.546875 -1.109375zm8.953232 3.671875q-2.171875 0 -3.53125 -1.328125q-1.359375 -1.34375 -1.359375 -3.546875l0 -0.265625q0 -1.484375 0.5625 -2.640625q0.578125 -1.171875 1.625 -1.796875q1.0625 -0.640625 2.40625 -0.640625q2.03125 0 3.1875 1.28125q1.15625 1.265625 1.15625 3.609375l0 1.0625l-6.265625 0q0.125 0.96875 0.765625 1.5625q0.640625 0.578125 1.625 0.578125q1.515625 0 2.375 -1.109375l1.296875 1.453125q-0.59375 0.84375 -1.609375 1.3125q-1.0 0.46875 -2.234375 0.46875zm-0.296875 -8.09375q-0.78125 0 -1.28125 0.53125q-0.484375 0.53125 -0.609375 1.515625l3.65625 0l0 -0.21875q-0.015625 -0.875 -0.484375 -1.34375q-0.453125 -0.484375 -1.28125 -0.484375zm8.271713 -1.953125l0.078125 1.140625q1.0625 -1.3125 2.828125 -1.3125q1.578125 0 2.34375 0.921875q0.765625 0.90625 0.78125 2.734375l0 6.375l-2.640625 0l0 -6.296875q0 -0.84375 -0.359375 -1.21875q-0.359375 -0.375 -1.21875 -0.375q-1.109375 0 -1.65625 0.9375l0 6.953125l-2.640625 0l0 -9.859375l2.484375 0zm7.604843 4.859375q0 -2.3125 1.03125 -3.671875q1.046875 -1.359375 2.84375 -1.359375q1.4375 0 2.375 1.0625l0 -5.03125l2.640625 0l0 14.0l-2.375 0l-0.125 -1.046875q-0.984375 1.234375 -2.53125 1.234375q-1.75 0 -2.8125 -1.375q-1.046875 -1.375 -1.046875 -3.8125zm2.640625 0.1875q0 1.390625 0.484375 2.125q0.484375 0.734375 1.40625 0.734375q1.21875 0 1.71875 -1.03125l0 -3.890625q-0.5 -1.015625 -1.703125 -1.015625q-1.90625 0 -1.90625 3.078125zm12.82486 5.0q-2.171875 0 -3.53125 -1.328125q-1.359375 -1.34375 -1.359375 -3.546875l0 -0.265625q0 -1.484375 0.5625 -2.640625q0.578125 -1.171875 1.625 -1.796875q1.0625 -0.640625 2.40625 -0.640625q2.03125 0 3.1875 1.28125q1.15625 1.265625 1.15625 3.609375l0 1.0625l-6.265625 0q0.125 0.96875 0.765625 1.5625q0.640625 0.578125 1.625 0.578125q1.515625 0 2.375 -1.109375l1.296875 1.453125q-0.59375 0.84375 -1.609375 1.3125q-1.0 0.46875 -2.234375 0.46875zm-0.296875 -8.09375q-0.78125 0 -1.28125 0.53125q-0.484375 0.53125 -0.609375 1.515625l3.65625 0l0 -0.21875q-0.015625 -0.875 -0.484375 -1.34375q-0.453125 -0.484375 -1.28125 -0.484375zm11.381073 0.515625q-0.53125 -0.0625 -0.9375 -0.0625q-1.5 0 -1.96875 1.0l0 6.453125l-2.625 0l0 -9.859375l2.484375 0l0.078125 1.171875q0.78125 -1.34375 2.1875 -1.34375q0.4375 0 0.828125 0.109375l-0.046875 2.53125z" fill-rule="nonzero"/><path fill="#cae682" d="m334.09973 392.06042l0 0c0 -19.82135 16.06839 -35.88977 35.88977 -35.88977l159.55908 0c9.518555 0 18.647217 3.78125 25.377869 10.511871c6.730652 6.730652 10.511841 15.8593445 10.511841 25.3779l0 0l0 0c0 19.82138 -16.06836 35.88977 -35.88971 35.88977l-159.55908 0c-19.82138 0 -35.88977 -16.06839 -35.88977 -35.88977z" fill-rule="evenodd"/><path fill="#000000" d="m417.72836 394.55856q-0.15625 2.140625 -1.578125 3.375q-1.421875 1.234375 -3.75 1.234375q-2.5625 0 -4.03125 -1.71875q-1.453125 -1.71875 -1.453125 -4.71875l0 -0.8125q0 -1.90625 0.671875 -3.359375q0.671875 -1.46875 1.921875 -2.25q1.265625 -0.78125 2.921875 -0.78125q2.296875 0 3.6875 1.234375q1.40625 1.234375 1.625 3.453125l-2.734375 0q-0.09375 -1.28125 -0.71875 -1.859375q-0.609375 -0.578125 -1.859375 -0.578125q-1.375 0 -2.046875 0.984375q-0.671875 0.96875 -0.703125 3.03125l0 1.0q0 2.15625 0.65625 3.15625q0.65625 0.984375 2.0625 0.984375q1.265625 0 1.875 -0.578125q0.625 -0.578125 0.71875 -1.796875l2.734375 0zm1.2067261 -0.59375q0 -1.46875 0.5625 -2.609375q0.578125 -1.15625 1.640625 -1.78125q1.0625 -0.625 2.453125 -0.625q2.0 0 3.265625 1.21875q1.265625 1.21875 1.40625 3.3125l0.015625 0.671875q0 2.265625 -1.265625 3.640625q-1.265625 1.375 -3.40625 1.375q-2.125 0 -3.40625 -1.359375q-1.265625 -1.375 -1.265625 -3.734375l0 -0.109375zm2.640625 0.1875q0 1.40625 0.53125 2.15625q0.53125 0.734375 1.515625 0.734375q0.953125 0 1.484375 -0.734375q0.546875 -0.734375 0.546875 -2.34375q0 -1.375 -0.546875 -2.125q-0.53125 -0.765625 -1.515625 -0.765625q-0.953125 0 -1.484375 0.75q-0.53125 0.75 -0.53125 2.328125zm10.751923 -5.03125l0.078125 1.140625q1.0625 -1.3125 2.828125 -1.3125q1.578125 0 2.34375 0.921875q0.765625 0.90625 0.78125 2.734375l0 6.375l-2.640625 0l0 -6.296875q0 -0.84375 -0.359375 -1.21875q-0.359375 -0.375 -1.21875 -0.375q-1.109375 0 -1.65625 0.9375l0 6.953125l-2.640625 0l0 -9.859375l2.484375 0zm7.6048584 4.859375q0 -2.3125 1.03125 -3.671875q1.046875 -1.359375 2.84375 -1.359375q1.4375 0 2.375 1.0625l0 -5.03125l2.640625 0l0 14.0l-2.375 0l-0.125 -1.046875q-0.984375 1.234375 -2.53125 1.234375q-1.75 0 -2.8125 -1.375q-1.046875 -1.375 -1.046875 -3.8125zm2.640625 0.1875q0 1.390625 0.484375 2.125q0.484375 0.734375 1.40625 0.734375q1.21875 0 1.71875 -1.03125l0 -3.890625q-0.5 -1.015625 -1.703125 -1.015625q-1.90625 0 -1.90625 3.078125zm14.19986 3.8125q-0.984375 1.1875 -2.703125 1.1875q-1.59375 0 -2.421875 -0.90625q-0.828125 -0.921875 -0.84375 -2.671875l0 -6.46875l2.625 0l0 6.375q0 1.53125 1.40625 1.53125q1.34375 0 1.84375 -0.921875l0 -6.984375l2.640625 0l0 9.859375l-2.484375 0l-0.0625 -1.0zm8.626984 -0.9375q0.734375 0 1.1875 -0.390625q0.453125 -0.40625 0.46875 -1.078125l2.46875 0q0 1.0 -0.546875 1.84375q-0.53125 0.828125 -1.46875 1.296875q-0.9375 0.453125 -2.0625 0.453125q-2.109375 0 -3.34375 -1.34375q-1.21875 -1.34375 -1.21875 -3.71875l0 -0.171875q0 -2.28125 1.21875 -3.625q1.21875 -1.359375 3.328125 -1.359375q1.84375 0 2.953125 1.046875q1.125 1.046875 1.140625 2.796875l-2.46875 0q-0.015625 -0.765625 -0.46875 -1.234375q-0.453125 -0.484375 -1.203125 -0.484375q-0.921875 0 -1.390625 0.671875q-0.46875 0.671875 -0.46875 2.171875l0 0.265625q0 1.53125 0.453125 2.203125q0.46875 0.65625 1.421875 0.65625zm8.775787 -10.34375l0 2.421875l1.6875 0l0 1.9375l-1.6875 0l0 4.921875q0 0.546875 0.203125 0.78125q0.21875 0.234375 0.8125 0.234375q0.4375 0 0.78125 -0.0625l0 2.0q-0.78125 0.234375 -1.59375 0.234375q-2.7812195 0 -2.8280945 -2.796875l0 -5.3125l-1.4375 0l0 -1.9375l1.4375 0l0 -2.421875l2.6249695 0zm2.4678345 7.265625q0 -1.46875 0.5625 -2.609375q0.578125 -1.15625 1.640625 -1.78125q1.0625 -0.625 2.453125 -0.625q2.0 0 3.265625 1.21875q1.265625 1.21875 1.40625 3.3125l0.015625 0.671875q0 2.265625 -1.265625 3.640625q-1.265625 1.375 -3.40625 1.375q-2.125 0 -3.40625 -1.359375q-1.265625 -1.375 -1.265625 -3.734375l0 -0.109375zm2.640625 0.1875q0 1.40625 0.53125 2.15625q0.53125 0.734375 1.515625 0.734375q0.953125 0 1.484375 -0.734375q0.546875 -0.734375 0.546875 -2.34375q0 -1.375 -0.546875 -2.125q-0.53125 -0.765625 -1.515625 -0.765625q-0.953125 0 -1.484375 0.75q-0.53125 0.75 -0.53125 2.328125zm13.861298 -2.5625q-0.53125 -0.0625 -0.9375 -0.0625q-1.5 0 -1.96875 1.0l0 6.453125l-2.625 0l0 -9.859375l2.484375 0l0.078125 1.171875q0.78125 -1.34375 2.1875 -1.34375q0.4375 0 0.828125 0.109375l-0.046875 2.53125z" fill-rule="nonzero"/><path fill="#cae682" d="m334.09973 245.2021l0 0c0 -19.934433 16.160065 -36.094498 36.094482 -36.094498l159.1496 0c9.572876 0 18.753662 3.8028107 25.522705 10.571838c6.768982 6.7690277 10.571777 15.949799 10.571777 25.52266l0 0l0 0c0 19.934433 -16.160034 36.094498 -36.094482 36.094498l-159.1496 0c-19.934418 0 -36.094482 -16.160065 -36.094482 -36.094498z" fill-rule="evenodd"/><path fill="#000000" d="m417.72836 247.70023q-0.15625 2.140625 -1.578125 3.375q-1.421875 1.234375 -3.75 1.234375q-2.5625 0 -4.03125 -1.71875q-1.453125 -1.71875 -1.453125 -4.71875l0 -0.8125q0 -1.90625 0.671875 -3.359375q0.671875 -1.46875 1.921875 -2.25q1.265625 -0.78125 2.921875 -0.78125q2.296875 0 3.6875 1.234375q1.40625 1.234375 1.625 3.453125l-2.734375 0q-0.09375 -1.28125 -0.71875 -1.859375q-0.609375 -0.578125 -1.859375 -0.578125q-1.375 0 -2.046875 0.984375q-0.671875 0.96875 -0.703125 3.03125l0 1.0q0 2.15625 0.65625 3.15625q0.65625 0.984375 2.0625 0.984375q1.265625 0 1.875 -0.578125q0.625 -0.578125 0.71875 -1.796875l2.734375 0zm1.2067261 -0.59375q0 -1.46875 0.5625 -2.609375q0.578125 -1.15625 1.640625 -1.78125q1.0625 -0.625 2.453125 -0.625q2.0 0 3.265625 1.21875q1.265625 1.21875 1.40625 3.3125l0.015625 0.671875q0 2.265625 -1.265625 3.640625q-1.265625 1.375 -3.40625 1.375q-2.125 0 -3.40625 -1.359375q-1.265625 -1.375 -1.265625 -3.734375l0 -0.109375zm2.640625 0.1875q0 1.40625 0.53125 2.15625q0.53125 0.734375 1.515625 0.734375q0.953125 0 1.484375 -0.734375q0.546875 -0.734375 0.546875 -2.34375q0 -1.375 -0.546875 -2.125q-0.53125 -0.765625 -1.515625 -0.765625q-0.953125 0 -1.484375 0.75q-0.53125 0.75 -0.53125 2.328125zm10.751923 -5.03125l0.078125 1.140625q1.0625 -1.3125 2.828125 -1.3125q1.578125 0 2.34375 0.921875q0.765625 0.90625 0.78125 2.734375l0 6.375l-2.640625 0l0 -6.296875q0 -0.84375 -0.359375 -1.21875q-0.359375 -0.375 -1.21875 -0.375q-1.109375 0 -1.65625 0.9375l0 6.953125l-2.640625 0l0 -9.859375l2.484375 0zm7.6048584 4.859375q0 -2.3125 1.03125 -3.671875q1.046875 -1.359375 2.84375 -1.359375q1.4375 0 2.375 1.0625l0 -5.03125l2.640625 0l0 14.0l-2.375 0l-0.125 -1.046875q-0.984375 1.234375 -2.53125 1.234375q-1.75 0 -2.8125 -1.375q-1.046875 -1.375 -1.046875 -3.8125zm2.640625 0.1875q0 1.390625 0.484375 2.125q0.484375 0.734375 1.40625 0.734375q1.21875 0 1.71875 -1.03125l0 -3.890625q-0.5 -1.015625 -1.703125 -1.015625q-1.90625 0 -1.90625 3.078125zm14.19986 3.8125q-0.984375 1.1875 -2.703125 1.1875q-1.59375 0 -2.421875 -0.90625q-0.828125 -0.921875 -0.84375 -2.671875l0 -6.46875l2.625 0l0 6.375q0 1.53125 1.40625 1.53125q1.34375 0 1.84375 -0.921875l0 -6.984375l2.640625 0l0 9.859375l-2.484375 0l-0.0625 -1.0zm8.626984 -0.9375q0.734375 0 1.1875 -0.390625q0.453125 -0.40625 0.46875 -1.078125l2.46875 0q0 1.0 -0.546875 1.84375q-0.53125 0.828125 -1.46875 1.296875q-0.9375 0.453125 -2.0625 0.453125q-2.109375 0 -3.34375 -1.34375q-1.21875 -1.34375 -1.21875 -3.71875l0 -0.171875q0 -2.28125 1.21875 -3.625q1.21875 -1.359375 3.328125 -1.359375q1.84375 0 2.953125 1.046875q1.125 1.046875 1.140625 2.796875l-2.46875 0q-0.015625 -0.765625 -0.46875 -1.234375q-0.453125 -0.484375 -1.203125 -0.484375q-0.921875 0 -1.390625 0.671875q-0.46875 0.671875 -0.46875 2.171875l0 0.265625q0 1.53125 0.453125 2.203125q0.46875 0.65625 1.421875 0.65625zm8.775818 -10.34375l0 2.421875l1.6875 0l0 1.9375l-1.6875 0l0 4.921875q0 0.546875 0.203125 0.78125q0.21875 0.234375 0.8125 0.234375q0.4375 0 0.78125 -0.0625l0 2.0q-0.78125 0.234375 -1.59375 0.234375q-2.78125 0 -2.828125 -2.796875l0 -5.3125l-1.4375 0l0 -1.9375l1.4375 0l0 -2.421875l2.625 0zm2.4678345 7.265625q0 -1.46875 0.5625 -2.609375q0.578125 -1.15625 1.640625 -1.78125q1.0625 -0.625 2.453125 -0.625q2.0 0 3.265625 1.21875q1.265625 1.21875 1.40625 3.3125l0.015625 0.671875q0 2.265625 -1.265625 3.640625q-1.265625 1.375 -3.40625 1.375q-2.125 0 -3.40625 -1.359375q-1.265625 -1.375 -1.265625 -3.734375l0 -0.109375zm2.640625 0.1875q0 1.40625 0.53125 2.15625q0.53125 0.734375 1.515625 0.734375q0.953125 0 1.484375 -0.734375q0.546875 -0.734375 0.546875 -2.34375q0 -1.375 -0.546875 -2.125q-0.53125 -0.765625 -1.515625 -0.765625q-0.953125 0 -1.484375 0.75q-0.53125 0.75 -0.53125 2.328125zm13.861298 -2.5625q-0.53125 -0.0625 -0.9375 -0.0625q-1.5 0 -1.96875 1.0l0 6.453125l-2.625 0l0 -9.859375l2.484375 0l0.078125 1.171875q0.78125 -1.34375 2.1875 -1.34375q0.4375 0 0.828125 0.109375l-0.046875 2.53125z" fill-rule="nonzero"/><path fill="#cae682" d="m583.3333 392.06042l0 0c0 -19.82135 16.06842 -35.88977 35.88977 -35.88977l159.55908 0c9.518555 0 18.647217 3.78125 25.377869 10.511871c6.730652 6.730652 10.511902 15.8593445 10.511902 25.3779l0 0l0 0c0 19.82138 -16.06842 35.88977 -35.88977 35.88977l-159.55908 0c-19.82135 0 -35.88977 -16.06839 -35.88977 -35.88977z" fill-rule="evenodd"/><path fill="#000000" d="m677.3636 395.49606q0 -0.765625 -0.546875 -1.171875q-0.546875 -0.421875 -1.96875 -0.875q-1.421875 -0.46875 -2.25 -0.921875q-2.265625 -1.21875 -2.265625 -3.28125q0 -1.078125 0.609375 -1.921875q0.609375 -0.84375 1.734375 -1.3125q1.140625 -0.484375 2.5625 -0.484375q1.40625 0 2.515625 0.515625q1.125 0.515625 1.734375 1.453125q0.609375 0.9375 0.609375 2.140625l-2.71875 0q0 -0.90625 -0.578125 -1.40625q-0.578125 -0.515625 -1.609375 -0.515625q-1.015625 0 -1.578125 0.421875q-0.546875 0.421875 -0.546875 1.109375q0 0.65625 0.65625 1.09375q0.65625 0.4375 1.921875 0.8125q2.328125 0.703125 3.390625 1.75q1.0625 1.03125 1.0625 2.578125q0 1.71875 -1.296875 2.703125q-1.296875 0.984375 -3.5 0.984375q-1.53125 0 -2.796875 -0.5625q-1.25 -0.5625 -1.921875 -1.53125q-0.65625 -0.984375 -0.65625 -2.265625l2.75 0q0 2.1875 2.625 2.1875q0.96875 0 1.515625 -0.390625q0.546875 -0.390625 0.546875 -1.109375zm8.953247 3.671875q-2.171875 0 -3.53125 -1.328125q-1.359375 -1.34375 -1.359375 -3.546875l0 -0.265625q0 -1.484375 0.5625 -2.640625q0.578125 -1.171875 1.625 -1.796875q1.0625 -0.640625 2.40625 -0.640625q2.03125 0 3.1875 1.28125q1.15625 1.265625 1.15625 3.609375l0 1.0625l-6.265625 0q0.125 0.96875 0.765625 1.5625q0.640625 0.578125 1.625 0.578125q1.515625 0 2.375 -1.109375l1.296875 1.453125q-0.59375 0.84375 -1.609375 1.3125q-1.0 0.46875 -2.234375 0.46875zm-0.296875 -8.09375q-0.78125 0 -1.28125 0.53125q-0.484375 0.53125 -0.609375 1.515625l3.65625 0l0 -0.21875q-0.015625 -0.875 -0.484375 -1.34375q-0.453125 -0.484375 -1.28125 -0.484375zm8.2717285 -1.953125l0.078125 1.140625q1.0625 -1.3125 2.828125 -1.3125q1.578125 0 2.34375 0.921875q0.765625 0.90625 0.78125 2.734375l0 6.375l-2.640625 0l0 -6.296875q0 -0.84375 -0.359375 -1.21875q-0.359375 -0.375 -1.21875 -0.375q-1.109375 0 -1.65625 0.9375l0 6.953125l-2.640625 0l0 -9.859375l2.484375 0zm7.6048584 4.859375q0 -2.3125 1.03125 -3.671875q1.046875 -1.359375 2.84375 -1.359375q1.4375 0 2.375 1.0625l0 -5.03125l2.640625 0l0 14.0l-2.375 0l-0.125 -1.046875q-0.984375 1.234375 -2.53125 1.234375q-1.75 0 -2.8125 -1.375q-1.046875 -1.375 -1.046875 -3.8125zm2.640625 0.1875q0 1.390625 0.484375 2.125q0.484375 0.734375 1.40625 0.734375q1.21875 0 1.71875 -1.03125l0 -3.890625q-0.5 -1.015625 -1.703125 -1.015625q-1.90625 0 -1.90625 3.078125zm12.824829 5.0q-2.171875 0 -3.53125 -1.328125q-1.359375 -1.34375 -1.359375 -3.546875l0 -0.265625q0 -1.484375 0.5625 -2.640625q0.578125 -1.171875 1.625 -1.796875q1.0625 -0.640625 2.40625 -0.640625q2.03125 0 3.1875 1.28125q1.15625 1.265625 1.15625 3.609375l0 1.0625l-6.265625 0q0.125 0.96875 0.765625 1.5625q0.640625 0.578125 1.625 0.578125q1.515625 0 2.375 -1.109375l1.296875 1.453125q-0.59375 0.84375 -1.609375 1.3125q-1.0 0.46875 -2.234375 0.46875zm-0.296875 -8.09375q-0.78125 0 -1.28125 0.53125q-0.484375 0.53125 -0.609375 1.515625l3.65625 0l0 -0.21875q-0.015625 -0.875 -0.484375 -1.34375q-0.453125 -0.484375 -1.28125 -0.484375zm11.3811035 0.515625q-0.53125 -0.0625 -0.9375 -0.0625q-1.5 0 -1.96875 1.0l0 6.453125l-2.625 0l0 -9.859375l2.484375 0l0.078125 1.171875q0.78125 -1.34375 2.1875 -1.34375q0.4375 0 0.828125 0.109375l-0.046875 2.53125z" fill-rule="nonzero"/><path fill="#cae682" d="m583.3333 245.2021l0 0c0 -19.934433 16.160095 -36.094498 36.094482 -36.094498l159.14966 0c9.572815 0 18.753601 3.8028107 25.522644 10.571838c6.769043 6.7690277 10.571838 15.949799 10.571838 25.52266l0 0l0 0c0 19.934433 -16.160095 36.094498 -36.094482 36.094498l-159.14966 0c-19.934387 0 -36.094482 -16.160065 -36.094482 -36.094498z" fill-rule="evenodd"/><path fill="#000000" d="m668.622 247.26273l-2.171875 0l0 4.859375l-2.734375 0l0 -13.265625l4.921875 0q2.359375 0 3.625 1.046875q1.28125 1.046875 1.28125 2.96875q0 1.359375 -0.59375 2.265625q-0.578125 0.90625 -1.78125 1.4375l2.875 5.421875l0 0.125l-2.9375 0l-2.484375 -4.859375zm-2.171875 -2.203125l2.203125 0q1.03125 0 1.59375 -0.515625q0.5625 -0.53125 0.5625 -1.453125q0 -0.9375 -0.53125 -1.46875q-0.53125 -0.546875 -1.640625 -0.546875l-2.1875 0l0 3.984375zm13.531067 7.25q-2.171875 0 -3.53125 -1.328125q-1.359375 -1.34375 -1.359375 -3.546875l0 -0.265625q0 -1.484375 0.5625 -2.640625q0.578125 -1.171875 1.625 -1.796875q1.0625 -0.640625 2.40625 -0.640625q2.03125 0 3.1875 1.28125q1.15625 1.265625 1.15625 3.609375l0 1.0625l-6.265625 0q0.125 0.96875 0.765625 1.5625q0.640625 0.578125 1.625 0.578125q1.515625 0 2.375 -1.109375l1.296875 1.453125q-0.59375 0.84375 -1.609375 1.3125q-1.0 0.46875 -2.234375 0.46875zm-0.296875 -8.09375q-0.78125 0 -1.28125 0.53125q-0.484375 0.53125 -0.609375 1.515625l3.65625 0l0 -0.21875q-0.015625 -0.875 -0.484375 -1.34375q-0.453125 -0.484375 -1.28125 -0.484375zm9.9436035 5.96875q0.734375 0 1.1875 -0.390625q0.453125 -0.40625 0.46875 -1.078125l2.46875 0q0 1.0 -0.546875 1.84375q-0.53125 0.828125 -1.46875 1.296875q-0.9375 0.453125 -2.0625 0.453125q-2.109375 0 -3.34375 -1.34375q-1.21875 -1.34375 -1.21875 -3.71875l0 -0.171875q0 -2.28125 1.21875 -3.625q1.21875 -1.359375 3.328125 -1.359375q1.84375 0 2.953125 1.046875q1.125 1.046875 1.140625 2.796875l-2.46875 0q-0.015625 -0.765625 -0.46875 -1.234375q-0.453125 -0.484375 -1.203125 -0.484375q-0.921875 0 -1.390625 0.671875q-0.46875 0.671875 -0.46875 2.171875l0 0.265625q0 1.53125 0.453125 2.203125q0.46875 0.65625 1.421875 0.65625zm10.166443 2.125q-2.171875 0 -3.53125 -1.328125q-1.359375 -1.34375 -1.359375 -3.546875l0 -0.265625q0 -1.484375 0.5625 -2.640625q0.578125 -1.171875 1.625 -1.796875q1.0625 -0.640625 2.40625 -0.640625q2.03125 0 3.1875 1.28125q1.15625 1.265625 1.15625 3.609375l0 1.0625l-6.265625 0q0.125 0.96875 0.765625 1.5625q0.640625 0.578125 1.625 0.578125q1.515625 0 2.375 -1.109375l1.296875 1.453125q-0.59375 0.84375 -1.609375 1.3125q-1.0 0.46875 -2.234375 0.46875zm-0.296875 -8.09375q-0.78125 0 -1.28125 0.53125q-0.484375 0.53125 -0.609375 1.515625l3.65625 0l0 -0.21875q-0.015625 -0.875 -0.484375 -1.34375q-0.453125 -0.484375 -1.28125 -0.484375zm8.6311035 7.90625l-2.65625 0l0 -9.859375l2.65625 0l0 9.859375zm-2.796875 -12.40625q0 -0.59375 0.390625 -0.96875q0.390625 -0.390625 1.078125 -0.390625q0.671875 0 1.0625 0.390625q0.40625 0.375 0.40625 0.96875q0 0.59375 -0.40625 0.984375q-0.390625 0.375 -1.0625 0.375q-0.671875 0 -1.078125 -0.375q-0.390625 -0.390625 -0.390625 -0.984375zm8.649597 9.1875l1.828125 -6.640625l2.75 0l-3.328125 9.859375l-2.515625 0l-3.3125 -9.859375l2.75 0l1.828125 6.640625zm10.153564 3.40625q-2.171875 0 -3.53125 -1.328125q-1.359375 -1.34375 -1.359375 -3.546875l0 -0.265625q0 -1.484375 0.5625 -2.640625q0.578125 -1.171875 1.625 -1.796875q1.0625 -0.640625 2.40625 -0.640625q2.03125 0 3.1875 1.28125q1.15625 1.265625 1.15625 3.609375l0 1.0625l-6.265625 0q0.125 0.96875 0.765625 1.5625q0.640625 0.578125 1.625 0.578125q1.515625 0 2.375 -1.109375l1.296875 1.453125q-0.59375 0.84375 -1.609375 1.3125q-1.0 0.46875 -2.234375 0.46875zm-0.296875 -8.09375q-0.78125 0 -1.28125 0.53125q-0.484375 0.53125 -0.609375 1.515625l3.65625 0l0 -0.21875q-0.015625 -0.875 -0.484375 -1.34375q-0.453125 -0.484375 -1.28125 -0.484375zm11.3811035 0.515625q-0.53125 -0.0625 -0.9375 -0.0625q-1.5 0 -1.96875 1.0l0 6.453125l-2.625 0l0 -9.859375l2.484375 0l0.078125 1.171875q0.78125 -1.34375 2.1875 -1.34375q0.4375 0 0.828125 0.109375l-0.046875 2.53125z" fill-rule="nonzero"/><path fill="#ffd966" d="m74.54855 336.98425l13.860237 -3.9648132l-7.121414 -6.247772l16.885208 -0.61950684l1.5255814 -6.856659l15.385811 2.8918457l9.763794 -5.628296l9.763802 5.628296l15.385803 -2.8918457l1.5255737 6.856659l16.885208 0.61950684l-7.121414 6.247772l13.860245 3.9648132l-13.860245 3.9648132l7.121414 6.247772l-16.885208 0.61950684l-1.5255737 6.856659l-15.385803 -2.8918457l-9.763802 5.628296l-9.763794 -5.628296l-15.385811 2.8918457l-1.5255814 -6.856659l-16.885208 -0.61950684l7.121414 -6.247772z" fill-rule="evenodd"/><path stroke="#9e9e9e" stroke-width="1.0" stroke-linejoin="round" stroke-linecap="butt" d="m74.54855 336.98425l13.860237 -3.9648132l-7.121414 -6.247772l16.885208 -0.61950684l1.5255814 -6.856659l15.385811 2.8918457l9.763794 -5.628296l9.763802 5.628296l15.385803 -2.8918457l1.5255737 6.856659l16.885208 0.61950684l-7.121414 6.247772l13.860245 3.9648132l-13.860245 3.9648132l7.121414 6.247772l-16.885208 0.61950684l-1.5255737 6.856659l-15.385803 -2.8918457l-9.763802 5.628296l-9.763794 -5.628296l-15.385811 2.8918457l-1.5255814 -6.856659l-16.885208 -0.61950684l7.121414 -6.247772z" fill-rule="evenodd"/><path fill="#000000" d="m113.06117 339.22424q0 -0.390625 -0.296875 -0.59375q-0.28125 -0.21875 -1.015625 -0.375q-0.734375 -0.15625 -1.171875 -0.375q-0.421875 -0.21875 -0.625 -0.515625q-0.203125 -0.3125 -0.203125 -0.71875q0 -0.703125 0.578125 -1.171875q0.59375 -0.484375 1.5 -0.484375q0.953125 0 1.546875 0.5q0.609375 0.484375 0.609375 1.265625l-0.96875 0q0 -0.40625 -0.34375 -0.6875q-0.328125 -0.28125 -0.84375 -0.28125q-0.515625 0 -0.8125 0.234375q-0.296875 0.21875 -0.296875 0.59375q0 0.34375 0.265625 0.53125q0.28125 0.171875 1.0 0.328125q0.71875 0.15625 1.15625 0.390625q0.453125 0.21875 0.671875 0.53125q0.21875 0.3125 0.21875 0.765625q0 0.75 -0.609375 1.21875q-0.59375 0.453125 -1.5625 0.453125q-0.671875 0 -1.203125 -0.234375q-0.515625 -0.25 -0.8125 -0.671875q-0.28125 -0.4375 -0.28125 -0.9375l0.953125 0q0.03125 0.484375 0.390625 0.765625q0.359375 0.28125 0.953125 0.28125q0.546875 0 0.875 -0.21875q0.328125 -0.21875 0.328125 -0.59375zm1.9633789 -1.359375q0 -0.828125 0.328125 -1.484375q0.328125 -0.671875 0.90625 -1.03125q0.578125 -0.359375 1.328125 -0.359375q1.140625 0 1.84375 0.796875q0.71875 0.796875 0.71875 2.125l0 0.0625q0 0.8125 -0.3125 1.46875q-0.3125 0.65625 -0.90625 1.03125q-0.578125 0.359375 -1.34375 0.359375q-1.140625 0 -1.859375 -0.796875q-0.703125 -0.796875 -0.703125 -2.109375l0 -0.0625zm0.96875 0.109375q0 0.9375 0.4375 1.5q0.4375 0.5625 1.15625 0.5625q0.734375 0 1.171875 -0.5625q0.4375 -0.578125 0.4375 -1.609375q0 -0.9375 -0.453125 -1.5q-0.4375 -0.578125 -1.15625 -0.578125q-0.71875 0 -1.15625 0.5625q-0.4375 0.5625 -0.4375 1.625zm7.6242676 2.0625q0.515625 0 0.890625 -0.3125q0.390625 -0.3125 0.4375 -0.78125l0.90625 0q-0.015625 0.484375 -0.328125 0.921875q-0.3125 0.4375 -0.828125 0.703125q-0.5 0.265625 -1.078125 0.265625q-1.140625 0 -1.828125 -0.765625q-0.671875 -0.78125 -0.671875 -2.109375l0 -0.15625q0 -0.828125 0.296875 -1.46875q0.296875 -0.640625 0.859375 -0.984375q0.578125 -0.359375 1.34375 -0.359375q0.9375 0 1.5625 0.578125q0.640625 0.5625 0.671875 1.46875l-0.90625 0q-0.046875 -0.546875 -0.421875 -0.890625q-0.359375 -0.359375 -0.90625 -0.359375q-0.734375 0 -1.140625 0.53125q-0.40625 0.515625 -0.40625 1.515625l0 0.1875q0 0.96875 0.40625 1.5q0.40625 0.515625 1.140625 0.515625zm4.890381 -1.921875l-0.59375 0.625l0 1.984375l-0.96875 0l0 -8.0l0.96875 0l0 4.84375l0.515625 -0.625l1.75 -1.84375l1.171875 0l-2.203125 2.34375l2.453125 3.28125l-1.125 0l-1.96875 -2.609375zm6.0624237 2.71875q-1.140625 0 -1.859375 -0.75q-0.71875 -0.765625 -0.71875 -2.015625l0 -0.171875q0 -0.84375 0.3125 -1.5q0.328125 -0.65625 0.90625 -1.03125q0.578125 -0.375 1.234375 -0.375q1.109375 0 1.71875 0.734375q0.609375 0.71875 0.609375 2.0625l0 0.390625l-3.8125 0q0.015625 0.84375 0.484375 1.359375q0.46875 0.5 1.171875 0.5q0.515625 0 0.859375 -0.203125q0.359375 -0.203125 0.625 -0.546875l0.59375 0.453125q-0.703125 1.09375 -2.125 1.09375zm-0.125 -5.046875q-0.578125 0 -0.96875 0.421875q-0.390625 0.421875 -0.484375 1.1875l2.8125 0l0 -0.078125q-0.046875 -0.734375 -0.40625 -1.125q-0.34375 -0.40625 -0.953125 -0.40625zm4.739273 -2.0625l0 1.375l1.046875 0l0 0.734375l-1.046875 0l0 3.5q0 0.328125 0.140625 0.5q0.140625 0.171875 0.484375 0.171875q0.15625 0 0.453125 -0.0625l0 0.78125q-0.375 0.109375 -0.734375 0.109375q-0.640625 0 -0.96875 -0.390625q-0.328125 -0.390625 -0.328125 -1.109375l0 -3.5l-1.03125 0l0 -0.734375l1.03125 0l0 -1.375l0.953125 0z" fill-rule="nonzero"/><path fill="#ffffff" d="m237.05643 222.92389l0 -14.31694l0 0c0 -7.907013 6.409912 -14.316925 14.316925 -14.316925l15.832672 0l0 -4.0905457l8.181122 8.181107l-8.181122 8.181091l0 -4.0905457l-15.832672 0l0 0c-3.3887177 0 -6.1358185 2.7471008 -6.1358185 6.1358185l0 14.31694z" fill-rule="evenodd"/><path stroke="#9e9e9e" stroke-width="1.0" stroke-linejoin="round" stroke-linecap="butt" d="m237.05643 222.92389l0 -14.31694l0 0c0 -7.907013 6.409912 -14.316925 14.316925 -14.316925l15.832672 0l0 -4.0905457l8.181122 8.181107l-8.181122 8.181091l0 -4.0905457l-15.832672 0l0 0c-3.3887177 0 -6.1358185 2.7471008 -6.1358185 6.1358185l0 14.31694z" fill-rule="evenodd"/><path fill="#ffffff" d="m279.05905 205.64568l0 14.316925l0 0c0 7.907013 -6.409912 14.316925 -14.316925 14.316925l-15.832672 0l0 4.0905457l-8.181107 -8.181091l8.181107 -8.181107l0 4.0905457l15.832672 0l0 0c3.388733 0 6.1358337 -2.7471008 6.1358337 -6.1358185l0 -14.316925z" fill-rule="evenodd"/><path stroke="#9e9e9e" stroke-width="1.0" stroke-linejoin="round" stroke-linecap="butt" d="m279.05905 205.64568l0 14.316925l0 0c0 7.907013 -6.409912 14.316925 -14.316925 14.316925l-15.832672 0l0 4.0905457l-8.181107 -8.181091l8.181107 -8.181107l0 4.0905457l15.832672 0l0 0c3.388733 0 6.1358337 -2.7471008 6.1358337 -6.1358185l0 -14.316925z" fill-rule="evenodd"/><path fill="#ffffff" d="m172.49738 353.34647l0 -14.316925l0 0c0 -7.9070435 6.409912 -14.316956 14.316925 -14.316956l15.832687 0l0 -4.0905457l8.181091 8.181122l-8.181091 8.181091l0 -4.0905457l-15.832687 0l0 0c-3.3887177 0 -6.1358185 2.7471008 -6.1358185 6.1358337l0 14.316925z" fill-rule="evenodd"/><path stroke="#9e9e9e" stroke-width="1.0" stroke-linejoin="round" stroke-linecap="butt" d="m172.49738 353.34647l0 -14.316925l0 0c0 -7.9070435 6.409912 -14.316956 14.316925 -14.316956l15.832687 0l0 -4.0905457l8.181091 8.181122l-8.181091 8.181091l0 -4.0905457l-15.832687 0l0 0c-3.3887177 0 -6.1358185 2.7471008 -6.1358185 6.1358337l0 14.316925z" fill-rule="evenodd"/><path fill="#ffffff" d="m214.5 336.06824l0 14.316925l0 0c0 7.9070435 -6.409912 14.316925 -14.316925 14.316925l-15.832687 0l0 4.090576l-8.181091 -8.181122l8.181091 -8.181091l0 4.0905457l15.832687 0l0 0c3.3887177 0 6.1358185 -2.7471008 6.1358185 -6.1358337l0 -14.316925z" fill-rule="evenodd"/><path stroke="#9e9e9e" stroke-width="1.0" stroke-linejoin="round" stroke-linecap="butt" d="m214.5 336.06824l0 14.316925l0 0c0 7.9070435 -6.409912 14.316925 -14.316925 14.316925l-15.832687 0l0 4.090576l-8.181091 -8.181122l8.181091 -8.181091l0 4.0905457l15.832687 0l0 0c3.3887177 0 6.1358185 -2.7471008 6.1358185 -6.1358337l0 -14.316925z" fill-rule="evenodd"/><path fill="#ffffff" d="m116.04462 311.95297l5.9448853 0l0 -35.700775l11.8897705 0l0 35.700775l5.94487 0l-11.889763 11.8897705z" fill-rule="evenodd"/><path stroke="#9e9e9e" stroke-width="1.0" stroke-linejoin="round" stroke-linecap="butt" d="m116.04462 311.95297l5.9448853 0l0 -35.700775l11.8897705 0l0 35.700775l5.94487 0l-11.889763 11.8897705z" fill-rule="evenodd"/><path fill="#ffffff" d="m246.16798 430.88452l5.94487 0l0 -28.960632l11.8897705 0l0 28.960632l5.9448853 0l-11.8897705 11.8897705z" fill-rule="evenodd"/><path stroke="#9e9e9e" stroke-width="1.0" stroke-linejoin="round" stroke-linecap="butt" d="m246.16798 430.88452l5.94487 0l0 -28.960632l11.8897705 0l0 28.960632l5.9448853 0l-11.8897705 11.8897705z" fill-rule="evenodd"/><path fill="#ffd966" d="m577.1916 300.04724l13.8602295 -3.9648132l-7.121399 -6.247772l16.885193 -0.61950684l1.5255737 -6.856659l15.385803 2.8918457l9.763794 -5.628296l9.763855 5.628296l15.385803 -2.8918457l1.5255737 6.856659l16.885193 0.61950684l-7.121399 6.247772l13.8602295 3.9648132l-13.8602295 3.9648132l7.121399 6.2478027l-16.885193 0.6194763l-1.5255737 6.856659l-15.385803 -2.8918152l-9.763855 5.6282654l-9.763794 -5.6282654l-15.385803 2.8918152l-1.5255737 -6.856659l-16.885193 -0.6194763l7.121399 -6.2478027z" fill-rule="evenodd"/><path stroke="#9e9e9e" stroke-width="1.0" stroke-linejoin="round" stroke-linecap="butt" d="m577.1916 300.04724l13.8602295 -3.9648132l-7.121399 -6.247772l16.885193 -0.61950684l1.5255737 -6.856659l15.385803 2.8918457l9.763794 -5.628296l9.763855 5.628296l15.385803 -2.8918457l1.5255737 6.856659l16.885193 0.61950684l-7.121399 6.247772l13.8602295 3.9648132l-13.8602295 3.9648132l7.121399 6.2478027l-16.885193 0.6194763l-1.5255737 6.856659l-15.385803 -2.8918152l-9.763855 5.6282654l-9.763794 -5.6282654l-15.385803 2.8918152l-1.5255737 -6.856659l-16.885193 -0.6194763l7.121399 -6.2478027z" fill-rule="evenodd"/><path fill="#000000" d="m615.7042 302.28723q0 -0.390625 -0.296875 -0.59375q-0.28125 -0.21875 -1.015625 -0.375q-0.734375 -0.15625 -1.171875 -0.375q-0.421875 -0.21875 -0.625 -0.515625q-0.203125 -0.3125 -0.203125 -0.71875q0 -0.703125 0.578125 -1.171875q0.59375 -0.484375 1.5 -0.484375q0.953125 0 1.546875 0.5q0.609375 0.484375 0.609375 1.265625l-0.96875 0q0 -0.40625 -0.34375 -0.6875q-0.328125 -0.28125 -0.84375 -0.28125q-0.515625 0 -0.8125 0.234375q-0.296875 0.21875 -0.296875 0.59375q0 0.34375 0.265625 0.53125q0.28125 0.171875 1.0 0.328125q0.71875 0.15625 1.15625 0.390625q0.453125 0.21875 0.671875 0.53125q0.21875 0.3125 0.21875 0.765625q0 0.75 -0.609375 1.21875q-0.59375 0.453125 -1.5625 0.453125q-0.671875 0 -1.203125 -0.234375q-0.515625 -0.25 -0.8125 -0.671875q-0.28125 -0.4375 -0.28125 -0.9375l0.953125 0q0.03125 0.484375 0.390625 0.765625q0.359375 0.28125 0.953125 0.28125q0.546875 0 0.875 -0.21875q0.328125 -0.21875 0.328125 -0.59375zm1.9633789 -1.359375q0 -0.828125 0.328125 -1.484375q0.328125 -0.671875 0.90625 -1.03125q0.578125 -0.359375 1.328125 -0.359375q1.140625 0 1.84375 0.796875q0.71875 0.796875 0.71875 2.125l0 0.0625q0 0.8125 -0.3125 1.46875q-0.3125 0.65625 -0.90625 1.03125q-0.578125 0.359375 -1.34375 0.359375q-1.140625 0 -1.859375 -0.796875q-0.703125 -0.796875 -0.703125 -2.109375l0 -0.0625zm0.96875 0.109375q0 0.9375 0.4375 1.5q0.4375 0.5625 1.15625 0.5625q0.734375 0 1.171875 -0.5625q0.4375 -0.578125 0.4375 -1.609375q0 -0.9375 -0.453125 -1.5q-0.4375 -0.578125 -1.15625 -0.578125q-0.71875 0 -1.15625 0.5625q-0.4375 0.5625 -0.4375 1.625zm7.6242676 2.0625q0.515625 0 0.890625 -0.3125q0.390625 -0.3125 0.4375 -0.78125l0.90625 0q-0.015625 0.484375 -0.328125 0.921875q-0.3125 0.4375 -0.828125 0.703125q-0.5 0.265625 -1.078125 0.265625q-1.140625 0 -1.828125 -0.765625q-0.671875 -0.78125 -0.671875 -2.109375l0 -0.15625q0 -0.828125 0.296875 -1.46875q0.296875 -0.640625 0.859375 -0.984375q0.578125 -0.359375 1.34375 -0.359375q0.9375 0 1.5625 0.578125q0.640625 0.5625 0.671875 1.46875l-0.90625 0q-0.046875 -0.546875 -0.421875 -0.890625q-0.359375 -0.359375 -0.90625 -0.359375q-0.734375 0 -1.140625 0.53125q-0.40625 0.515625 -0.40625 1.515625l0 0.1875q0 0.96875 0.40625 1.5q0.40625 0.515625 1.140625 0.515625zm4.890381 -1.921875l-0.59375 0.625l0 1.984375l-0.96875 0l0 -8.0l0.96875 0l0 4.84375l0.515625 -0.625l1.75 -1.84375l1.171875 0l-2.203125 2.34375l2.453125 3.28125l-1.125 0l-1.96875 -2.609375zm6.062439 2.71875q-1.140625 0 -1.859375 -0.75q-0.71875 -0.765625 -0.71875 -2.015625l0 -0.171875q0 -0.84375 0.3125 -1.5q0.328125 -0.65625 0.90625 -1.03125q0.578125 -0.375 1.234375 -0.375q1.109375 0 1.71875 0.734375q0.609375 0.71875 0.609375 2.0625l0 0.390625l-3.8125 0q0.015625 0.84375 0.484375 1.359375q0.46875 0.5 1.171875 0.5q0.515625 0 0.859375 -0.203125q0.359375 -0.203125 0.625 -0.546875l0.59375 0.453125q-0.703125 1.09375 -2.125 1.09375zm-0.125 -5.046875q-0.578125 0 -0.96875 0.421875q-0.390625 0.421875 -0.484375 1.1875l2.8125 0l0 -0.078125q-0.046875 -0.734375 -0.40625 -1.125q-0.34375 -0.40625 -0.953125 -0.40625zm4.739258 -2.0625l0 1.375l1.046875 0l0 0.734375l-1.046875 0l0 3.5q0 0.328125 0.140625 0.5q0.140625 0.171875 0.484375 0.171875q0.15625 0 0.453125 -0.0625l0 0.78125q-0.375 0.109375 -0.734375 0.109375q-0.640625 0 -0.96875 -0.390625q-0.328125 -0.390625 -0.328125 -1.109375l0 -3.5l-1.03125 0l0 -0.734375l1.03125 0l0 -1.375l0.953125 0z" fill-rule="nonzero"/><path fill="#ffffff" d="m642.4514 323.83987l-5.944824 0l0 37.149628l-11.8897705 0l0 -37.149628l-5.9448853 0l11.8897705 -11.88974z" fill-rule="evenodd"/><path stroke="#9e9e9e" stroke-width="1.0" stroke-linejoin="round" stroke-linecap="butt" d="m642.4514 323.83987l-5.944824 0l0 37.149628l-11.8897705 0l0 -37.149628l-5.9448853 0l11.8897705 -11.88974z" fill-rule="evenodd"/><path fill="#ffffff" d="m670.56036 296.50394l0 -14.316925l0 0c0 -7.907013 6.409912 -14.316925 14.316956 -14.316925l15.832642 0l0 -4.0905457l8.181091 8.181091l-8.181091 8.181091l0 -4.0905457l-15.832642 0l0 0c-3.388733 0 -6.1358643 2.7471008 -6.1358643 6.1358337l0 14.316925z" fill-rule="evenodd"/><path stroke="#9e9e9e" stroke-width="1.0" stroke-linejoin="round" stroke-linecap="butt" d="m670.56036 296.50394l0 -14.316925l0 0c0 -7.907013 6.409912 -14.316925 14.316956 -14.316925l15.832642 0l0 -4.0905457l8.181091 8.181091l-8.181091 8.181091l0 -4.0905457l-15.832642 0l0 0c-3.388733 0 -6.1358643 2.7471008 -6.1358643 6.1358337l0 14.316925z" fill-rule="evenodd"/><path fill="#ffffff" d="m712.563 279.2257l0 14.316956l0 0c0 7.907013 -6.409912 14.316925 -14.316956 14.316925l-15.832642 0l0 4.0905457l-8.181091 -8.181091l8.181091 -8.181122l0 4.0905457l15.832642 0l0 0c3.388733 0 6.1358643 -2.7471008 6.1358643 -6.135803l0 -14.316956z" fill-rule="evenodd"/><path stroke="#9e9e9e" stroke-width="1.0" stroke-linejoin="round" stroke-linecap="butt" d="m712.563 279.2257l0 14.316956l0 0c0 7.907013 -6.409912 14.316925 -14.316956 14.316925l-15.832642 0l0 4.0905457l-8.181091 -8.181091l8.181091 -8.181122l0 4.0905457l15.832642 0l0 0c3.388733 0 6.1358643 -2.7471008 6.1358643 -6.135803l0 -14.316956z" fill-rule="evenodd"/><path fill="#00ff00" d="m52.740158 139.3937l0 0c0 -3.8964386 3.1586838 -7.05513 7.0551186 -7.05513l0 0l0 0c1.8711319 0 3.6656303 0.74331665 4.98872 2.0664062c1.3230896 1.3230896 2.0663986 3.1175842 2.0663986 4.9887238l0 46.015747c0 3.8964233 -3.1586838 7.0551147 -7.0551186 7.0551147l0 0l0 0c-3.8964348 0 -7.0551186 -3.1586914 -7.0551186 -7.0551147z" fill-rule="evenodd"/><path fill="#00ff00" d="m151.53018 139.3937l0 0c0 -3.8964386 3.1586914 -7.05513 7.0551147 -7.05513l0 0l0 0c1.8711395 0 3.6656342 0.74331665 4.9887238 2.0664062c1.3230896 1.3230896 2.0664062 3.1175842 2.0664062 4.9887238l0 46.015747c0 3.8964233 -3.1586914 7.0551147 -7.05513 7.0551147l0 0l0 0c-3.8964233 0 -7.0551147 -3.1586914 -7.0551147 -7.0551147z" fill-rule="evenodd"/><path fill="#00ff00" d="m52.740158 449.8294l0 0c0 -3.8964539 3.1586838 -7.0551147 7.0551186 -7.0551147l0 0l0 0c1.8711319 0 3.6656303 0.74328613 4.98872 2.0663757c1.3230896 1.3230896 2.0663986 3.1175842 2.0663986 4.988739l0 46.015747c0 3.8964233 -3.1586838 7.0551147 -7.0551186 7.0551147l0 0l0 0c-3.8964348 0 -7.0551186 -3.1586914 -7.0551186 -7.0551147z" fill-rule="evenodd"/><path fill="#00ff00" d="m151.53018 449.8294l0 0c0 -3.8964539 3.1586914 -7.0551147 7.0551147 -7.0551147l0 0l0 0c1.8711395 0 3.6656342 0.74328613 4.9887238 2.0663757c1.3230896 1.3230896 2.0664062 3.1175842 2.0664062 4.988739l0 46.015747c0 3.8964233 -3.1586914 7.0551147 -7.05513 7.0551147l0 0l0 0c-3.8964233 0 -7.0551147 -3.1586914 -7.0551147 -7.0551147z" fill-rule="evenodd"/><path fill="#000000" fill-opacity="0.0" d="m891.3648 491.44455l57.606323 0l0 41.322845l-57.606323 0z" fill-rule="evenodd"/><path fill="#cacaca" d="m938.0999 508.06223q-0.046875 1.421875 -0.046875 3.484375q0 3.3437195 0.078125 4.1562195l0.03125 0.28125q0.015625 0.234375 0.265625 0.34375q0.25 0.09375 0.9375 0.234375l-0.03125 0.390625q-0.796875 -0.046875 -1.921875 -0.046875q-1.125 0 -2.15625 0.046875l-0.046875 -0.390625q0.234375 -0.0625 0.5 -0.109375q0.28125 -0.046875 0.4375 -0.078125q0.171875 -0.046875 0.265625 -0.078125q0.09375 -0.03125 0.1875 -0.078125q0.171875 -0.078125 0.203125 -0.234375q0.09375 -0.78125 0.09375 -2.84375q0 -3.2187195 -0.078125 -3.9687195l-0.015625 -0.203125l-1.609375 -0.28125l-0.046875 -0.484375q1.671875 0 2.671875 -0.265625l0.28125 0.125z" fill-rule="nonzero"/></g></svg>